<?xml version="1.0" encoding="UTF-8" standalone="no"?><svg xmlns="http://www.w3.org/2000/svg" xmlns:xlink="http://www.w3.org/1999/xlink" contentStyleType="text/css" height="275px" preserveAspectRatio="none" style="width:545px;height:275px;background:#FFFFFF;" version="1.1" viewBox="0 0 545 275" width="545px" zoomAndPan="magnify"><defs/><g><!--class Message--><g id="elem_Message"><rect codeLine="3" fill="#F1F1F1" height="118.4375" id="Message" rx="2.5" ry="2.5" style="stroke:#181818;stroke-width:0.5;" width="145" x="7" y="7"/><ellipse cx="47.2" cy="23" fill="#F1F1F1" rx="11" ry="11" style="stroke:#181818;stroke-width:1.0;"/><path d="M45.3094,27.5625 Q45.0906,27.8281 44.95,27.9063 Q44.8094,27.9844 44.6219,27.9844 Q44.2313,27.9844 43.9891,27.7188 Q43.7469,27.4531 43.7469,26.8594 L43.7469,25.7031 Q43.7469,25.0938 43.9891,24.8359 Q44.2313,24.5781 44.6219,24.5781 Q44.9188,24.5781 45.1219,24.7344 Q45.325,24.8906 45.4344,25.2578 Q45.5438,25.625 45.6531,25.7656 Q45.9031,26.0156 46.5125,26.2813 Q47.1219,26.5469 47.8563,26.5469 Q48.9969,26.5469 49.7156,26.0156 Q50.1844,25.6875 50.1844,25.2188 Q50.1844,24.9063 49.9656,24.625 Q49.7469,24.3438 49.2313,24.1719 Q48.9031,24.0469 47.7469,23.8281 Q46.3563,23.5625 45.6375,23.2031 Q44.9188,22.8438 44.5047,22.1797 Q44.0906,21.5156 44.0906,20.7344 Q44.0906,19.5156 45.1141,18.6016 Q46.1375,17.6875 47.7781,17.6875 Q48.4344,17.6875 48.9891,17.8281 Q49.5438,17.9688 50.0125,18.2656 Q50.3406,17.9531 50.6688,17.9531 Q51.0438,17.9531 51.2781,18.2109 Q51.5125,18.4688 51.5125,19.0781 L51.5125,20.3594 Q51.5125,20.9688 51.2781,21.2266 Q51.0438,21.4844 50.6688,21.4844 Q50.3563,21.4844 50.1219,21.2969 Q49.9344,21.1563 49.8484,20.7344 Q49.7625,20.3125 49.6219,20.125 Q49.3719,19.8125 48.8953,19.6016 Q48.4188,19.3906 47.7781,19.3906 Q46.8563,19.3906 46.325,19.8125 Q45.7938,20.2344 45.7938,20.7031 Q45.7938,21.0156 46.0125,21.3125 Q46.2313,21.6094 46.6531,21.7813 Q46.9344,21.8906 48.2391,22.1484 Q49.5438,22.4063 50.2469,22.7109 Q50.95,23.0156 51.4188,23.6719 Q51.8875,24.3281 51.8875,25.2344 Q51.8875,26.5 50.9969,27.25 Q49.8094,28.25 47.9813,28.25 Q47.2781,28.25 46.6141,28.0781 Q45.95,27.9063 45.3094,27.5625 Z " fill="#000000"/><text fill="#000000" font-family="sans-serif" font-size="14" lengthAdjust="spacing" textLength="57" x="66.8" y="28.7285">Message</text><line style="stroke:#181818;stroke-width:0.5;" x1="8" x2="151" y1="39" y2="39"/><text fill="#000000" font-family="sans-serif" font-size="14" lengthAdjust="spacing" textLength="95" x="13" y="57.5332">ID : MessageID</text><text fill="#000000" font-family="sans-serif" font-size="14" lengthAdjust="spacing" textLength="99" x="13" y="75.1426">Source : UserID</text><text fill="#000000" font-family="sans-serif" font-size="14" lengthAdjust="spacing" textLength="125" x="13" y="92.752">Destination : UserID</text><text fill="#000000" font-family="sans-serif" font-size="14" lengthAdjust="spacing" textLength="133" x="13" y="110.3613">Body : MessageBody</text><line style="stroke:#181818;stroke-width:0.5;" x1="8" x2="151" y1="117.4375" y2="117.4375"/></g><!--class MessageBody--><g id="elem_MessageBody"><rect codeLine="10" fill="#F1F1F1" height="83.2188" id="MessageBody" rx="2.5" ry="2.5" style="stroke:#181818;stroke-width:0.5;" width="181" x="98" y="185"/><ellipse cx="140" cy="201" fill="#F1F1F1" rx="11" ry="11" style="stroke:#181818;stroke-width:1.0;"/><path d="M138.1094,205.5625 Q137.8906,205.8281 137.75,205.9063 Q137.6094,205.9844 137.4219,205.9844 Q137.0313,205.9844 136.7891,205.7188 Q136.5469,205.4531 136.5469,204.8594 L136.5469,203.7031 Q136.5469,203.0938 136.7891,202.8359 Q137.0313,202.5781 137.4219,202.5781 Q137.7188,202.5781 137.9219,202.7344 Q138.125,202.8906 138.2344,203.2578 Q138.3438,203.625 138.4531,203.7656 Q138.7031,204.0156 139.3125,204.2813 Q139.9219,204.5469 140.6563,204.5469 Q141.7969,204.5469 142.5156,204.0156 Q142.9844,203.6875 142.9844,203.2188 Q142.9844,202.9063 142.7656,202.625 Q142.5469,202.3438 142.0313,202.1719 Q141.7031,202.0469 140.5469,201.8281 Q139.1563,201.5625 138.4375,201.2031 Q137.7188,200.8438 137.3047,200.1797 Q136.8906,199.5156 136.8906,198.7344 Q136.8906,197.5156 137.9141,196.6016 Q138.9375,195.6875 140.5781,195.6875 Q141.2344,195.6875 141.7891,195.8281 Q142.3438,195.9688 142.8125,196.2656 Q143.1406,195.9531 143.4688,195.9531 Q143.8438,195.9531 144.0781,196.2109 Q144.3125,196.4688 144.3125,197.0781 L144.3125,198.3594 Q144.3125,198.9688 144.0781,199.2266 Q143.8438,199.4844 143.4688,199.4844 Q143.1563,199.4844 142.9219,199.2969 Q142.7344,199.1563 142.6484,198.7344 Q142.5625,198.3125 142.4219,198.125 Q142.1719,197.8125 141.6953,197.6016 Q141.2188,197.3906 140.5781,197.3906 Q139.6563,197.3906 139.125,197.8125 Q138.5938,198.2344 138.5938,198.7031 Q138.5938,199.0156 138.8125,199.3125 Q139.0313,199.6094 139.4531,199.7813 Q139.7344,199.8906 141.0391,200.1484 Q142.3438,200.4063 143.0469,200.7109 Q143.75,201.0156 144.2188,201.6719 Q144.6875,202.3281 144.6875,203.2344 Q144.6875,204.5 143.7969,205.25 Q142.6094,206.25 140.7813,206.25 Q140.0781,206.25 139.4141,206.0781 Q138.75,205.9063 138.1094,205.5625 Z " fill="#000000"/><text fill="#000000" font-family="sans-serif" font-size="14" lengthAdjust="spacing" textLength="89" x="160" y="206.7285">MessageBody</text><line style="stroke:#181818;stroke-width:0.5;" x1="99" x2="278" y1="217" y2="217"/><text fill="#000000" font-family="sans-serif" font-size="14" lengthAdjust="spacing" textLength="104" x="104" y="235.5332">Time : time.Time</text><text fill="#000000" font-family="sans-serif" font-size="14" lengthAdjust="spacing" textLength="169" x="104" y="253.1426">Content : MessageContent</text><line style="stroke:#181818;stroke-width:0.5;" x1="99" x2="278" y1="260.2188" y2="260.2188"/></g><!--class User--><g id="elem_User"><rect codeLine="15" fill="#F1F1F1" height="118.4375" id="User" rx="2.5" ry="2.5" style="stroke:#181818;stroke-width:0.5;" width="95" x="443" y="7"/><ellipse cx="473.3" cy="23" fill="#F1F1F1" rx="11" ry="11" style="stroke:#181818;stroke-width:1.0;"/><path d="M471.4094,27.5625 Q471.1906,27.8281 471.05,27.9063 Q470.9094,27.9844 470.7219,27.9844 Q470.3313,27.9844 470.0891,27.7188 Q469.8469,27.4531 469.8469,26.8594 L469.8469,25.7031 Q469.8469,25.0938 470.0891,24.8359 Q470.3313,24.5781 470.7219,24.5781 Q471.0188,24.5781 471.2219,24.7344 Q471.425,24.8906 471.5344,25.2578 Q471.6438,25.625 471.7531,25.7656 Q472.0031,26.0156 472.6125,26.2813 Q473.2219,26.5469 473.9563,26.5469 Q475.0969,26.5469 475.8156,26.0156 Q476.2844,25.6875 476.2844,25.2188 Q476.2844,24.9063 476.0656,24.625 Q475.8469,24.3438 475.3313,24.1719 Q475.0031,24.0469 473.8469,23.8281 Q472.4563,23.5625 471.7375,23.2031 Q471.0188,22.8438 470.6047,22.1797 Q470.1906,21.5156 470.1906,20.7344 Q470.1906,19.5156 471.2141,18.6016 Q472.2375,17.6875 473.8781,17.6875 Q474.5344,17.6875 475.0891,17.8281 Q475.6438,17.9688 476.1125,18.2656 Q476.4406,17.9531 476.7688,17.9531 Q477.1438,17.9531 477.3781,18.2109 Q477.6125,18.4688 477.6125,19.0781 L477.6125,20.3594 Q477.6125,20.9688 477.3781,21.2266 Q477.1438,21.4844 476.7688,21.4844 Q476.4563,21.4844 476.2219,21.2969 Q476.0344,21.1563 475.9484,20.7344 Q475.8625,20.3125 475.7219,20.125 Q475.4719,19.8125 474.9953,19.6016 Q474.5188,19.3906 473.8781,19.3906 Q472.9563,19.3906 472.425,19.8125 Q471.8938,20.2344 471.8938,20.7031 Q471.8938,21.0156 472.1125,21.3125 Q472.3313,21.6094 472.7531,21.7813 Q473.0344,21.8906 474.3391,22.1484 Q475.6438,22.4063 476.3469,22.7109 Q477.05,23.0156 477.5188,23.6719 Q477.9875,24.3281 477.9875,25.2344 Q477.9875,26.5 477.0969,27.25 Q475.9094,28.25 474.0813,28.25 Q473.3781,28.25 472.7141,28.0781 Q472.05,27.9063 471.4094,27.5625 Z " fill="#000000"/><text fill="#000000" font-family="sans-serif" font-size="14" lengthAdjust="spacing" textLength="29" x="490.7" y="28.7285">User</text><line style="stroke:#181818;stroke-width:0.5;" x1="444" x2="537" y1="39" y2="39"/><text fill="#000000" font-family="sans-serif" font-size="14" lengthAdjust="spacing" textLength="67" x="449" y="57.5332">ID : UserID</text><text fill="#000000" font-family="sans-serif" font-size="14" lengthAdjust="spacing" textLength="83" x="449" y="75.1426">Name : string</text><text fill="#000000" font-family="sans-serif" font-size="14" lengthAdjust="spacing" textLength="60" x="449" y="92.752">IP : net.IP</text><text fill="#000000" font-family="sans-serif" font-size="14" lengthAdjust="spacing" textLength="48" x="449" y="110.3613">port: int</text><line style="stroke:#181818;stroke-width:0.5;" x1="444" x2="537" y1="117.4375" y2="117.4375"/></g><!--class Conversation--><g id="elem_Conversation"><rect codeLine="22" fill="#F1F1F1" height="100.8281" id="Conversation" rx="2.5" ry="2.5" style="stroke:#181818;stroke-width:0.5;" width="221" x="187" y="15.5"/><ellipse cx="251.25" cy="31.5" fill="#F1F1F1" rx="11" ry="11" style="stroke:#181818;stroke-width:1.0;"/><path d="M249.3594,36.0625 Q249.1406,36.3281 249,36.4063 Q248.8594,36.4844 248.6719,36.4844 Q248.2813,36.4844 248.0391,36.2188 Q247.7969,35.9531 247.7969,35.3594 L247.7969,34.2031 Q247.7969,33.5938 248.0391,33.3359 Q248.2813,33.0781 248.6719,33.0781 Q248.9688,33.0781 249.1719,33.2344 Q249.375,33.3906 249.4844,33.7578 Q249.5938,34.125 249.7031,34.2656 Q249.9531,34.5156 250.5625,34.7813 Q251.1719,35.0469 251.9063,35.0469 Q253.0469,35.0469 253.7656,34.5156 Q254.2344,34.1875 254.2344,33.7188 Q254.2344,33.4063 254.0156,33.125 Q253.7969,32.8438 253.2813,32.6719 Q252.9531,32.5469 251.7969,32.3281 Q250.4063,32.0625 249.6875,31.7031 Q248.9688,31.3438 248.5547,30.6797 Q248.1406,30.0156 248.1406,29.2344 Q248.1406,28.0156 249.1641,27.1016 Q250.1875,26.1875 251.8281,26.1875 Q252.4844,26.1875 253.0391,26.3281 Q253.5938,26.4688 254.0625,26.7656 Q254.3906,26.4531 254.7188,26.4531 Q255.0938,26.4531 255.3281,26.7109 Q255.5625,26.9688 255.5625,27.5781 L255.5625,28.8594 Q255.5625,29.4688 255.3281,29.7266 Q255.0938,29.9844 254.7188,29.9844 Q254.4063,29.9844 254.1719,29.7969 Q253.9844,29.6563 253.8984,29.2344 Q253.8125,28.8125 253.6719,28.625 Q253.4219,28.3125 252.9453,28.1016 Q252.4688,27.8906 251.8281,27.8906 Q250.9063,27.8906 250.375,28.3125 Q249.8438,28.7344 249.8438,29.2031 Q249.8438,29.5156 250.0625,29.8125 Q250.2813,30.1094 250.7031,30.2813 Q250.9844,30.3906 252.2891,30.6484 Q253.5938,30.9063 254.2969,31.2109 Q255,31.5156 255.4688,32.1719 Q255.9375,32.8281 255.9375,33.7344 Q255.9375,35 255.0469,35.75 Q253.8594,36.75 252.0313,36.75 Q251.3281,36.75 250.6641,36.5781 Q250,36.4063 249.3594,36.0625 Z " fill="#000000"/><text fill="#000000" font-family="sans-serif" font-size="14" lengthAdjust="spacing" textLength="84" x="271.75" y="37.2285">Conversation</text><line style="stroke:#181818;stroke-width:0.5;" x1="188" x2="407" y1="47.5" y2="47.5"/><text fill="#000000" font-family="sans-serif" font-size="14" lengthAdjust="spacing" textLength="83" x="193" y="66.0332">User : UserID</text><text fill="#000000" font-family="sans-serif" font-size="14" lengthAdjust="spacing" textLength="90" x="193" y="83.6426">Other : UserID</text><text fill="#000000" font-family="sans-serif" font-size="14" lengthAdjust="spacing" textLength="209" x="193" y="101.252">MessageBodies : []MessageBody</text><line style="stroke:#181818;stroke-width:0.5;" x1="188" x2="407" y1="108.3281" y2="108.3281"/></g><!--link Conversation to MessageBody--><g id="link_Conversation_MessageBody"><path codeLine="28" d="M263.31,116.72 C250.74,135 236.49,155.72 223.82,174.14 " fill="none" id="Conversation-to-MessageBody" style="stroke:#181818;stroke-width:1.0;"/><polygon fill="none" points="216.37,184.98,223.0662,182.3041,223.1717,175.0938,216.4755,177.7697,216.37,184.98" style="stroke:#181818;stroke-width:1.0;"/><text fill="#000000" font-family="sans-serif" font-size="13" lengthAdjust="spacing" textLength="20" x="199.3297" y="174.2844">0..*</text></g><!--link Message to MessageBody--><g id="link_Message_MessageBody"><path codeLine="29" d="M119.47,125.12 C130.42,141.04 142.22,158.2 152.91,173.74 " fill="none" id="Message-to-MessageBody" style="stroke:#181818;stroke-width:1.0;"/><polygon fill="none" points="160.47,184.73,160.3645,177.5197,153.6683,174.8438,153.7738,182.0541,160.47,184.73" style="stroke:#181818;stroke-width:1.0;"/><text fill="#000000" font-family="sans-serif" font-size="13" lengthAdjust="spacing" textLength="7" x="148.2478" y="173.993">1</text></g><!--SRC=[NP0xZy8m48Jx_8eL3IyHGPloI9E2XmHKw7Jo9Nkv5M0ZUuCK8VuxjXEKEAvslx5cF1u3qmrX3aPLEiSVAc3ofpHIAQUM5cYOf61ICfHoLLqB-4KGSDTq4xg62zQHOLtb31iqHfJuZC2UB8NaGxBKeuCFi_XaKBSixQ92uKiLTUVWjkWL3P8SRTAEhaxYMyLkzd2j9AFapgK5FICNs7jlBtyhlAEzHx9iRkpjBf7ZRE_tkzAS00L-Dk61slW-ZQ-p39rt_3z4NHz2OwNpzw1ttnSM2mMZPHpFHi7tj7CZhqBj3G00]--></g></svg>