<?xml version="1.0" encoding="UTF-8" standalone="no"?><svg xmlns="http://www.w3.org/2000/svg" xmlns:xlink="http://www.w3.org/1999/xlink" contentStyleType="text/css" height="328px" preserveAspectRatio="none" style="width:365px;height:328px;background:#FFFFFF;" version="1.1" viewBox="0 0 365 328" width="365px" zoomAndPan="magnify"><defs/><g><!--class Message--><g id="elem_Message"><rect codeLine="3" fill="#F1F1F1" height="136.0469" id="Message" rx="2.5" ry="2.5" style="stroke:#181818;stroke-width:0.5;" width="181" x="27" y="185"/><ellipse cx="84.75" cy="201" fill="#F1F1F1" rx="11" ry="11" style="stroke:#181818;stroke-width:1.0;"/><path d="M82.8594,205.5625 Q82.6406,205.8281 82.5,205.9063 Q82.3594,205.9844 82.1719,205.9844 Q81.7813,205.9844 81.5391,205.7188 Q81.2969,205.4531 81.2969,204.8594 L81.2969,203.7031 Q81.2969,203.0938 81.5391,202.8359 Q81.7813,202.5781 82.1719,202.5781 Q82.4688,202.5781 82.6719,202.7344 Q82.875,202.8906 82.9844,203.2578 Q83.0938,203.625 83.2031,203.7656 Q83.4531,204.0156 84.0625,204.2813 Q84.6719,204.5469 85.4063,204.5469 Q86.5469,204.5469 87.2656,204.0156 Q87.7344,203.6875 87.7344,203.2188 Q87.7344,202.9063 87.5156,202.625 Q87.2969,202.3438 86.7813,202.1719 Q86.4531,202.0469 85.2969,201.8281 Q83.9063,201.5625 83.1875,201.2031 Q82.4688,200.8438 82.0547,200.1797 Q81.6406,199.5156 81.6406,198.7344 Q81.6406,197.5156 82.6641,196.6016 Q83.6875,195.6875 85.3281,195.6875 Q85.9844,195.6875 86.5391,195.8281 Q87.0938,195.9688 87.5625,196.2656 Q87.8906,195.9531 88.2188,195.9531 Q88.5938,195.9531 88.8281,196.2109 Q89.0625,196.4688 89.0625,197.0781 L89.0625,198.3594 Q89.0625,198.9688 88.8281,199.2266 Q88.5938,199.4844 88.2188,199.4844 Q87.9063,199.4844 87.6719,199.2969 Q87.4844,199.1563 87.3984,198.7344 Q87.3125,198.3125 87.1719,198.125 Q86.9219,197.8125 86.4453,197.6016 Q85.9688,197.3906 85.3281,197.3906 Q84.4063,197.3906 83.875,197.8125 Q83.3438,198.2344 83.3438,198.7031 Q83.3438,199.0156 83.5625,199.3125 Q83.7813,199.6094 84.2031,199.7813 Q84.4844,199.8906 85.7891,200.1484 Q87.0938,200.4063 87.7969,200.7109 Q88.5,201.0156 88.9688,201.6719 Q89.4375,202.3281 89.4375,203.2344 Q89.4375,204.5 88.5469,205.25 Q87.3594,206.25 85.5313,206.25 Q84.8281,206.25 84.1641,206.0781 Q83.5,205.9063 82.8594,205.5625 Z " fill="#000000"/><text fill="#000000" font-family="sans-serif" font-size="14" lengthAdjust="spacing" textLength="57" x="105.25" y="206.7285">Message</text><line style="stroke:#181818;stroke-width:0.5;" x1="28" x2="207" y1="217" y2="217"/><text fill="#000000" font-family="sans-serif" font-size="14" lengthAdjust="spacing" textLength="95" x="33" y="235.5332">ID : MessageID</text><text fill="#000000" font-family="sans-serif" font-size="14" lengthAdjust="spacing" textLength="99" x="33" y="253.1426">Source : UserID</text><text fill="#000000" font-family="sans-serif" font-size="14" lengthAdjust="spacing" textLength="125" x="33" y="270.752">Destination : UserID</text><text fill="#000000" font-family="sans-serif" font-size="14" lengthAdjust="spacing" textLength="104" x="33" y="288.3613">Time : time.Time</text><text fill="#000000" font-family="sans-serif" font-size="14" lengthAdjust="spacing" textLength="169" x="33" y="305.9707">Content : MessageContent</text><line style="stroke:#181818;stroke-width:0.5;" x1="28" x2="207" y1="313.0469" y2="313.0469"/></g><!--class User--><g id="elem_User"><rect codeLine="11" fill="#F1F1F1" height="118.4375" id="User" rx="2.5" ry="2.5" style="stroke:#181818;stroke-width:0.5;" width="95" x="263" y="7"/><ellipse cx="293.3" cy="23" fill="#F1F1F1" rx="11" ry="11" style="stroke:#181818;stroke-width:1.0;"/><path d="M291.4094,27.5625 Q291.1906,27.8281 291.05,27.9063 Q290.9094,27.9844 290.7219,27.9844 Q290.3313,27.9844 290.0891,27.7188 Q289.8469,27.4531 289.8469,26.8594 L289.8469,25.7031 Q289.8469,25.0938 290.0891,24.8359 Q290.3313,24.5781 290.7219,24.5781 Q291.0188,24.5781 291.2219,24.7344 Q291.425,24.8906 291.5344,25.2578 Q291.6438,25.625 291.7531,25.7656 Q292.0031,26.0156 292.6125,26.2813 Q293.2219,26.5469 293.9563,26.5469 Q295.0969,26.5469 295.8156,26.0156 Q296.2844,25.6875 296.2844,25.2188 Q296.2844,24.9063 296.0656,24.625 Q295.8469,24.3438 295.3313,24.1719 Q295.0031,24.0469 293.8469,23.8281 Q292.4563,23.5625 291.7375,23.2031 Q291.0188,22.8438 290.6047,22.1797 Q290.1906,21.5156 290.1906,20.7344 Q290.1906,19.5156 291.2141,18.6016 Q292.2375,17.6875 293.8781,17.6875 Q294.5344,17.6875 295.0891,17.8281 Q295.6438,17.9688 296.1125,18.2656 Q296.4406,17.9531 296.7688,17.9531 Q297.1438,17.9531 297.3781,18.2109 Q297.6125,18.4688 297.6125,19.0781 L297.6125,20.3594 Q297.6125,20.9688 297.3781,21.2266 Q297.1438,21.4844 296.7688,21.4844 Q296.4563,21.4844 296.2219,21.2969 Q296.0344,21.1563 295.9484,20.7344 Q295.8625,20.3125 295.7219,20.125 Q295.4719,19.8125 294.9953,19.6016 Q294.5188,19.3906 293.8781,19.3906 Q292.9563,19.3906 292.425,19.8125 Q291.8938,20.2344 291.8938,20.7031 Q291.8938,21.0156 292.1125,21.3125 Q292.3313,21.6094 292.7531,21.7813 Q293.0344,21.8906 294.3391,22.1484 Q295.6438,22.4063 296.3469,22.7109 Q297.05,23.0156 297.5188,23.6719 Q297.9875,24.3281 297.9875,25.2344 Q297.9875,26.5 297.0969,27.25 Q295.9094,28.25 294.0813,28.25 Q293.3781,28.25 292.7141,28.0781 Q292.05,27.9063 291.4094,27.5625 Z " fill="#000000"/><text fill="#000000" font-family="sans-serif" font-size="14" lengthAdjust="spacing" textLength="29" x="310.7" y="28.7285">User</text><line style="stroke:#181818;stroke-width:0.5;" x1="264" x2="357" y1="39" y2="39"/><text fill="#000000" font-family="sans-serif" font-size="14" lengthAdjust="spacing" textLength="67" x="269" y="57.5332">ID : UserID</text><text fill="#000000" font-family="sans-serif" font-size="14" lengthAdjust="spacing" textLength="83" x="269" y="75.1426">Name : string</text><text fill="#000000" font-family="sans-serif" font-size="14" lengthAdjust="spacing" textLength="60" x="269" y="92.752">IP : net.IP</text><text fill="#000000" font-family="sans-serif" font-size="14" lengthAdjust="spacing" textLength="48" x="269" y="110.3613">port: int</text><line style="stroke:#181818;stroke-width:0.5;" x1="264" x2="357" y1="117.4375" y2="117.4375"/></g><!--class Conversation--><g id="elem_Conversation"><rect codeLine="18" fill="#F1F1F1" height="65.6094" id="Conversation" rx="2.5" ry="2.5" style="stroke:#181818;stroke-width:0.5;" width="221" x="7" y="33"/><ellipse cx="71.25" cy="49" fill="#F1F1F1" rx="11" ry="11" style="stroke:#181818;stroke-width:1.0;"/><path d="M69.3594,53.5625 Q69.1406,53.8281 69,53.9063 Q68.8594,53.9844 68.6719,53.9844 Q68.2813,53.9844 68.0391,53.7188 Q67.7969,53.4531 67.7969,52.8594 L67.7969,51.7031 Q67.7969,51.0938 68.0391,50.8359 Q68.2813,50.5781 68.6719,50.5781 Q68.9688,50.5781 69.1719,50.7344 Q69.375,50.8906 69.4844,51.2578 Q69.5938,51.625 69.7031,51.7656 Q69.9531,52.0156 70.5625,52.2813 Q71.1719,52.5469 71.9063,52.5469 Q73.0469,52.5469 73.7656,52.0156 Q74.2344,51.6875 74.2344,51.2188 Q74.2344,50.9063 74.0156,50.625 Q73.7969,50.3438 73.2813,50.1719 Q72.9531,50.0469 71.7969,49.8281 Q70.4063,49.5625 69.6875,49.2031 Q68.9688,48.8438 68.5547,48.1797 Q68.1406,47.5156 68.1406,46.7344 Q68.1406,45.5156 69.1641,44.6016 Q70.1875,43.6875 71.8281,43.6875 Q72.4844,43.6875 73.0391,43.8281 Q73.5938,43.9688 74.0625,44.2656 Q74.3906,43.9531 74.7188,43.9531 Q75.0938,43.9531 75.3281,44.2109 Q75.5625,44.4688 75.5625,45.0781 L75.5625,46.3594 Q75.5625,46.9688 75.3281,47.2266 Q75.0938,47.4844 74.7188,47.4844 Q74.4063,47.4844 74.1719,47.2969 Q73.9844,47.1563 73.8984,46.7344 Q73.8125,46.3125 73.6719,46.125 Q73.4219,45.8125 72.9453,45.6016 Q72.4688,45.3906 71.8281,45.3906 Q70.9063,45.3906 70.375,45.8125 Q69.8438,46.2344 69.8438,46.7031 Q69.8438,47.0156 70.0625,47.3125 Q70.2813,47.6094 70.7031,47.7813 Q70.9844,47.8906 72.2891,48.1484 Q73.5938,48.4063 74.2969,48.7109 Q75,49.0156 75.4688,49.6719 Q75.9375,50.3281 75.9375,51.2344 Q75.9375,52.5 75.0469,53.25 Q73.8594,54.25 72.0313,54.25 Q71.3281,54.25 70.6641,54.0781 Q70,53.9063 69.3594,53.5625 Z " fill="#000000"/><text fill="#000000" font-family="sans-serif" font-size="14" lengthAdjust="spacing" textLength="84" x="91.75" y="54.7285">Conversation</text><line style="stroke:#181818;stroke-width:0.5;" x1="8" x2="227" y1="65" y2="65"/><text fill="#000000" font-family="sans-serif" font-size="14" lengthAdjust="spacing" textLength="209" x="13" y="83.5332">MessageBodies : []MessageBody</text><line style="stroke:#181818;stroke-width:0.5;" x1="8" x2="227" y1="90.6094" y2="90.6094"/></g><!--link Conversation to Message--><g id="link_Conversation_Message"><path codeLine="22" d="M117.5,99.22 C117.5,119.32 117.5,146.15 117.5,171.71 " fill="none" id="Conversation-to-Message" style="stroke:#181818;stroke-width:1.0;"/><polygon fill="none" points="117.5,184.92,121.5,178.92,117.5,172.92,113.5,178.92,117.5,184.92" style="stroke:#181818;stroke-width:1.0;"/><text fill="#000000" font-family="sans-serif" font-size="13" lengthAdjust="spacing" textLength="20" x="96.4063" y="174.1105">0..*</text></g><!--SRC=[LOuz3u8m48PtViM5nQz0d1cLXK53eax6c0edkIWjQGyJOlplbW81ElMUk_TZ0KmbmWQCgdM6TyfX-LGQgP0hItCqJ58mAJbVPQf-v_10451fAeLku8MDPrZN6SC1ZH45VZsmBuaX6aWIEtHoOHPV3EgUnMFKV75k2qQkPzZ-7TmhoIXvTEw1z_E64gt5fC74yIYSexqZMNGNgPqbSfYaRgwKvWXevcSJFgYDQzZvzj4xbHCQQt2zZQHfbLC91842Vnk6QtyG_W40]--></g></svg>