<?xml version="1.0" encoding="UTF-8" standalone="no"?><svg xmlns="http://www.w3.org/2000/svg" xmlns:xlink="http://www.w3.org/1999/xlink" contentStyleType="text/css" height="328px" preserveAspectRatio="none" style="width:694px;height:328px;background:#FFFFFF;" version="1.1" viewBox="0 0 694 328" width="694px" zoomAndPan="magnify"><defs/><g><!--class messages--><g id="elem_messages"><rect codeLine="2" fill="#F1F1F1" height="136.0469" id="messages" rx="2.5" ry="2.5" style="stroke:#181818;stroke-width:0.5;" width="131" x="173" y="7"/><ellipse cx="203.75" cy="23" fill="#ADD1B2" rx="11" ry="11" style="stroke:#181818;stroke-width:1.0;"/><path d="M202.6094,23.7969 L202.6094,26.2969 L206.9375,26.2969 L206.9375,25.375 Q206.9375,24.7656 207.1797,24.5 Q207.4219,24.2344 207.7969,24.2344 Q208.1719,24.2344 208.4063,24.5 Q208.6406,24.7656 208.6406,25.375 L208.6406,28 L200.6406,28 Q200.0156,28 199.7578,27.7656 Q199.5,27.5313 199.5,27.1406 Q199.5,26.7656 199.7656,26.5313 Q200.0313,26.2969 200.6406,26.2969 L200.9063,26.2969 L200.9063,19.6406 L200.6406,19.6406 Q200.0156,19.6406 199.7578,19.4063 Q199.5,19.1719 199.5,18.7813 Q199.5,18.4063 199.7578,18.1719 Q200.0156,17.9375 200.6406,17.9375 L208.2656,17.9375 L208.2656,20.5313 Q208.2656,21.1406 208.0391,21.3984 Q207.8125,21.6563 207.4219,21.6563 Q207.0469,21.6563 206.8125,21.3984 Q206.5781,21.1406 206.5781,20.5313 L206.5781,19.6406 L202.6094,19.6406 L202.6094,22.0938 L204.0938,22.0938 Q204.0938,21.4375 204.2188,21.25 Q204.4844,20.8438 204.9531,20.8438 Q205.3281,20.8438 205.5625,21.1016 Q205.7969,21.3594 205.7969,21.9688 L205.7969,23.9375 Q205.7969,24.4844 205.6719,24.6719 Q205.4063,25.0625 204.9531,25.0625 Q204.4844,25.0625 204.2188,24.6563 Q204.0938,24.4688 204.0938,23.7969 L202.6094,23.7969 Z " fill="#000000"/><text fill="#000000" font-family="sans-serif" font-size="14" lengthAdjust="spacing" textLength="64" x="221.25" y="28.7285">messages</text><line style="stroke:#181818;stroke-width:0.5;" x1="174" x2="303" y1="39" y2="39"/><text fill="#000000" font-family="sans-serif" font-size="14" lengthAdjust="spacing" textLength="119" x="179" y="57.5332">message_id : int64</text><line style="stroke:#181818;stroke-width:0.5;" x1="174" x2="303" y1="64.6094" y2="64.6094"/><text fill="#000000" font-family="sans-serif" font-size="14" lengthAdjust="spacing" textLength="69" x="179" y="83.1426">time : Time</text><text fill="#000000" font-family="sans-serif" font-size="14" lengthAdjust="spacing" textLength="99" x="179" y="100.752">sourceID : int64</text><text fill="#000000" font-family="sans-serif" font-size="14" lengthAdjust="spacing" textLength="93" x="179" y="118.3613">groupID : int64</text><text fill="#000000" font-family="sans-serif" font-size="14" lengthAdjust="spacing" textLength="94" x="179" y="135.9707">content : string</text></g><!--class contacts--><g id="elem_contacts"><rect codeLine="11" fill="#F1F1F1" height="83.2188" id="contacts" rx="2.5" ry="2.5" style="stroke:#181818;stroke-width:0.5;" width="104" x="339.5" y="33.5"/><ellipse cx="363.05" cy="49.5" fill="#ADD1B2" rx="11" ry="11" style="stroke:#181818;stroke-width:1.0;"/><path d="M361.9094,50.2969 L361.9094,52.7969 L366.2375,52.7969 L366.2375,51.875 Q366.2375,51.2656 366.4797,51 Q366.7219,50.7344 367.0969,50.7344 Q367.4719,50.7344 367.7063,51 Q367.9406,51.2656 367.9406,51.875 L367.9406,54.5 L359.9406,54.5 Q359.3156,54.5 359.0578,54.2656 Q358.8,54.0313 358.8,53.6406 Q358.8,53.2656 359.0656,53.0313 Q359.3313,52.7969 359.9406,52.7969 L360.2063,52.7969 L360.2063,46.1406 L359.9406,46.1406 Q359.3156,46.1406 359.0578,45.9063 Q358.8,45.6719 358.8,45.2813 Q358.8,44.9063 359.0578,44.6719 Q359.3156,44.4375 359.9406,44.4375 L367.5656,44.4375 L367.5656,47.0313 Q367.5656,47.6406 367.3391,47.8984 Q367.1125,48.1563 366.7219,48.1563 Q366.3469,48.1563 366.1125,47.8984 Q365.8781,47.6406 365.8781,47.0313 L365.8781,46.1406 L361.9094,46.1406 L361.9094,48.5938 L363.3938,48.5938 Q363.3938,47.9375 363.5188,47.75 Q363.7844,47.3438 364.2531,47.3438 Q364.6281,47.3438 364.8625,47.6016 Q365.0969,47.8594 365.0969,48.4688 L365.0969,50.4375 Q365.0969,50.9844 364.9719,51.1719 Q364.7063,51.5625 364.2531,51.5625 Q363.7844,51.5625 363.5188,51.1563 Q363.3938,50.9688 363.3938,50.2969 L361.9094,50.2969 Z " fill="#000000"/><text fill="#000000" font-family="sans-serif" font-size="14" lengthAdjust="spacing" textLength="53" x="378.95" y="55.2285">contacts</text><line style="stroke:#181818;stroke-width:0.5;" x1="340.5" x2="442.5" y1="65.5" y2="65.5"/><text fill="#000000" font-family="sans-serif" font-size="14" lengthAdjust="spacing" textLength="92" x="345.5" y="84.0332">userID1 : int64</text><text fill="#000000" font-family="sans-serif" font-size="14" lengthAdjust="spacing" textLength="92" x="345.5" y="101.6426">userID2 : int64</text><line style="stroke:#181818;stroke-width:0.5;" x1="340.5" x2="442.5" y1="108.7188" y2="108.7188"/></g><!--class blocked--><g id="elem_blocked"><rect codeLine="16" fill="#F1F1F1" height="83.2188" id="blocked" rx="2.5" ry="2.5" style="stroke:#181818;stroke-width:0.5;" width="104" x="478.5" y="33.5"/><ellipse cx="503.85" cy="49.5" fill="#ADD1B2" rx="11" ry="11" style="stroke:#181818;stroke-width:1.0;"/><path d="M502.7094,50.2969 L502.7094,52.7969 L507.0375,52.7969 L507.0375,51.875 Q507.0375,51.2656 507.2797,51 Q507.5219,50.7344 507.8969,50.7344 Q508.2719,50.7344 508.5063,51 Q508.7406,51.2656 508.7406,51.875 L508.7406,54.5 L500.7406,54.5 Q500.1156,54.5 499.8578,54.2656 Q499.6,54.0313 499.6,53.6406 Q499.6,53.2656 499.8656,53.0313 Q500.1313,52.7969 500.7406,52.7969 L501.0063,52.7969 L501.0063,46.1406 L500.7406,46.1406 Q500.1156,46.1406 499.8578,45.9063 Q499.6,45.6719 499.6,45.2813 Q499.6,44.9063 499.8578,44.6719 Q500.1156,44.4375 500.7406,44.4375 L508.3656,44.4375 L508.3656,47.0313 Q508.3656,47.6406 508.1391,47.8984 Q507.9125,48.1563 507.5219,48.1563 Q507.1469,48.1563 506.9125,47.8984 Q506.6781,47.6406 506.6781,47.0313 L506.6781,46.1406 L502.7094,46.1406 L502.7094,48.5938 L504.1938,48.5938 Q504.1938,47.9375 504.3188,47.75 Q504.5844,47.3438 505.0531,47.3438 Q505.4281,47.3438 505.6625,47.6016 Q505.8969,47.8594 505.8969,48.4688 L505.8969,50.4375 Q505.8969,50.9844 505.7719,51.1719 Q505.5063,51.5625 505.0531,51.5625 Q504.5844,51.5625 504.3188,51.1563 Q504.1938,50.9688 504.1938,50.2969 L502.7094,50.2969 Z " fill="#000000"/><text fill="#000000" font-family="sans-serif" font-size="14" lengthAdjust="spacing" textLength="49" x="520.15" y="55.2285">blocked</text><line style="stroke:#181818;stroke-width:0.5;" x1="479.5" x2="581.5" y1="65.5" y2="65.5"/><text fill="#000000" font-family="sans-serif" font-size="14" lengthAdjust="spacing" textLength="92" x="484.5" y="84.0332">userID1 : int64</text><text fill="#000000" font-family="sans-serif" font-size="14" lengthAdjust="spacing" textLength="92" x="484.5" y="101.6426">userID2 : int64</text><line style="stroke:#181818;stroke-width:0.5;" x1="479.5" x2="581.5" y1="108.7188" y2="108.7188"/></g><!--class usersToGroups--><g id="elem_usersToGroups"><rect codeLine="21" fill="#F1F1F1" height="83.2188" id="usersToGroups" rx="2.5" ry="2.5" style="stroke:#181818;stroke-width:0.5;" width="131" x="7" y="33.5"/><ellipse cx="22" cy="49.5" fill="#ADD1B2" rx="11" ry="11" style="stroke:#181818;stroke-width:1.0;"/><path d="M20.8594,50.2969 L20.8594,52.7969 L25.1875,52.7969 L25.1875,51.875 Q25.1875,51.2656 25.4297,51 Q25.6719,50.7344 26.0469,50.7344 Q26.4219,50.7344 26.6563,51 Q26.8906,51.2656 26.8906,51.875 L26.8906,54.5 L18.8906,54.5 Q18.2656,54.5 18.0078,54.2656 Q17.75,54.0313 17.75,53.6406 Q17.75,53.2656 18.0156,53.0313 Q18.2813,52.7969 18.8906,52.7969 L19.1563,52.7969 L19.1563,46.1406 L18.8906,46.1406 Q18.2656,46.1406 18.0078,45.9063 Q17.75,45.6719 17.75,45.2813 Q17.75,44.9063 18.0078,44.6719 Q18.2656,44.4375 18.8906,44.4375 L26.5156,44.4375 L26.5156,47.0313 Q26.5156,47.6406 26.2891,47.8984 Q26.0625,48.1563 25.6719,48.1563 Q25.2969,48.1563 25.0625,47.8984 Q24.8281,47.6406 24.8281,47.0313 L24.8281,46.1406 L20.8594,46.1406 L20.8594,48.5938 L22.3438,48.5938 Q22.3438,47.9375 22.4688,47.75 Q22.7344,47.3438 23.2031,47.3438 Q23.5781,47.3438 23.8125,47.6016 Q24.0469,47.8594 24.0469,48.4688 L24.0469,50.4375 Q24.0469,50.9844 23.9219,51.1719 Q23.6563,51.5625 23.2031,51.5625 Q22.7344,51.5625 22.4688,51.1563 Q22.3438,50.9688 22.3438,50.2969 L20.8594,50.2969 Z " fill="#000000"/><text fill="#000000" font-family="sans-serif" font-size="14" lengthAdjust="spacing" textLength="99" x="36" y="55.2285">usersToGroups</text><line style="stroke:#181818;stroke-width:0.5;" x1="8" x2="137" y1="65.5" y2="65.5"/><text fill="#000000" font-family="sans-serif" font-size="14" lengthAdjust="spacing" textLength="93" x="13" y="84.0332">groupID : int64</text><text fill="#000000" font-family="sans-serif" font-size="14" lengthAdjust="spacing" textLength="84" x="13" y="101.6426">userID : int64</text><line style="stroke:#181818;stroke-width:0.5;" x1="8" x2="137" y1="108.7188" y2="108.7188"/></g><!--class groups--><g id="elem_groups"><rect codeLine="26" fill="#F1F1F1" height="83.2188" id="groups" rx="2.5" ry="2.5" style="stroke:#181818;stroke-width:0.5;" width="105" x="103" y="220.5"/><ellipse cx="131.05" cy="236.5" fill="#ADD1B2" rx="11" ry="11" style="stroke:#181818;stroke-width:1.0;"/><path d="M129.9094,237.2969 L129.9094,239.7969 L134.2375,239.7969 L134.2375,238.875 Q134.2375,238.2656 134.4797,238 Q134.7219,237.7344 135.0969,237.7344 Q135.4719,237.7344 135.7063,238 Q135.9406,238.2656 135.9406,238.875 L135.9406,241.5 L127.9406,241.5 Q127.3156,241.5 127.0578,241.2656 Q126.8,241.0313 126.8,240.6406 Q126.8,240.2656 127.0656,240.0313 Q127.3313,239.7969 127.9406,239.7969 L128.2063,239.7969 L128.2063,233.1406 L127.9406,233.1406 Q127.3156,233.1406 127.0578,232.9063 Q126.8,232.6719 126.8,232.2813 Q126.8,231.9063 127.0578,231.6719 Q127.3156,231.4375 127.9406,231.4375 L135.5656,231.4375 L135.5656,234.0313 Q135.5656,234.6406 135.3391,234.8984 Q135.1125,235.1563 134.7219,235.1563 Q134.3469,235.1563 134.1125,234.8984 Q133.8781,234.6406 133.8781,234.0313 L133.8781,233.1406 L129.9094,233.1406 L129.9094,235.5938 L131.3938,235.5938 Q131.3938,234.9375 131.5188,234.75 Q131.7844,234.3438 132.2531,234.3438 Q132.6281,234.3438 132.8625,234.6016 Q133.0969,234.8594 133.0969,235.4688 L133.0969,237.4375 Q133.0969,237.9844 132.9719,238.1719 Q132.7063,238.5625 132.2531,238.5625 Q131.7844,238.5625 131.5188,238.1563 Q131.3938,237.9688 131.3938,237.2969 L129.9094,237.2969 Z " fill="#000000"/><text fill="#000000" font-family="sans-serif" font-size="14" lengthAdjust="spacing" textLength="44" x="147.95" y="242.2285">groups</text><line style="stroke:#181818;stroke-width:0.5;" x1="104" x2="207" y1="252.5" y2="252.5"/><text fill="#000000" font-family="sans-serif" font-size="14" lengthAdjust="spacing" textLength="93" x="109" y="271.0332">groupID : int64</text><line style="stroke:#181818;stroke-width:0.5;" x1="104" x2="207" y1="278.1094" y2="278.1094"/><text fill="#000000" font-family="sans-serif" font-size="14" lengthAdjust="spacing" textLength="82" x="109" y="296.6426">name : string</text></g><!--class users--><g id="elem_users"><rect codeLine="32" fill="#F1F1F1" height="118.4375" id="users" rx="2.5" ry="2.5" style="stroke:#181818;stroke-width:0.5;" width="119" x="332" y="203"/><ellipse cx="370.4" cy="219" fill="#ADD1B2" rx="11" ry="11" style="stroke:#181818;stroke-width:1.0;"/><path d="M369.2594,219.7969 L369.2594,222.2969 L373.5875,222.2969 L373.5875,221.375 Q373.5875,220.7656 373.8297,220.5 Q374.0719,220.2344 374.4469,220.2344 Q374.8219,220.2344 375.0563,220.5 Q375.2906,220.7656 375.2906,221.375 L375.2906,224 L367.2906,224 Q366.6656,224 366.4078,223.7656 Q366.15,223.5313 366.15,223.1406 Q366.15,222.7656 366.4156,222.5313 Q366.6813,222.2969 367.2906,222.2969 L367.5563,222.2969 L367.5563,215.6406 L367.2906,215.6406 Q366.6656,215.6406 366.4078,215.4063 Q366.15,215.1719 366.15,214.7813 Q366.15,214.4063 366.4078,214.1719 Q366.6656,213.9375 367.2906,213.9375 L374.9156,213.9375 L374.9156,216.5313 Q374.9156,217.1406 374.6891,217.3984 Q374.4625,217.6563 374.0719,217.6563 Q373.6969,217.6563 373.4625,217.3984 Q373.2281,217.1406 373.2281,216.5313 L373.2281,215.6406 L369.2594,215.6406 L369.2594,218.0938 L370.7438,218.0938 Q370.7438,217.4375 370.8688,217.25 Q371.1344,216.8438 371.6031,216.8438 Q371.9781,216.8438 372.2125,217.1016 Q372.4469,217.3594 372.4469,217.9688 L372.4469,219.9375 Q372.4469,220.4844 372.3219,220.6719 Q372.0563,221.0625 371.6031,221.0625 Q371.1344,221.0625 370.8688,220.6563 Q370.7438,220.4688 370.7438,219.7969 L369.2594,219.7969 Z " fill="#000000"/><text fill="#000000" font-family="sans-serif" font-size="14" lengthAdjust="spacing" textLength="35" x="389.6" y="224.7285">users</text><line style="stroke:#181818;stroke-width:0.5;" x1="333" x2="450" y1="235" y2="235"/><text fill="#000000" font-family="sans-serif" font-size="14" lengthAdjust="spacing" textLength="84" x="338" y="253.5332">userID : int64</text><line style="stroke:#181818;stroke-width:0.5;" x1="333" x2="450" y1="260.6094" y2="260.6094"/><text fill="#000000" font-family="sans-serif" font-size="14" lengthAdjust="spacing" textLength="82" x="338" y="279.1426">name : string</text><text fill="#000000" font-family="sans-serif" font-size="14" lengthAdjust="spacing" textLength="107" x="338" y="296.752">password : string</text><text fill="#000000" font-family="sans-serif" font-size="14" lengthAdjust="spacing" textLength="88" x="338" y="314.3613">status : status</text></g><!--class status--><g id="elem_status"><rect codeLine="40" fill="#F1F1F1" height="118.4375" id="status" rx="2.5" ry="2.5" style="stroke:#181818;stroke-width:0.5;" width="70" x="617.5" y="16"/><ellipse cx="632.5" cy="32" fill="#EB937F" rx="11" ry="11" style="stroke:#181818;stroke-width:1.0;"/><path d="M631.3594,32.7969 L631.3594,35.2969 L635.6875,35.2969 L635.6875,34.375 Q635.6875,33.7656 635.9297,33.5 Q636.1719,33.2344 636.5469,33.2344 Q636.9219,33.2344 637.1563,33.5 Q637.3906,33.7656 637.3906,34.375 L637.3906,37 L629.3906,37 Q628.7656,37 628.5078,36.7656 Q628.25,36.5313 628.25,36.1406 Q628.25,35.7656 628.5156,35.5313 Q628.7813,35.2969 629.3906,35.2969 L629.6563,35.2969 L629.6563,28.6406 L629.3906,28.6406 Q628.7656,28.6406 628.5078,28.4063 Q628.25,28.1719 628.25,27.7813 Q628.25,27.4063 628.5078,27.1719 Q628.7656,26.9375 629.3906,26.9375 L637.0156,26.9375 L637.0156,29.5313 Q637.0156,30.1406 636.7891,30.3984 Q636.5625,30.6563 636.1719,30.6563 Q635.7969,30.6563 635.5625,30.3984 Q635.3281,30.1406 635.3281,29.5313 L635.3281,28.6406 L631.3594,28.6406 L631.3594,31.0938 L632.8438,31.0938 Q632.8438,30.4375 632.9688,30.25 Q633.2344,29.8438 633.7031,29.8438 Q634.0781,29.8438 634.3125,30.1016 Q634.5469,30.3594 634.5469,30.9688 L634.5469,32.9375 Q634.5469,33.4844 634.4219,33.6719 Q634.1563,34.0625 633.7031,34.0625 Q633.2344,34.0625 632.9688,33.6563 Q632.8438,33.4688 632.8438,32.7969 L631.3594,32.7969 Z " fill="#000000"/><text fill="#000000" font-family="sans-serif" font-size="14" lengthAdjust="spacing" textLength="38" x="646.5" y="37.7285">status</text><line style="stroke:#181818;stroke-width:0.5;" x1="618.5" x2="686.5" y1="48" y2="48"/><text fill="#000000" font-family="sans-serif" font-size="14" lengthAdjust="spacing" textLength="48" x="623.5" y="66.5332">"online"</text><text fill="#000000" font-family="sans-serif" font-size="14" lengthAdjust="spacing" textLength="48" x="623.5" y="84.1426">"offline"</text><text fill="#000000" font-family="sans-serif" font-size="14" lengthAdjust="spacing" textLength="40" x="623.5" y="101.752">"busy"</text><text fill="#000000" font-family="sans-serif" font-size="14" lengthAdjust="spacing" textLength="42" x="623.5" y="119.3613">"away"</text><line style="stroke:#181818;stroke-width:0.5;" x1="618.5" x2="686.5" y1="126.4375" y2="126.4375"/></g><!--link messages to users--><g id="link_messages_users"><path codeLine="48" d="M293.95,143.05 C310.12,162.59 327.64,183.78 343.31,202.74 " fill="none" id="messages-users" style="stroke:#181818;stroke-width:1.0;"/><text fill="#000000" font-family="sans-serif" font-size="13" lengthAdjust="spacing" textLength="20" x="278.637" y="164.4035">0..*</text><text fill="#000000" font-family="sans-serif" font-size="13" lengthAdjust="spacing" textLength="7" x="330.0103" y="192.0326">1</text></g><!--link messages to groups--><g id="link_messages_groups"><path codeLine="49" d="M208.42,143.05 C196.82,168.9 183.93,197.63 173.78,220.26 " fill="none" id="messages-groups" style="stroke:#181818;stroke-width:1.0;"/><text fill="#000000" font-family="sans-serif" font-size="13" lengthAdjust="spacing" textLength="20" x="184.2867" y="164.4035">0..*</text><text fill="#000000" font-family="sans-serif" font-size="13" lengthAdjust="spacing" textLength="7" x="169.2279" y="209.5279">1</text></g><!--reverse link contacts to users--><g id="link_contacts_users"><path codeLine="51" d="M391.5,129.62 C391.5,152.6 391.5,179.5 391.5,202.95 " fill="none" id="contacts-backto-users" style="stroke:#181818;stroke-width:1.0;"/><polygon fill="#181818" points="391.5,116.6,387.5,122.6,391.5,128.6,395.5,122.6,391.5,116.6" style="stroke:#181818;stroke-width:1.0;"/><text fill="#000000" font-family="sans-serif" font-size="13" lengthAdjust="spacing" textLength="20" x="369.8438" y="138.3211">0..*</text><text fill="#000000" font-family="sans-serif" font-size="13" lengthAdjust="spacing" textLength="7" x="384.0734" y="192.2682">2</text></g><!--reverse link blocked to users--><g id="link_blocked_users"><path codeLine="52" d="M492.13,127.06 C474.46,150.59 453.4,178.62 435.12,202.95 " fill="none" id="blocked-backto-users" style="stroke:#181818;stroke-width:1.0;"/><polygon fill="#181818" points="500,116.6,493.1963,118.9895,492.7852,126.1889,499.5889,123.7994,500,116.6" style="stroke:#181818;stroke-width:1.0;"/><text fill="#000000" font-family="sans-serif" font-size="13" lengthAdjust="spacing" textLength="20" x="473.2922" y="138.3211">0..*</text><text fill="#000000" font-family="sans-serif" font-size="13" lengthAdjust="spacing" textLength="7" x="433.0096" y="192.2682">2</text></g><!--link status to users--><g id="link_status_users"><path codeLine="53" d="M617.4,125.95 C612.1,132.04 606.41,137.9 600.5,143 C555.4,181.95 495.48,214.2 451.36,235.09 " fill="none" id="status-users" style="stroke:#181818;stroke-width:1.0;"/><text fill="#000000" font-family="sans-serif" font-size="13" lengthAdjust="spacing" textLength="7" x="602.4388" y="132.2947">1</text><text fill="#000000" font-family="sans-serif" font-size="13" lengthAdjust="spacing" textLength="20" x="459.0009" y="228.7621">0..*</text></g><!--reverse link usersToGroups to users--><g id="link_usersToGroups_users"><path codeLine="54" d="M129.88,124.92 C138.27,131.29 146.96,137.51 155.5,143 C212.72,179.79 282.97,213.6 331.87,235.51 " fill="none" id="usersToGroups-backto-users" style="stroke:#181818;stroke-width:1.0;"/><polygon fill="#181818" points="119.46,116.8,121.7371,123.6422,128.9287,124.1719,126.6516,117.3297,119.46,116.8" style="stroke:#181818;stroke-width:1.0;"/><text fill="#000000" font-family="sans-serif" font-size="13" lengthAdjust="spacing" textLength="20" x="105.3505" y="138.2426">1..*</text><text fill="#000000" font-family="sans-serif" font-size="13" lengthAdjust="spacing" textLength="7" x="317.176" y="228.7964">1</text></g><!--reverse link usersToGroups to groups--><g id="link_usersToGroups_groups"><path codeLine="55" d="M96.12,128.66 C109.21,157.82 125.23,193.53 137.33,220.5 " fill="none" id="usersToGroups-backto-groups" style="stroke:#181818;stroke-width:1.0;"/><polygon fill="#181818" points="90.71,116.6,89.5106,123.7107,95.613,127.5527,96.8124,120.442,90.71,116.6" style="stroke:#181818;stroke-width:1.0;"/><text fill="#000000" font-family="sans-serif" font-size="13" lengthAdjust="spacing" textLength="20" x="72.0698" y="138.3211">1..*</text><text fill="#000000" font-family="sans-serif" font-size="13" lengthAdjust="spacing" textLength="7" x="126.6055" y="209.4987">1</text></g><!--SRC=[dL9DQyCm3BtxLnWV2orB6JliN1YzznxSH0rcZLqicL9A__ly8Q_BbhAnN6ozfwSdIm5BXYvo14Gz05w5Z1z7hUdbgpIMNfuptBRv83D2n7Vno36wu3lORYQvWtVXz0thd2Mm534aR-mWRa90yK-KxeZz0uBVRfg9k63hJ-oktHzTzmxzVwI9mPrxIysozrpZfS2CVlX5o1EpEa_inwkp_NNEug4u8IUDU7Q-dw98cW9cB5sAJHWhNcoKiqTZGN5mE7o9zW4lVDLd7Q-nWgW_XbHFgzL2oULIgaQLpX-HPIf2rALMUf7uTHNpskP9RZfLItX9ATHaPp7Zhcx-bCBTVG00]--></g></svg>