<?xml version="1.0" encoding="UTF-8" standalone="no"?><svg xmlns="http://www.w3.org/2000/svg" xmlns:xlink="http://www.w3.org/1999/xlink" contentStyleType="text/css" height="2249px" preserveAspectRatio="none" style="width:1735px;height:2249px;background:#FFFFFF;" version="1.1" viewBox="0 0 1735 2249" width="1735px" zoomAndPan="magnify"><defs/><g><rect fill="#DDDDDD" height="2237.4766" style="stroke:#181818;stroke-width:0.5;" width="1029" x="683.5" y="6"/><text fill="#000000" font-family="sans-serif" font-size="13" font-weight="bold" lengthAdjust="spacing" textLength="96" x="1150" y="19.4951">RESTful go API</text><rect fill="#FFFFFF" height="1860.0938" style="stroke:#181818;stroke-width:1.0;" width="10" x="402.5" y="293.7734"/><rect fill="#FFFFFF" height="316.5156" style="stroke:#181818;stroke-width:1.0;" width="10" x="407.5" y="393.8281"/><rect fill="#FFFFFF" height="272.1641" style="stroke:#181818;stroke-width:1.0;" width="10" x="407.5" y="742.6953"/><rect fill="#FFFFFF" height="261.5156" style="stroke:#181818;stroke-width:1.0;" width="10" x="407.5" y="1096.5625"/><rect fill="#FFFFFF" height="272.1641" style="stroke:#181818;stroke-width:1.0;" width="10" x="407.5" y="1432.7813"/><rect fill="#FFFFFF" height="195.1094" style="stroke:#181818;stroke-width:1.0;" width="10" x="407.5" y="1882.0547"/><rect fill="#FFFFFF" height="255.8125" style="stroke:#181818;stroke-width:1.0;" width="10" x="710.5" y="424.1797"/><rect fill="#FFFFFF" height="211.4609" style="stroke:#181818;stroke-width:1.0;" width="10" x="710.5" y="773.0469"/><rect fill="#FFFFFF" height="200.8125" style="stroke:#181818;stroke-width:1.0;" width="10" x="710.5" y="1126.9141"/><rect fill="#FFFFFF" height="195.1094" style="stroke:#181818;stroke-width:1.0;" width="10" x="710.5" y="1479.4844"/><rect fill="#FFFFFF" height="113.0547" style="stroke:#181818;stroke-width:1.0;" width="10" x="710.5" y="2040.8125"/><rect fill="#FFFFFF" height="195.1094" style="stroke:#181818;stroke-width:1.0;" width="10" x="967.5" y="454.5313"/><rect fill="#FFFFFF" height="150.7578" style="stroke:#181818;stroke-width:1.0;" width="10" x="967.5" y="803.3984"/><rect fill="#FFFFFF" height="140.1094" style="stroke:#181818;stroke-width:1.0;" width="10" x="967.5" y="1157.2656"/><rect fill="#FFFFFF" height="91.0547" style="stroke:#181818;stroke-width:1.0;" width="10" x="967.5" y="1553.1875"/><rect fill="#FFFFFF" height="39.3516" style="stroke:#181818;stroke-width:1.0;" width="10" x="967.5" y="2114.5156"/><rect fill="#FFFFFF" height="30.3516" style="stroke:#181818;stroke-width:1.0;" width="10" x="1626.5" y="528.2344"/><rect fill="#FFFFFF" height="30.3516" style="stroke:#181818;stroke-width:1.0;" width="10" x="1626.5" y="588.9375"/><rect fill="#FFFFFF" height="30.3516" style="stroke:#181818;stroke-width:1.0;" width="10" x="1626.5" y="893.4531"/><rect fill="#FFFFFF" height="30.3516" style="stroke:#181818;stroke-width:1.0;" width="10" x="1626.5" y="1236.6719"/><rect fill="#FFFFFF" height="30.3516" style="stroke:#181818;stroke-width:1.0;" width="10" x="1626.5" y="1779.6484"/><rect fill="none" height="669.7344" style="stroke:#000000;stroke-width:1.5;" width="1637.5" x="81" y="353.125"/><rect fill="none" height="111.7578" style="stroke:#000000;stroke-width:1.5;" width="672.5" x="81" y="1825"/><line style="stroke:#181818;stroke-width:0.5;stroke-dasharray:5.0,5.0;" x1="108" x2="108" y1="82.6094" y2="2162.8672"/><line style="stroke:#181818;stroke-width:0.5;stroke-dasharray:5.0,5.0;" x1="407.5" x2="407.5" y1="82.6094" y2="2162.8672"/><line style="stroke:#181818;stroke-width:0.5;stroke-dasharray:5.0,5.0;" x1="715.5" x2="715.5" y1="82.6094" y2="2162.8672"/><line style="stroke:#181818;stroke-width:0.5;stroke-dasharray:5.0,5.0;" x1="972.5" x2="972.5" y1="82.6094" y2="2162.8672"/><line style="stroke:#181818;stroke-width:0.5;stroke-dasharray:5.0,5.0;" x1="1631.5" x2="1631.5" y1="82.6094" y2="2162.8672"/><text fill="#000000" font-family="sans-serif" font-size="14" lengthAdjust="spacing" textLength="29" x="91" y="79.5332">User</text><ellipse cx="108.5" cy="13.5" fill="#E2E2F0" rx="8" ry="8" style="stroke:#181818;stroke-width:0.5;"/><path d="M108.5,21.5 L108.5,48.5 M95.5,29.5 L121.5,29.5 M108.5,48.5 L95.5,63.5 M108.5,48.5 L121.5,63.5 " fill="none" style="stroke:#181818;stroke-width:0.5;"/><text fill="#000000" font-family="sans-serif" font-size="14" lengthAdjust="spacing" textLength="29" x="91" y="2176.4004">User</text><ellipse cx="108.5" cy="2187.9766" fill="#E2E2F0" rx="8" ry="8" style="stroke:#181818;stroke-width:0.5;"/><path d="M108.5,2195.9766 L108.5,2222.9766 M95.5,2203.9766 L121.5,2203.9766 M108.5,2222.9766 L95.5,2237.9766 M108.5,2222.9766 L121.5,2237.9766 " fill="none" style="stroke:#181818;stroke-width:0.5;"/><text fill="#000000" font-family="sans-serif" font-size="14" lengthAdjust="spacing" textLength="180" x="314.5" y="79.5332">In-Browser ReactJS frontend</text><ellipse cx="407.5" cy="13.5" fill="#E2E2F0" rx="8" ry="8" style="stroke:#181818;stroke-width:0.5;"/><path d="M407.5,21.5 L407.5,48.5 M394.5,29.5 L420.5,29.5 M407.5,48.5 L394.5,63.5 M407.5,48.5 L420.5,63.5 " fill="none" style="stroke:#181818;stroke-width:0.5;"/><text fill="#000000" font-family="sans-serif" font-size="14" lengthAdjust="spacing" textLength="180" x="314.5" y="2176.4004">In-Browser ReactJS frontend</text><ellipse cx="407.5" cy="2187.9766" fill="#E2E2F0" rx="8" ry="8" style="stroke:#181818;stroke-width:0.5;"/><path d="M407.5,2195.9766 L407.5,2222.9766 M394.5,2203.9766 L420.5,2203.9766 M407.5,2222.9766 L394.5,2237.9766 M407.5,2222.9766 L420.5,2237.9766 " fill="none" style="stroke:#181818;stroke-width:0.5;"/><rect fill="#E2E2F0" height="31.6094" rx="2.5" ry="2.5" style="stroke:#181818;stroke-width:0.5;" width="56" x="687.5" y="50"/><text fill="#000000" font-family="sans-serif" font-size="14" lengthAdjust="spacing" textLength="42" x="694.5" y="71.5332">Server</text><rect fill="#E2E2F0" height="31.6094" rx="2.5" ry="2.5" style="stroke:#181818;stroke-width:0.5;" width="56" x="687.5" y="2161.8672"/><text fill="#000000" font-family="sans-serif" font-size="14" lengthAdjust="spacing" textLength="42" x="694.5" y="2183.4004">Server</text><rect fill="#E2E2F0" height="31.6094" rx="2.5" ry="2.5" style="stroke:#181818;stroke-width:0.5;" width="58" x="943.5" y="50"/><text fill="#000000" font-family="sans-serif" font-size="14" lengthAdjust="spacing" textLength="44" x="950.5" y="71.5332">Utilities</text><rect fill="#E2E2F0" height="31.6094" rx="2.5" ry="2.5" style="stroke:#181818;stroke-width:0.5;" width="58" x="943.5" y="2161.8672"/><text fill="#000000" font-family="sans-serif" font-size="14" lengthAdjust="spacing" textLength="44" x="950.5" y="2183.4004">Utilities</text><rect fill="#E2E2F0" height="31.6094" rx="2.5" ry="2.5" style="stroke:#181818;stroke-width:0.5;" width="154" x="1554.5" y="50"/><text fill="#000000" font-family="sans-serif" font-size="14" lengthAdjust="spacing" textLength="140" x="1561.5" y="71.5332">PostgreSQL database</text><rect fill="#E2E2F0" height="31.6094" rx="2.5" ry="2.5" style="stroke:#181818;stroke-width:0.5;" width="154" x="1554.5" y="2161.8672"/><text fill="#000000" font-family="sans-serif" font-size="14" lengthAdjust="spacing" textLength="140" x="1561.5" y="2183.4004">PostgreSQL database</text><rect fill="#FFFFFF" height="1860.0938" style="stroke:#181818;stroke-width:1.0;" width="10" x="402.5" y="293.7734"/><rect fill="#FFFFFF" height="316.5156" style="stroke:#181818;stroke-width:1.0;" width="10" x="407.5" y="393.8281"/><rect fill="#FFFFFF" height="272.1641" style="stroke:#181818;stroke-width:1.0;" width="10" x="407.5" y="742.6953"/><rect fill="#FFFFFF" height="261.5156" style="stroke:#181818;stroke-width:1.0;" width="10" x="407.5" y="1096.5625"/><rect fill="#FFFFFF" height="272.1641" style="stroke:#181818;stroke-width:1.0;" width="10" x="407.5" y="1432.7813"/><rect fill="#FFFFFF" height="195.1094" style="stroke:#181818;stroke-width:1.0;" width="10" x="407.5" y="1882.0547"/><rect fill="#FFFFFF" height="255.8125" style="stroke:#181818;stroke-width:1.0;" width="10" x="710.5" y="424.1797"/><rect fill="#FFFFFF" height="211.4609" style="stroke:#181818;stroke-width:1.0;" width="10" x="710.5" y="773.0469"/><rect fill="#FFFFFF" height="200.8125" style="stroke:#181818;stroke-width:1.0;" width="10" x="710.5" y="1126.9141"/><rect fill="#FFFFFF" height="195.1094" style="stroke:#181818;stroke-width:1.0;" width="10" x="710.5" y="1479.4844"/><rect fill="#FFFFFF" height="113.0547" style="stroke:#181818;stroke-width:1.0;" width="10" x="710.5" y="2040.8125"/><rect fill="#FFFFFF" height="195.1094" style="stroke:#181818;stroke-width:1.0;" width="10" x="967.5" y="454.5313"/><rect fill="#FFFFFF" height="150.7578" style="stroke:#181818;stroke-width:1.0;" width="10" x="967.5" y="803.3984"/><rect fill="#FFFFFF" height="140.1094" style="stroke:#181818;stroke-width:1.0;" width="10" x="967.5" y="1157.2656"/><rect fill="#FFFFFF" height="91.0547" style="stroke:#181818;stroke-width:1.0;" width="10" x="967.5" y="1553.1875"/><rect fill="#FFFFFF" height="39.3516" style="stroke:#181818;stroke-width:1.0;" width="10" x="967.5" y="2114.5156"/><rect fill="#FFFFFF" height="30.3516" style="stroke:#181818;stroke-width:1.0;" width="10" x="1626.5" y="528.2344"/><rect fill="#FFFFFF" height="30.3516" style="stroke:#181818;stroke-width:1.0;" width="10" x="1626.5" y="588.9375"/><rect fill="#FFFFFF" height="30.3516" style="stroke:#181818;stroke-width:1.0;" width="10" x="1626.5" y="893.4531"/><rect fill="#FFFFFF" height="30.3516" style="stroke:#181818;stroke-width:1.0;" width="10" x="1626.5" y="1236.6719"/><rect fill="#FFFFFF" height="30.3516" style="stroke:#181818;stroke-width:1.0;" width="10" x="1626.5" y="1779.6484"/><path d="M5,97.6094 L5,205.6094 L512,205.6094 L512,107.6094 L502,97.6094 L5,97.6094 " fill="#FEFFDD" style="stroke:#181818;stroke-width:0.5;"/><path d="M502,97.6094 L502,107.6094 L512,107.6094 L502,97.6094 " fill="#FEFFDD" style="stroke:#181818;stroke-width:0.5;"/><text fill="#000000" font-family="sans-serif" font-size="13" lengthAdjust="spacing" textLength="486" x="11" y="116.1045">Note: Frontend is served by a service based on ReactJS (server-side and client-side)</text><text fill="#000000" font-family="sans-serif" font-size="13" lengthAdjust="spacing" textLength="437" x="11" y="132.4561">This service is not represented here as an actor because its sole purpose is</text><text fill="#000000" font-family="sans-serif" font-size="13" lengthAdjust="spacing" textLength="236" x="11" y="148.8076">to provide the client to the user's browser</text><text fill="#000000" font-family="sans-serif" font-size="13" lengthAdjust="spacing" textLength="430" x="11" y="165.1592">The In-Browser ReactJS frontend actor regroups server-side and client-side</text><text fill="#000000" font-family="sans-serif" font-size="13" lengthAdjust="spacing" textLength="474" x="11" y="181.5107">But JS code is exectued client-side, so it should be the client address that is sent</text><text fill="#000000" font-family="sans-serif" font-size="13" lengthAdjust="spacing" textLength="262" x="11" y="197.8623">to the DB and not the frontend server address</text><rect fill="#EEEEEE" height="3" style="stroke:#EEEEEE;stroke-width:1.0;" width="1728.5" x="0" y="231.8945"/><line style="stroke:#000000;stroke-width:1.0;" x1="0" x2="1728.5" y1="231.8945" y2="231.8945"/><line style="stroke:#000000;stroke-width:1.0;" x1="0" x2="1728.5" y1="234.8945" y2="234.8945"/><rect fill="#EEEEEE" height="24.3516" style="stroke:#000000;stroke-width:2.0;" width="171" x="778.75" y="220.7188"/><text fill="#000000" font-family="sans-serif" font-size="13" font-weight="bold" lengthAdjust="spacing" textLength="153" x="784.75" y="238.2139">User connects to service</text><polygon fill="#181818" points="390.5,289.7734,400.5,293.7734,390.5,297.7734,394.5,293.7734" style="stroke:#181818;stroke-width:1.0;"/><line style="stroke:#181818;stroke-width:1.0;" x1="108.5" x2="396.5" y1="293.7734" y2="293.7734"/><text fill="#000000" font-family="sans-serif" font-size="13" lengthAdjust="spacing" textLength="174" x="115.5" y="272.5654">Connecting to frontend service</text><text fill="#000000" font-family="sans-serif" font-size="13" lengthAdjust="spacing" textLength="157" x="115.5" y="288.917">Charging view and ReactJS</text><rect fill="#EEEEEE" height="3" style="stroke:#EEEEEE;stroke-width:1.0;" width="1728.5" x="0" y="322.9492"/><line style="stroke:#000000;stroke-width:1.0;" x1="0" x2="1728.5" y1="322.9492" y2="322.9492"/><line style="stroke:#000000;stroke-width:1.0;" x1="0" x2="1728.5" y1="325.9492" y2="325.9492"/><rect fill="#EEEEEE" height="24.3516" style="stroke:#000000;stroke-width:2.0;" width="165" x="781.75" y="311.7734"/><text fill="#000000" font-family="sans-serif" font-size="13" font-weight="bold" lengthAdjust="spacing" textLength="147" x="787.75" y="329.2686">Register or login phase</text><path d="M81,353.125 L142,353.125 L142,361.4766 L132,371.4766 L81,371.4766 L81,353.125 " fill="#EEEEEE" style="stroke:#000000;stroke-width:1.5;"/><rect fill="none" height="669.7344" style="stroke:#000000;stroke-width:1.5;" width="1637.5" x="81" y="353.125"/><text fill="#000000" font-family="sans-serif" font-size="13" font-weight="bold" lengthAdjust="spacing" textLength="16" x="96" y="367.6201">alt</text><polygon fill="#181818" points="395.5,389.8281,405.5,393.8281,395.5,397.8281,399.5,393.8281" style="stroke:#181818;stroke-width:1.0;"/><line style="stroke:#181818;stroke-width:1.0;" x1="108.5" x2="401.5" y1="393.8281" y2="393.8281"/><text fill="#000000" font-family="sans-serif" font-size="13" lengthAdjust="spacing" textLength="160" x="115.5" y="388.9717">Register attempt as "name"</text><polygon fill="#181818" points="698.5,420.1797,708.5,424.1797,698.5,428.1797,702.5,424.1797" style="stroke:#181818;stroke-width:1.0;"/><line style="stroke:#181818;stroke-width:1.0;" x1="417.5" x2="704.5" y1="424.1797" y2="424.1797"/><text fill="#000000" font-family="sans-serif" font-size="13" lengthAdjust="spacing" textLength="176" x="424.5" y="419.3232">[GET] .../register?name=name</text><polygon fill="#181818" points="955.5,450.5313,965.5,454.5313,955.5,458.5313,959.5,454.5313" style="stroke:#181818;stroke-width:1.0;"/><line style="stroke:#181818;stroke-width:1.0;" x1="720.5" x2="961.5" y1="454.5313" y2="454.5313"/><text fill="#000000" font-family="sans-serif" font-size="13" lengthAdjust="spacing" textLength="73" x="727.5" y="449.6748">Register(w,r)</text><line style="stroke:#181818;stroke-width:1.0;" x1="977.5" x2="1019.5" y1="484.8828" y2="484.8828"/><line style="stroke:#181818;stroke-width:1.0;" x1="1019.5" x2="1019.5" y1="484.8828" y2="497.8828"/><line style="stroke:#181818;stroke-width:1.0;" x1="978.5" x2="1019.5" y1="497.8828" y2="497.8828"/><polygon fill="#181818" points="988.5,493.8828,978.5,497.8828,988.5,501.8828,984.5,497.8828" style="stroke:#181818;stroke-width:1.0;"/><text fill="#000000" font-family="sans-serif" font-size="13" lengthAdjust="spacing" textLength="98" x="984.5" y="480.0264">ip, port = getIP(r)</text><polygon fill="#181818" points="1614.5,524.2344,1624.5,528.2344,1614.5,532.2344,1618.5,528.2344" style="stroke:#181818;stroke-width:1.0;"/><line style="stroke:#181818;stroke-width:1.0;" x1="977.5" x2="1620.5" y1="528.2344" y2="528.2344"/><text fill="#000000" font-family="sans-serif" font-size="13" lengthAdjust="spacing" textLength="461" x="984.5" y="523.3779">INSERT INTO users (name, ip, port) VALUES ("name", ip, port) RETURNING id;</text><polygon fill="#181818" points="988.5,554.5859,978.5,558.5859,988.5,562.5859,984.5,558.5859" style="stroke:#181818;stroke-width:1.0;"/><line style="stroke:#181818;stroke-width:1.0;" x1="982.5" x2="1630.5" y1="558.5859" y2="558.5859"/><text fill="#000000" font-family="sans-serif" font-size="13" lengthAdjust="spacing" textLength="28" x="994.5" y="553.7295">3265</text><polygon fill="#181818" points="1614.5,584.9375,1624.5,588.9375,1614.5,592.9375,1618.5,588.9375" style="stroke:#181818;stroke-width:1.0;"/><line style="stroke:#181818;stroke-width:1.0;" x1="977.5" x2="1620.5" y1="588.9375" y2="588.9375"/><text fill="#000000" font-family="sans-serif" font-size="13" lengthAdjust="spacing" textLength="141" x="984.5" y="584.0811">SELECT * FROM users;</text><polygon fill="#181818" points="988.5,615.2891,978.5,619.2891,988.5,623.2891,984.5,619.2891" style="stroke:#181818;stroke-width:1.0;"/><line style="stroke:#181818;stroke-width:1.0;" x1="982.5" x2="1630.5" y1="619.2891" y2="619.2891"/><text fill="#000000" font-family="sans-serif" font-size="13" lengthAdjust="spacing" textLength="49" x="994.5" y="614.4326">user_list</text><polygon fill="#181818" points="731.5,645.6406,721.5,649.6406,731.5,653.6406,727.5,649.6406" style="stroke:#181818;stroke-width:1.0;"/><line style="stroke:#181818;stroke-width:1.0;" x1="725.5" x2="971.5" y1="649.6406" y2="649.6406"/><text fill="#000000" font-family="sans-serif" font-size="13" lengthAdjust="spacing" textLength="182" x="737.5" y="644.7842">LoginResponse{3265, user_list}</text><polygon fill="#181818" points="428.5,675.9922,418.5,679.9922,428.5,683.9922,424.5,679.9922" style="stroke:#181818;stroke-width:1.0;"/><line style="stroke:#181818;stroke-width:1.0;" x1="422.5" x2="714.5" y1="679.9922" y2="679.9922"/><text fill="#000000" font-family="sans-serif" font-size="13" lengthAdjust="spacing" textLength="228" x="434.5" y="675.1357">[JSON] LoginResponse{3265, user_list}</text><polygon fill="#181818" points="119.5,706.3438,109.5,710.3438,119.5,714.3438,115.5,710.3438" style="stroke:#181818;stroke-width:1.0;"/><line style="stroke:#181818;stroke-width:1.0;" x1="113.5" x2="401.5" y1="710.3438" y2="710.3438"/><text fill="#000000" font-family="sans-serif" font-size="13" lengthAdjust="spacing" textLength="104" x="125.5" y="705.4873">List of other users</text><line style="stroke:#000000;stroke-width:1.0;stroke-dasharray:2.0,2.0;" x1="81" x2="1718.5" y1="719.3438" y2="719.3438"/><polygon fill="#181818" points="395.5,738.6953,405.5,742.6953,395.5,746.6953,399.5,742.6953" style="stroke:#181818;stroke-width:1.0;"/><line style="stroke:#181818;stroke-width:1.0;" x1="108.5" x2="401.5" y1="742.6953" y2="742.6953"/><text fill="#000000" font-family="sans-serif" font-size="13" lengthAdjust="spacing" textLength="174" x="115.5" y="737.8389">Login attempt as user ID 3265</text><polygon fill="#181818" points="698.5,769.0469,708.5,773.0469,698.5,777.0469,702.5,773.0469" style="stroke:#181818;stroke-width:1.0;"/><line style="stroke:#181818;stroke-width:1.0;" x1="417.5" x2="704.5" y1="773.0469" y2="773.0469"/><text fill="#000000" font-family="sans-serif" font-size="13" lengthAdjust="spacing" textLength="138" x="424.5" y="768.1904">[GET] .../Login?id=3265</text><polygon fill="#181818" points="955.5,799.3984,965.5,803.3984,955.5,807.3984,959.5,803.3984" style="stroke:#181818;stroke-width:1.0;"/><line style="stroke:#181818;stroke-width:1.0;" x1="720.5" x2="961.5" y1="803.3984" y2="803.3984"/><text fill="#000000" font-family="sans-serif" font-size="13" lengthAdjust="spacing" textLength="56" x="727.5" y="798.542">Login(w,r)</text><line style="stroke:#181818;stroke-width:1.0;" x1="977.5" x2="1019.5" y1="833.75" y2="833.75"/><line style="stroke:#181818;stroke-width:1.0;" x1="1019.5" x2="1019.5" y1="833.75" y2="846.75"/><line style="stroke:#181818;stroke-width:1.0;" x1="978.5" x2="1019.5" y1="846.75" y2="846.75"/><polygon fill="#181818" points="988.5,842.75,978.5,846.75,988.5,850.75,984.5,846.75" style="stroke:#181818;stroke-width:1.0;"/><text fill="#000000" font-family="sans-serif" font-size="13" lengthAdjust="spacing" textLength="98" x="984.5" y="828.8936">ip, port = getIP(r)</text><polygon fill="#181818" points="1614.5,889.4531,1624.5,893.4531,1614.5,897.4531,1618.5,893.4531" style="stroke:#181818;stroke-width:1.0;"/><line style="stroke:#181818;stroke-width:1.0;" x1="977.5" x2="1620.5" y1="893.4531" y2="893.4531"/><text fill="#000000" font-family="sans-serif" font-size="13" lengthAdjust="spacing" textLength="340" x="984.5" y="872.2451">UPDATE users SET ip = ip, port = port WHERE id = 3265;</text><text fill="#000000" font-family="sans-serif" font-size="13" lengthAdjust="spacing" textLength="141" x="988.5" y="888.5967">SELECT * FROM users;</text><polygon fill="#181818" points="988.5,919.8047,978.5,923.8047,988.5,927.8047,984.5,923.8047" style="stroke:#181818;stroke-width:1.0;"/><line style="stroke:#181818;stroke-width:1.0;" x1="982.5" x2="1630.5" y1="923.8047" y2="923.8047"/><text fill="#000000" font-family="sans-serif" font-size="13" lengthAdjust="spacing" textLength="49" x="994.5" y="918.9482">user_list</text><polygon fill="#181818" points="731.5,950.1563,721.5,954.1563,731.5,958.1563,727.5,954.1563" style="stroke:#181818;stroke-width:1.0;"/><line style="stroke:#181818;stroke-width:1.0;" x1="725.5" x2="971.5" y1="954.1563" y2="954.1563"/><text fill="#000000" font-family="sans-serif" font-size="13" lengthAdjust="spacing" textLength="182" x="737.5" y="949.2998">LoginResponse{3265, user_list}</text><polygon fill="#181818" points="428.5,980.5078,418.5,984.5078,428.5,988.5078,424.5,984.5078" style="stroke:#181818;stroke-width:1.0;"/><line style="stroke:#181818;stroke-width:1.0;" x1="422.5" x2="714.5" y1="984.5078" y2="984.5078"/><text fill="#000000" font-family="sans-serif" font-size="13" lengthAdjust="spacing" textLength="228" x="434.5" y="979.6514">[JSON] LoginResponse{3265, user_list}</text><polygon fill="#181818" points="119.5,1010.8594,109.5,1014.8594,119.5,1018.8594,115.5,1014.8594" style="stroke:#181818;stroke-width:1.0;"/><line style="stroke:#181818;stroke-width:1.0;" x1="113.5" x2="401.5" y1="1014.8594" y2="1014.8594"/><text fill="#000000" font-family="sans-serif" font-size="13" lengthAdjust="spacing" textLength="104" x="125.5" y="1010.0029">List of other users</text><rect fill="#EEEEEE" height="3" style="stroke:#EEEEEE;stroke-width:1.0;" width="1728.5" x="0" y="1051.0352"/><line style="stroke:#000000;stroke-width:1.0;" x1="0" x2="1728.5" y1="1051.0352" y2="1051.0352"/><line style="stroke:#000000;stroke-width:1.0;" x1="0" x2="1728.5" y1="1054.0352" y2="1054.0352"/><rect fill="#EEEEEE" height="24.3516" style="stroke:#000000;stroke-width:2.0;" width="264" x="732.25" y="1039.8594"/><text fill="#000000" font-family="sans-serif" font-size="13" font-weight="bold" lengthAdjust="spacing" textLength="246" x="738.25" y="1057.3545">Start chatting session with user "other"</text><polygon fill="#181818" points="395.5,1092.5625,405.5,1096.5625,395.5,1100.5625,399.5,1096.5625" style="stroke:#181818;stroke-width:1.0;"/><line style="stroke:#181818;stroke-width:1.0;stroke-dasharray:2.0,2.0;" x1="108.5" x2="401.5" y1="1096.5625" y2="1096.5625"/><text fill="#000000" font-family="sans-serif" font-size="13" lengthAdjust="spacing" textLength="232" x="115.5" y="1091.7061">Select user "other" from list with id 3103</text><polygon fill="#181818" points="698.5,1122.9141,708.5,1126.9141,698.5,1130.9141,702.5,1126.9141" style="stroke:#181818;stroke-width:1.0;"/><line style="stroke:#181818;stroke-width:1.0;" x1="417.5" x2="704.5" y1="1126.9141" y2="1126.9141"/><text fill="#000000" font-family="sans-serif" font-size="13" lengthAdjust="spacing" textLength="233" x="424.5" y="1122.0576">[GET] .../Select?user=3265&amp;other=3103</text><polygon fill="#181818" points="955.5,1153.2656,965.5,1157.2656,955.5,1161.2656,959.5,1157.2656" style="stroke:#181818;stroke-width:1.0;"/><line style="stroke:#181818;stroke-width:1.0;" x1="720.5" x2="961.5" y1="1157.2656" y2="1157.2656"/><text fill="#000000" font-family="sans-serif" font-size="13" lengthAdjust="spacing" textLength="120" x="727.5" y="1152.4092">GetConversation(w,r)</text><polygon fill="#181818" points="1614.5,1232.6719,1624.5,1236.6719,1614.5,1240.6719,1618.5,1236.6719" style="stroke:#181818;stroke-width:1.0;"/><line style="stroke:#181818;stroke-width:1.0;" x1="977.5" x2="1620.5" y1="1236.6719" y2="1236.6719"/><text fill="#000000" font-family="sans-serif" font-size="13" lengthAdjust="spacing" textLength="165" x="984.5" y="1182.7607">SELECT * FROM messages</text><text fill="#000000" font-family="sans-serif" font-size="13" lengthAdjust="spacing" textLength="278" x="984.5" y="1199.1123">WHERE source = 3103 AND destination = 3265</text><text fill="#000000" font-family="sans-serif" font-size="13" lengthAdjust="spacing" textLength="248" x="984.5" y="1215.4639">OR source = 3265 AND destination = 3103</text><text fill="#000000" font-family="sans-serif" font-size="13" lengthAdjust="spacing" textLength="132" x="984.5" y="1231.8154">ORDER BY time ACS;</text><polygon fill="#181818" points="988.5,1263.0234,978.5,1267.0234,988.5,1271.0234,984.5,1267.0234" style="stroke:#181818;stroke-width:1.0;"/><line style="stroke:#181818;stroke-width:1.0;" x1="982.5" x2="1630.5" y1="1267.0234" y2="1267.0234"/><text fill="#000000" font-family="sans-serif" font-size="13" lengthAdjust="spacing" textLength="27" x="994.5" y="1262.167">rows</text><polygon fill="#181818" points="731.5,1293.375,721.5,1297.375,731.5,1301.375,727.5,1297.375" style="stroke:#181818;stroke-width:1.0;"/><line style="stroke:#181818;stroke-width:1.0;" x1="725.5" x2="971.5" y1="1297.375" y2="1297.375"/><text fill="#000000" font-family="sans-serif" font-size="13" lengthAdjust="spacing" textLength="223" x="737.5" y="1292.5186">Conversation{3265,3103,message_list}</text><polygon fill="#181818" points="428.5,1323.7266,418.5,1327.7266,428.5,1331.7266,424.5,1327.7266" style="stroke:#181818;stroke-width:1.0;"/><line style="stroke:#181818;stroke-width:1.0;" x1="422.5" x2="714.5" y1="1327.7266" y2="1327.7266"/><text fill="#000000" font-family="sans-serif" font-size="13" lengthAdjust="spacing" textLength="269" x="434.5" y="1322.8701">[JSON] Conversation{3265,3103,message_list}</text><polygon fill="#181818" points="119.5,1354.0781,109.5,1358.0781,119.5,1362.0781,115.5,1358.0781" style="stroke:#181818;stroke-width:1.0;"/><line style="stroke:#181818;stroke-width:1.0;" x1="113.5" x2="401.5" y1="1358.0781" y2="1358.0781"/><text fill="#000000" font-family="sans-serif" font-size="13" lengthAdjust="spacing" textLength="173" x="125.5" y="1353.2217">Conversation with user "other"</text><rect fill="#EEEEEE" height="3" style="stroke:#EEEEEE;stroke-width:1.0;" width="1728.5" x="0" y="1387.2539"/><line style="stroke:#000000;stroke-width:1.0;" x1="0" x2="1728.5" y1="1387.2539" y2="1387.2539"/><line style="stroke:#000000;stroke-width:1.0;" x1="0" x2="1728.5" y1="1390.2539" y2="1390.2539"/><rect fill="#EEEEEE" height="24.3516" style="stroke:#000000;stroke-width:2.0;" width="285" x="721.75" y="1376.0781"/><text fill="#000000" font-family="sans-serif" font-size="13" font-weight="bold" lengthAdjust="spacing" textLength="267" x="727.75" y="1393.5732">User "user" sends message to user "other"</text><polygon fill="#181818" points="395.5,1428.7813,405.5,1432.7813,395.5,1436.7813,399.5,1432.7813" style="stroke:#181818;stroke-width:1.0;"/><line style="stroke:#181818;stroke-width:1.0;stroke-dasharray:2.0,2.0;" x1="108.5" x2="401.5" y1="1432.7813" y2="1432.7813"/><text fill="#000000" font-family="sans-serif" font-size="13" lengthAdjust="spacing" textLength="167" x="115.5" y="1427.9248">Sends "Hello" to user "other"</text><polygon fill="#181818" points="698.5,1475.4844,708.5,1479.4844,698.5,1483.4844,702.5,1479.4844" style="stroke:#181818;stroke-width:1.0;"/><line style="stroke:#181818;stroke-width:1.0;" x1="417.5" x2="704.5" y1="1479.4844" y2="1479.4844"/><text fill="#000000" font-family="sans-serif" font-size="13" lengthAdjust="spacing" textLength="146" x="424.5" y="1458.2764">[POST] .../SendMessage</text><text fill="#000000" font-family="sans-serif" font-size="13" lengthAdjust="spacing" textLength="257" x="424.5" y="1474.6279">source=3265&amp;destination=3103&amp;body=Hello</text><line style="stroke:#181818;stroke-width:1.0;" x1="720.5" x2="762.5" y1="1509.8359" y2="1509.8359"/><line style="stroke:#181818;stroke-width:1.0;" x1="762.5" x2="762.5" y1="1509.8359" y2="1522.8359"/><line style="stroke:#181818;stroke-width:1.0;" x1="721.5" x2="762.5" y1="1522.8359" y2="1522.8359"/><polygon fill="#181818" points="731.5,1518.8359,721.5,1522.8359,731.5,1526.8359,727.5,1522.8359" style="stroke:#181818;stroke-width:1.0;"/><text fill="#000000" font-family="sans-serif" font-size="13" lengthAdjust="spacing" textLength="95" x="727.5" y="1504.9795">time=time.Now()</text><polygon fill="#181818" points="955.5,1549.1875,965.5,1553.1875,955.5,1557.1875,959.5,1553.1875" style="stroke:#181818;stroke-width:1.0;"/><line style="stroke:#181818;stroke-width:1.0;" x1="720.5" x2="961.5" y1="1553.1875" y2="1553.1875"/><text fill="#000000" font-family="sans-serif" font-size="13" lengthAdjust="spacing" textLength="108" x="727.5" y="1548.3311">SendMessage(w,r)</text><polygon fill="#181818" points="1619.5,1579.5391,1629.5,1583.5391,1619.5,1587.5391,1623.5,1583.5391" style="stroke:#181818;stroke-width:1.0;"/><line style="stroke:#181818;stroke-width:1.0;" x1="977.5" x2="1625.5" y1="1583.5391" y2="1583.5391"/><text fill="#000000" font-family="sans-serif" font-size="13" lengthAdjust="spacing" textLength="630" x="984.5" y="1578.6826">INSERT INTO messages (source, destination, body, time) VALUES (3265,3103,"Hello",time) RETURNING id;</text><polygon fill="#181818" points="988.5,1609.8906,978.5,1613.8906,988.5,1617.8906,984.5,1613.8906" style="stroke:#181818;stroke-width:1.0;"/><line style="stroke:#181818;stroke-width:1.0;" x1="982.5" x2="1630.5" y1="1613.8906" y2="1613.8906"/><text fill="#000000" font-family="sans-serif" font-size="13" lengthAdjust="spacing" textLength="14" x="994.5" y="1609.0342">54</text><polygon fill="#181818" points="731.5,1640.2422,721.5,1644.2422,731.5,1648.2422,727.5,1644.2422" style="stroke:#181818;stroke-width:1.0;"/><line style="stroke:#181818;stroke-width:1.0;" x1="725.5" x2="971.5" y1="1644.2422" y2="1644.2422"/><text fill="#000000" font-family="sans-serif" font-size="13" lengthAdjust="spacing" textLength="13" x="737.5" y="1639.3857">nil</text><polygon fill="#181818" points="428.5,1670.5938,418.5,1674.5938,428.5,1678.5938,424.5,1674.5938" style="stroke:#181818;stroke-width:1.0;"/><line style="stroke:#181818;stroke-width:1.0;" x1="422.5" x2="714.5" y1="1674.5938" y2="1674.5938"/><text fill="#000000" font-family="sans-serif" font-size="13" lengthAdjust="spacing" textLength="211" x="434.5" y="1669.7373">[HTTP response status] 201 Created</text><polygon fill="#181818" points="119.5,1700.9453,109.5,1704.9453,119.5,1708.9453,115.5,1704.9453" style="stroke:#181818;stroke-width:1.0;"/><line style="stroke:#181818;stroke-width:1.0;" x1="113.5" x2="401.5" y1="1704.9453" y2="1704.9453"/><text fill="#000000" font-family="sans-serif" font-size="13" lengthAdjust="spacing" textLength="132" x="125.5" y="1700.0889">New message appears</text><rect fill="#EEEEEE" height="3" style="stroke:#EEEEEE;stroke-width:1.0;" width="1728.5" x="0" y="1734.1211"/><line style="stroke:#000000;stroke-width:1.0;" x1="0" x2="1728.5" y1="1734.1211" y2="1734.1211"/><line style="stroke:#000000;stroke-width:1.0;" x1="0" x2="1728.5" y1="1737.1211" y2="1737.1211"/><rect fill="#EEEEEE" height="24.3516" style="stroke:#000000;stroke-width:2.0;" width="318" x="705.25" y="1722.9453"/><text fill="#000000" font-family="sans-serif" font-size="13" font-weight="bold" lengthAdjust="spacing" textLength="300" x="711.25" y="1740.4404">User "other" sends message "Hi!" to user "user"</text><polygon fill="#181818" points="1614.5,1775.6484,1624.5,1779.6484,1614.5,1783.6484,1618.5,1779.6484" style="stroke:#181818;stroke-width:1.0;"/><line style="stroke:#181818;stroke-width:1.0;" x1="715.5" x2="1620.5" y1="1779.6484" y2="1779.6484"/><text fill="#000000" font-family="sans-serif" font-size="13" lengthAdjust="spacing" textLength="287" x="722.5" y="1774.792">SELECT ip, port FROM users WHERE id = 3265;</text><polygon fill="#181818" points="726.5,1806,716.5,1810,726.5,1814,722.5,1810" style="stroke:#181818;stroke-width:1.0;"/><line style="stroke:#181818;stroke-width:1.0;" x1="720.5" x2="1630.5" y1="1810" y2="1810"/><text fill="#000000" font-family="sans-serif" font-size="13" lengthAdjust="spacing" textLength="104" x="732.5" y="1805.1436">user_ip, user_port</text><path d="M81,1825 L142,1825 L142,1833.3516 L132,1843.3516 L81,1843.3516 L81,1825 " fill="#EEEEEE" style="stroke:#000000;stroke-width:1.5;"/><rect fill="none" height="111.7578" style="stroke:#000000;stroke-width:1.5;" width="672.5" x="81" y="1825"/><text fill="#000000" font-family="sans-serif" font-size="13" font-weight="bold" lengthAdjust="spacing" textLength="16" x="96" y="1839.4951">alt</text><text fill="#000000" font-family="sans-serif" font-size="11" font-weight="bold" lengthAdjust="spacing" textLength="189" x="157" y="1838.4189">[not( net.user_ip.isUnspecified() )]</text><polygon fill="#181818" points="428.5,1878.0547,418.5,1882.0547,428.5,1886.0547,424.5,1882.0547" style="stroke:#181818;stroke-width:1.0;"/><line style="stroke:#181818;stroke-width:1.0;" x1="422.5" x2="714.5" y1="1882.0547" y2="1882.0547"/><text fill="#000000" font-family="sans-serif" font-size="13" lengthAdjust="spacing" textLength="146" x="434.5" y="1860.8467">[POST] .../SendMessage</text><text fill="#000000" font-family="sans-serif" font-size="13" lengthAdjust="spacing" textLength="243" x="434.5" y="1877.1982">source=3103&amp;destination=3265&amp;body=Hi!</text><polygon fill="#181818" points="119.5,1924.7578,109.5,1928.7578,119.5,1932.7578,115.5,1928.7578" style="stroke:#181818;stroke-width:1.0;"/><line style="stroke:#181818;stroke-width:1.0;" x1="113.5" x2="406.5" y1="1928.7578" y2="1928.7578"/><text fill="#000000" font-family="sans-serif" font-size="13" lengthAdjust="spacing" textLength="132" x="125.5" y="1907.5498">New message appears</text><text fill="#000000" font-family="sans-serif" font-size="13" lengthAdjust="spacing" textLength="270" x="125.5" y="1923.9014">(if current chatting session is with user "other")</text><rect fill="#EEEEEE" height="3" style="stroke:#EEEEEE;stroke-width:1.0;" width="1728.5" x="0" y="1964.9336"/><line style="stroke:#000000;stroke-width:1.0;" x1="0" x2="1728.5" y1="1964.9336" y2="1964.9336"/><line style="stroke:#000000;stroke-width:1.0;" x1="0" x2="1728.5" y1="1967.9336" y2="1967.9336"/><rect fill="#EEEEEE" height="24.3516" style="stroke:#000000;stroke-width:2.0;" width="206" x="761.25" y="1953.7578"/><text fill="#000000" font-family="sans-serif" font-size="13" font-weight="bold" lengthAdjust="spacing" textLength="188" x="767.25" y="1971.2529">User disconnects from service</text><polygon fill="#181818" points="395.5,2006.4609,405.5,2010.4609,395.5,2014.4609,399.5,2010.4609" style="stroke:#181818;stroke-width:1.0;"/><line style="stroke:#181818;stroke-width:1.0;" x1="108.5" x2="401.5" y1="2010.4609" y2="2010.4609"/><text fill="#000000" font-family="sans-serif" font-size="13" lengthAdjust="spacing" textLength="195" x="115.5" y="2005.6045">Disconnects from frontend service</text><polygon fill="#181818" points="698.5,2036.8125,708.5,2040.8125,698.5,2044.8125,702.5,2040.8125" style="stroke:#181818;stroke-width:1.0;"/><line style="stroke:#181818;stroke-width:1.0;" x1="417.5" x2="704.5" y1="2040.8125" y2="2040.8125"/><text fill="#000000" font-family="sans-serif" font-size="13" lengthAdjust="spacing" textLength="146" x="424.5" y="2035.9561">[GET] .../Logout?id=3265</text><line style="stroke:#181818;stroke-width:1.0;" x1="417.5" x2="459.5" y1="2076.1641" y2="2076.1641"/><line style="stroke:#181818;stroke-width:1.0;" x1="459.5" x2="459.5" y1="2076.1641" y2="2089.1641"/><line style="stroke:#181818;stroke-width:1.0;" x1="412.5" x2="459.5" y1="2089.1641" y2="2089.1641"/><polygon fill="#181818" points="422.5,2085.1641,412.5,2089.1641,422.5,2093.1641,418.5,2089.1641" style="stroke:#181818;stroke-width:1.0;"/><text fill="#000000" font-family="sans-serif" font-size="13" lengthAdjust="spacing" textLength="72" x="424.5" y="2071.3076">Disconnects</text><polygon fill="#181818" points="955.5,2110.5156,965.5,2114.5156,955.5,2118.5156,959.5,2114.5156" style="stroke:#181818;stroke-width:1.0;"/><line style="stroke:#181818;stroke-width:1.0;" x1="720.5" x2="961.5" y1="2114.5156" y2="2114.5156"/><text fill="#000000" font-family="sans-serif" font-size="13" lengthAdjust="spacing" textLength="64" x="727.5" y="2109.6592">Logout(w,r)</text><polygon fill="#181818" points="1619.5,2140.8672,1629.5,2144.8672,1619.5,2148.8672,1623.5,2144.8672" style="stroke:#181818;stroke-width:1.0;"/><line style="stroke:#181818;stroke-width:1.0;" x1="977.5" x2="1625.5" y1="2144.8672" y2="2144.8672"/><text fill="#000000" font-family="sans-serif" font-size="13" lengthAdjust="spacing" textLength="376" x="984.5" y="2140.0107">UPDATE users SET ip = 0.0.0.0 and port = 0 WHERE id = 3265;</text><!--SRC=[vLRVRzis47xNNt7LGsUlZfSswnvIU44IgucBrF4aUyDG1mDjCJO1XHH8AcbHx7_V7IdBaktOsSEUPWEsHDvtFpyUZysjqZ0nN0S1Sy_XG1vTQFM4In1pNFkKmBrMqdAPXi2CVmbcwYk4SPICxuiC5WhEHuCm0CYPjc8kSYOjG9Xm_SYrGndtk24HJgp8X1NSE9a2tyoco4WPkz0y-Uq6KcRPZ1dkXDDP4A1BW8u4WLIMWq83BfIEzn5EOOZhf_2nT1z4wGUYlW5ppsBEWNIce6GLRyjxUsH4oe4XS9u9BgrxRq_bU5ag8Z0-edNGFDVSe11gMdBDoKKcmUTqnkUiC2Xh4QSo3dcXSqKBPYgjWbohHp9bbxmq1RXARuZIFnYO-OAGQGvx2bJQqtoXLP6lihupZgcyA2mWTgvI5mN_okUsu0sX3hgBNeDPgYB3h3LSP6cA8HjSOjQdLbeN3idqBvn1IWszLWvwZrROeDTp5KCdf4JpXk9UPRRN2zpUqQzbFT-ymP9UUaaX5oJRq8kWgRnSChsWtKV1dvmFPPAGM6GkvWjXBAh5F6KA9I5VOlt96W3BBFush3gZ5OXPonzoIzKD9NlWn7aetKE4Zyv1lbn5upleThi_wH9yHe0U_JWGVSfi8D9n7nh6MayTtQv4wUE5AkbJ47a7SgKjz631xM3KUWwGpaWt8WR398h7-3U-TUGoq2AFEfMgDln-VZE9y13u0EixSJIUnCF1y0f4-g5X2FLNRXqTePsJTx-yF-1A4jr4bsFu4Jx6jv-zCmUKainV6IOdsDAwoYI9tL1POsvo9Gt_Jfvqrj2_WsRYozeHxikdv7PuTnXUbTiJnPd4BL3te93isiU2WZmpV2UVd8awcGW1W_uwRVifvV1d8kqrqhoJJKxqFw7IPDG_7qSbYv9eZ2eGNDFZ_lwuZk88-OBlvEo7gVm_55wc0JMRnE9L1dDiaAvX6Mnv0k-P9s6NlkIXmuNOVQ0YIhFV9Jp3TjUKnkq78AUy9apkoTlZanVmnYix8sMEEg-Tmbw5VfP5LznYuyLrmon6i8TFpnpl1moTBJZUTvuGHXMQUhpp7Cw7VKYvmIGvzILNfl8shWdYoYv1n9DWFuhXua-mue73-MLoW51qV-xdKZrSpmMor2dZU26ZNgXa1w_go6s-1DN56T9oI7TlQbP9felnnUmYN7ZDiqo5cxZd2JMwJIf6oVIpDpkLlbQUMRKgENwzdgdqMyyPsa6rykdKrQz7FzsXUcgrzxEoPdm_8pSklXKPST1p7dVgdEe0UTfndgmlmtNnocHr_Fw_k1BV_xoVSL9aUmXrFHwFSB3ppGcCPROmT_3k-2rSQivmxDpDeo4EGIjQi3pd3FlJcZmbFvhi2Q_5gneNFC7SUBHP2d_MgwDUjVvrNzzg_q4pFVNuNQib7Uw155N2E9VHADa2oMstbEiACv4cvtDnBtZQQiCkijIeVeYqnD46QOd5dhJYLQcwcU2TsPtAbhY7UQ4rpSXRhH_dvAtJt8RAyzN5uVIdmbHpiMlvwyaOPzdcR7mA_KtfpTauE3XJgC8sXeeAK2DYpKomR-X0NSqpkN4UTqyFnrttTNDxEKKSRtFe7m00]--></g></svg>