<?xml version="1.0" encoding="UTF-8" standalone="no"?><svg xmlns="http://www.w3.org/2000/svg" xmlns:xlink="http://www.w3.org/1999/xlink" contentStyleType="text/css" height="2103px" preserveAspectRatio="none" style="width:1447px;height:2103px;background:#FFFFFF;" version="1.1" viewBox="0 0 1447 2103" width="1447px" zoomAndPan="magnify"><defs/><g><rect fill="#DDDDDD" height="2091.3672" style="stroke:#181818;stroke-width:0.5;" width="829" x="595.5" y="6"/><text fill="#000000" font-family="sans-serif" font-size="13" font-weight="bold" lengthAdjust="spacing" textLength="96" x="962" y="19.4951">RESTful go API</text><rect fill="#FFFFFF" height="1832.0938" style="stroke:#181818;stroke-width:1.0;" width="10" x="331.5" y="175.6641"/><rect fill="#FFFFFF" height="272.1641" style="stroke:#181818;stroke-width:1.0;" width="10" x="336.5" y="275.7188"/><rect fill="#FFFFFF" height="272.1641" style="stroke:#181818;stroke-width:1.0;" width="10" x="336.5" y="580.2344"/><rect fill="#FFFFFF" height="261.5156" style="stroke:#181818;stroke-width:1.0;" width="10" x="336.5" y="934.1016"/><rect fill="#FFFFFF" height="288.5156" style="stroke:#181818;stroke-width:1.0;" width="10" x="336.5" y="1270.3203"/><rect fill="#FFFFFF" height="195.1094" style="stroke:#181818;stroke-width:1.0;" width="10" x="336.5" y="1735.9453"/><rect fill="#FFFFFF" height="211.4609" style="stroke:#181818;stroke-width:1.0;" width="10" x="622.5" y="306.0703"/><rect fill="#FFFFFF" height="211.4609" style="stroke:#181818;stroke-width:1.0;" width="10" x="622.5" y="610.5859"/><rect fill="#FFFFFF" height="200.8125" style="stroke:#181818;stroke-width:1.0;" width="10" x="622.5" y="964.4531"/><rect fill="#FFFFFF" height="211.4609" style="stroke:#181818;stroke-width:1.0;" width="10" x="622.5" y="1317.0234"/><rect fill="#FFFFFF" height="113.0547" style="stroke:#181818;stroke-width:1.0;" width="10" x="622.5" y="1894.7031"/><rect fill="#FFFFFF" height="150.7578" style="stroke:#181818;stroke-width:1.0;" width="10" x="771.5" y="336.4219"/><rect fill="#FFFFFF" height="150.7578" style="stroke:#181818;stroke-width:1.0;" width="10" x="771.5" y="640.9375"/><rect fill="#FFFFFF" height="140.1094" style="stroke:#181818;stroke-width:1.0;" width="10" x="771.5" y="994.8047"/><rect fill="#FFFFFF" height="107.4063" style="stroke:#181818;stroke-width:1.0;" width="10" x="771.5" y="1390.7266"/><rect fill="#FFFFFF" height="39.3516" style="stroke:#181818;stroke-width:1.0;" width="10" x="771.5" y="1968.4063"/><rect fill="#FFFFFF" height="30.3516" style="stroke:#181818;stroke-width:1.0;" width="10" x="1338.5" y="426.4766"/><rect fill="#FFFFFF" height="30.3516" style="stroke:#181818;stroke-width:1.0;" width="10" x="1338.5" y="730.9922"/><rect fill="#FFFFFF" height="30.3516" style="stroke:#181818;stroke-width:1.0;" width="10" x="1338.5" y="1074.2109"/><rect fill="#FFFFFF" height="30.3516" style="stroke:#181818;stroke-width:1.0;" width="10" x="1338.5" y="1633.5391"/><rect fill="none" height="625.3828" style="stroke:#000000;stroke-width:1.5;" width="1420.5" x="10" y="235.0156"/><rect fill="none" height="111.7578" style="stroke:#000000;stroke-width:1.5;" width="655.5" x="10" y="1678.8906"/><line style="stroke:#181818;stroke-width:0.5;stroke-dasharray:5.0,5.0;" x1="37" x2="37" y1="82.6094" y2="2016.7578"/><line style="stroke:#181818;stroke-width:0.5;stroke-dasharray:5.0,5.0;" x1="336.5" x2="336.5" y1="82.6094" y2="2016.7578"/><line style="stroke:#181818;stroke-width:0.5;stroke-dasharray:5.0,5.0;" x1="627.5" x2="627.5" y1="82.6094" y2="2016.7578"/><line style="stroke:#181818;stroke-width:0.5;stroke-dasharray:5.0,5.0;" x1="776.5" x2="776.5" y1="82.6094" y2="2016.7578"/><line style="stroke:#181818;stroke-width:0.5;stroke-dasharray:5.0,5.0;" x1="1343.5" x2="1343.5" y1="82.6094" y2="2016.7578"/><text fill="#000000" font-family="sans-serif" font-size="14" lengthAdjust="spacing" textLength="29" x="20" y="79.5332">User</text><ellipse cx="37.5" cy="13.5" fill="#E2E2F0" rx="8" ry="8" style="stroke:#181818;stroke-width:0.5;"/><path d="M37.5,21.5 L37.5,48.5 M24.5,29.5 L50.5,29.5 M37.5,48.5 L24.5,63.5 M37.5,48.5 L50.5,63.5 " fill="none" style="stroke:#181818;stroke-width:0.5;"/><text fill="#000000" font-family="sans-serif" font-size="14" lengthAdjust="spacing" textLength="29" x="20" y="2030.291">User</text><ellipse cx="37.5" cy="2041.8672" fill="#E2E2F0" rx="8" ry="8" style="stroke:#181818;stroke-width:0.5;"/><path d="M37.5,2049.8672 L37.5,2076.8672 M24.5,2057.8672 L50.5,2057.8672 M37.5,2076.8672 L24.5,2091.8672 M37.5,2076.8672 L50.5,2091.8672 " fill="none" style="stroke:#181818;stroke-width:0.5;"/><text fill="#000000" font-family="sans-serif" font-size="14" lengthAdjust="spacing" textLength="180" x="243.5" y="79.5332">In-Browser ReactJS frontend</text><ellipse cx="336.5" cy="13.5" fill="#E2E2F0" rx="8" ry="8" style="stroke:#181818;stroke-width:0.5;"/><path d="M336.5,21.5 L336.5,48.5 M323.5,29.5 L349.5,29.5 M336.5,48.5 L323.5,63.5 M336.5,48.5 L349.5,63.5 " fill="none" style="stroke:#181818;stroke-width:0.5;"/><text fill="#000000" font-family="sans-serif" font-size="14" lengthAdjust="spacing" textLength="180" x="243.5" y="2030.291">In-Browser ReactJS frontend</text><ellipse cx="336.5" cy="2041.8672" fill="#E2E2F0" rx="8" ry="8" style="stroke:#181818;stroke-width:0.5;"/><path d="M336.5,2049.8672 L336.5,2076.8672 M323.5,2057.8672 L349.5,2057.8672 M336.5,2076.8672 L323.5,2091.8672 M336.5,2076.8672 L349.5,2091.8672 " fill="none" style="stroke:#181818;stroke-width:0.5;"/><rect fill="#E2E2F0" height="31.6094" rx="2.5" ry="2.5" style="stroke:#181818;stroke-width:0.5;" width="56" x="599.5" y="50"/><text fill="#000000" font-family="sans-serif" font-size="14" lengthAdjust="spacing" textLength="42" x="606.5" y="71.5332">Server</text><rect fill="#E2E2F0" height="31.6094" rx="2.5" ry="2.5" style="stroke:#181818;stroke-width:0.5;" width="56" x="599.5" y="2015.7578"/><text fill="#000000" font-family="sans-serif" font-size="14" lengthAdjust="spacing" textLength="42" x="606.5" y="2037.291">Server</text><rect fill="#E2E2F0" height="31.6094" rx="2.5" ry="2.5" style="stroke:#181818;stroke-width:0.5;" width="58" x="747.5" y="50"/><text fill="#000000" font-family="sans-serif" font-size="14" lengthAdjust="spacing" textLength="44" x="754.5" y="71.5332">Utilities</text><rect fill="#E2E2F0" height="31.6094" rx="2.5" ry="2.5" style="stroke:#181818;stroke-width:0.5;" width="58" x="747.5" y="2015.7578"/><text fill="#000000" font-family="sans-serif" font-size="14" lengthAdjust="spacing" textLength="44" x="754.5" y="2037.291">Utilities</text><rect fill="#E2E2F0" height="31.6094" rx="2.5" ry="2.5" style="stroke:#181818;stroke-width:0.5;" width="154" x="1266.5" y="50"/><text fill="#000000" font-family="sans-serif" font-size="14" lengthAdjust="spacing" textLength="140" x="1273.5" y="71.5332">PostgreSQL database</text><rect fill="#E2E2F0" height="31.6094" rx="2.5" ry="2.5" style="stroke:#181818;stroke-width:0.5;" width="154" x="1266.5" y="2015.7578"/><text fill="#000000" font-family="sans-serif" font-size="14" lengthAdjust="spacing" textLength="140" x="1273.5" y="2037.291">PostgreSQL database</text><rect fill="#FFFFFF" height="1832.0938" style="stroke:#181818;stroke-width:1.0;" width="10" x="331.5" y="175.6641"/><rect fill="#FFFFFF" height="272.1641" style="stroke:#181818;stroke-width:1.0;" width="10" x="336.5" y="275.7188"/><rect fill="#FFFFFF" height="272.1641" style="stroke:#181818;stroke-width:1.0;" width="10" x="336.5" y="580.2344"/><rect fill="#FFFFFF" height="261.5156" style="stroke:#181818;stroke-width:1.0;" width="10" x="336.5" y="934.1016"/><rect fill="#FFFFFF" height="288.5156" style="stroke:#181818;stroke-width:1.0;" width="10" x="336.5" y="1270.3203"/><rect fill="#FFFFFF" height="195.1094" style="stroke:#181818;stroke-width:1.0;" width="10" x="336.5" y="1735.9453"/><rect fill="#FFFFFF" height="211.4609" style="stroke:#181818;stroke-width:1.0;" width="10" x="622.5" y="306.0703"/><rect fill="#FFFFFF" height="211.4609" style="stroke:#181818;stroke-width:1.0;" width="10" x="622.5" y="610.5859"/><rect fill="#FFFFFF" height="200.8125" style="stroke:#181818;stroke-width:1.0;" width="10" x="622.5" y="964.4531"/><rect fill="#FFFFFF" height="211.4609" style="stroke:#181818;stroke-width:1.0;" width="10" x="622.5" y="1317.0234"/><rect fill="#FFFFFF" height="113.0547" style="stroke:#181818;stroke-width:1.0;" width="10" x="622.5" y="1894.7031"/><rect fill="#FFFFFF" height="150.7578" style="stroke:#181818;stroke-width:1.0;" width="10" x="771.5" y="336.4219"/><rect fill="#FFFFFF" height="150.7578" style="stroke:#181818;stroke-width:1.0;" width="10" x="771.5" y="640.9375"/><rect fill="#FFFFFF" height="140.1094" style="stroke:#181818;stroke-width:1.0;" width="10" x="771.5" y="994.8047"/><rect fill="#FFFFFF" height="107.4063" style="stroke:#181818;stroke-width:1.0;" width="10" x="771.5" y="1390.7266"/><rect fill="#FFFFFF" height="39.3516" style="stroke:#181818;stroke-width:1.0;" width="10" x="771.5" y="1968.4063"/><rect fill="#FFFFFF" height="30.3516" style="stroke:#181818;stroke-width:1.0;" width="10" x="1338.5" y="426.4766"/><rect fill="#FFFFFF" height="30.3516" style="stroke:#181818;stroke-width:1.0;" width="10" x="1338.5" y="730.9922"/><rect fill="#FFFFFF" height="30.3516" style="stroke:#181818;stroke-width:1.0;" width="10" x="1338.5" y="1074.2109"/><rect fill="#FFFFFF" height="30.3516" style="stroke:#181818;stroke-width:1.0;" width="10" x="1338.5" y="1633.5391"/><rect fill="#EEEEEE" height="3" style="stroke:#EEEEEE;stroke-width:1.0;" width="1440.5" x="0" y="113.7852"/><line style="stroke:#000000;stroke-width:1.0;" x1="0" x2="1440.5" y1="113.7852" y2="113.7852"/><line style="stroke:#000000;stroke-width:1.0;" x1="0" x2="1440.5" y1="116.7852" y2="116.7852"/><rect fill="#EEEEEE" height="24.3516" style="stroke:#000000;stroke-width:2.0;" width="171" x="634.75" y="102.6094"/><text fill="#000000" font-family="sans-serif" font-size="13" font-weight="bold" lengthAdjust="spacing" textLength="153" x="640.75" y="120.1045">User connects to service</text><polygon fill="#181818" points="319.5,171.6641,329.5,175.6641,319.5,179.6641,323.5,175.6641" style="stroke:#181818;stroke-width:1.0;"/><line style="stroke:#181818;stroke-width:1.0;" x1="37.5" x2="325.5" y1="175.6641" y2="175.6641"/><text fill="#000000" font-family="sans-serif" font-size="13" lengthAdjust="spacing" textLength="174" x="44.5" y="154.4561">Connecting to frontend service</text><text fill="#000000" font-family="sans-serif" font-size="13" lengthAdjust="spacing" textLength="157" x="44.5" y="170.8076">Charging view and ReactJS</text><rect fill="#EEEEEE" height="3" style="stroke:#EEEEEE;stroke-width:1.0;" width="1440.5" x="0" y="204.8398"/><line style="stroke:#000000;stroke-width:1.0;" x1="0" x2="1440.5" y1="204.8398" y2="204.8398"/><line style="stroke:#000000;stroke-width:1.0;" x1="0" x2="1440.5" y1="207.8398" y2="207.8398"/><rect fill="#EEEEEE" height="24.3516" style="stroke:#000000;stroke-width:2.0;" width="165" x="637.75" y="193.6641"/><text fill="#000000" font-family="sans-serif" font-size="13" font-weight="bold" lengthAdjust="spacing" textLength="147" x="643.75" y="211.1592">Register or login phase</text><path d="M10,235.0156 L71,235.0156 L71,243.3672 L61,253.3672 L10,253.3672 L10,235.0156 " fill="#EEEEEE" style="stroke:#000000;stroke-width:1.5;"/><rect fill="none" height="625.3828" style="stroke:#000000;stroke-width:1.5;" width="1420.5" x="10" y="235.0156"/><text fill="#000000" font-family="sans-serif" font-size="13" font-weight="bold" lengthAdjust="spacing" textLength="16" x="25" y="249.5107">alt</text><polygon fill="#181818" points="324.5,271.7188,334.5,275.7188,324.5,279.7188,328.5,275.7188" style="stroke:#181818;stroke-width:1.0;"/><line style="stroke:#181818;stroke-width:1.0;" x1="37.5" x2="330.5" y1="275.7188" y2="275.7188"/><text fill="#000000" font-family="sans-serif" font-size="13" lengthAdjust="spacing" textLength="160" x="44.5" y="270.8623">Register attempt as "name"</text><polygon fill="#181818" points="610.5,302.0703,620.5,306.0703,610.5,310.0703,614.5,306.0703" style="stroke:#181818;stroke-width:1.0;"/><line style="stroke:#181818;stroke-width:1.0;" x1="346.5" x2="616.5" y1="306.0703" y2="306.0703"/><text fill="#000000" font-family="sans-serif" font-size="13" lengthAdjust="spacing" textLength="183" x="353.5" y="301.2139">[GET] .../getNewUserID?=name</text><polygon fill="#181818" points="759.5,332.4219,769.5,336.4219,759.5,340.4219,763.5,336.4219" style="stroke:#181818;stroke-width:1.0;"/><line style="stroke:#181818;stroke-width:1.0;" x1="632.5" x2="765.5" y1="336.4219" y2="336.4219"/><text fill="#000000" font-family="sans-serif" font-size="13" lengthAdjust="spacing" textLength="73" x="639.5" y="331.5654">Register(w,r)</text><line style="stroke:#181818;stroke-width:1.0;" x1="781.5" x2="823.5" y1="366.7734" y2="366.7734"/><line style="stroke:#181818;stroke-width:1.0;" x1="823.5" x2="823.5" y1="366.7734" y2="379.7734"/><line style="stroke:#181818;stroke-width:1.0;" x1="782.5" x2="823.5" y1="379.7734" y2="379.7734"/><polygon fill="#181818" points="792.5,375.7734,782.5,379.7734,792.5,383.7734,788.5,379.7734" style="stroke:#181818;stroke-width:1.0;"/><text fill="#000000" font-family="sans-serif" font-size="13" lengthAdjust="spacing" textLength="98" x="788.5" y="361.917">ip, port = getIP(r)</text><polygon fill="#181818" points="1326.5,422.4766,1336.5,426.4766,1326.5,430.4766,1330.5,426.4766" style="stroke:#181818;stroke-width:1.0;"/><line style="stroke:#181818;stroke-width:1.0;" x1="781.5" x2="1332.5" y1="426.4766" y2="426.4766"/><text fill="#000000" font-family="sans-serif" font-size="13" lengthAdjust="spacing" textLength="369" x="788.5" y="405.2686">INSERT INTO users (name, status) VALUES ("name", ip, port) ;</text><text fill="#000000" font-family="sans-serif" font-size="13" lengthAdjust="spacing" textLength="317" x="792.5" y="421.6201">SELECT currval(pg_get_serial_sequence("users","id"));</text><polygon fill="#181818" points="792.5,452.8281,782.5,456.8281,792.5,460.8281,788.5,456.8281" style="stroke:#181818;stroke-width:1.0;"/><line style="stroke:#181818;stroke-width:1.0;" x1="786.5" x2="1342.5" y1="456.8281" y2="456.8281"/><text fill="#000000" font-family="sans-serif" font-size="13" lengthAdjust="spacing" textLength="28" x="798.5" y="451.9717">3265</text><polygon fill="#181818" points="643.5,483.1797,633.5,487.1797,643.5,491.1797,639.5,487.1797" style="stroke:#181818;stroke-width:1.0;"/><line style="stroke:#181818;stroke-width:1.0;" x1="637.5" x2="775.5" y1="487.1797" y2="487.1797"/><text fill="#000000" font-family="sans-serif" font-size="13" lengthAdjust="spacing" textLength="38" x="649.5" y="482.3232">"3265"</text><polygon fill="#181818" points="357.5,513.5313,347.5,517.5313,357.5,521.5313,353.5,517.5313" style="stroke:#181818;stroke-width:1.0;"/><line style="stroke:#181818;stroke-width:1.0;" x1="351.5" x2="626.5" y1="517.5313" y2="517.5313"/><text fill="#000000" font-family="sans-serif" font-size="13" lengthAdjust="spacing" textLength="38" x="363.5" y="512.6748">"3265"</text><polygon fill="#181818" points="48.5,543.8828,38.5,547.8828,48.5,551.8828,44.5,547.8828" style="stroke:#181818;stroke-width:1.0;"/><line style="stroke:#181818;stroke-width:1.0;" x1="42.5" x2="330.5" y1="547.8828" y2="547.8828"/><text fill="#000000" font-family="sans-serif" font-size="13" lengthAdjust="spacing" textLength="56" x="54.5" y="543.0264">Logged in</text><line style="stroke:#000000;stroke-width:1.0;stroke-dasharray:2.0,2.0;" x1="10" x2="1430.5" y1="556.8828" y2="556.8828"/><polygon fill="#181818" points="324.5,576.2344,334.5,580.2344,324.5,584.2344,328.5,580.2344" style="stroke:#181818;stroke-width:1.0;"/><line style="stroke:#181818;stroke-width:1.0;" x1="37.5" x2="330.5" y1="580.2344" y2="580.2344"/><text fill="#000000" font-family="sans-serif" font-size="13" lengthAdjust="spacing" textLength="174" x="44.5" y="575.3779">Login attempt as user ID 3265</text><polygon fill="#181818" points="610.5,606.5859,620.5,610.5859,610.5,614.5859,614.5,610.5859" style="stroke:#181818;stroke-width:1.0;"/><line style="stroke:#181818;stroke-width:1.0;" x1="346.5" x2="616.5" y1="610.5859" y2="610.5859"/><text fill="#000000" font-family="sans-serif" font-size="13" lengthAdjust="spacing" textLength="124" x="353.5" y="605.7295">[GET] .../login?=3265</text><polygon fill="#181818" points="759.5,636.9375,769.5,640.9375,759.5,644.9375,763.5,640.9375" style="stroke:#181818;stroke-width:1.0;"/><line style="stroke:#181818;stroke-width:1.0;" x1="632.5" x2="765.5" y1="640.9375" y2="640.9375"/><text fill="#000000" font-family="sans-serif" font-size="13" lengthAdjust="spacing" textLength="56" x="639.5" y="636.0811">Login(w,r)</text><line style="stroke:#181818;stroke-width:1.0;" x1="781.5" x2="823.5" y1="671.2891" y2="671.2891"/><line style="stroke:#181818;stroke-width:1.0;" x1="823.5" x2="823.5" y1="671.2891" y2="684.2891"/><line style="stroke:#181818;stroke-width:1.0;" x1="782.5" x2="823.5" y1="684.2891" y2="684.2891"/><polygon fill="#181818" points="792.5,680.2891,782.5,684.2891,792.5,688.2891,788.5,684.2891" style="stroke:#181818;stroke-width:1.0;"/><text fill="#000000" font-family="sans-serif" font-size="13" lengthAdjust="spacing" textLength="98" x="788.5" y="666.4326">ip, port = getIP(r)</text><polygon fill="#181818" points="1326.5,726.9922,1336.5,730.9922,1326.5,734.9922,1330.5,730.9922" style="stroke:#181818;stroke-width:1.0;"/><line style="stroke:#181818;stroke-width:1.0;" x1="781.5" x2="1332.5" y1="730.9922" y2="730.9922"/><text fill="#000000" font-family="sans-serif" font-size="13" lengthAdjust="spacing" textLength="340" x="788.5" y="709.7842">UPDATE users SET ip = ip, port = port WHERE id = 3265;</text><text fill="#000000" font-family="sans-serif" font-size="13" lengthAdjust="spacing" textLength="141" x="792.5" y="726.1357">SELECT * FROM users;</text><polygon fill="#181818" points="792.5,757.3438,782.5,761.3438,792.5,765.3438,788.5,761.3438" style="stroke:#181818;stroke-width:1.0;"/><line style="stroke:#181818;stroke-width:1.0;" x1="786.5" x2="1342.5" y1="761.3438" y2="761.3438"/><text fill="#000000" font-family="sans-serif" font-size="13" lengthAdjust="spacing" textLength="49" x="798.5" y="756.4873">user_list</text><polygon fill="#181818" points="643.5,787.6953,633.5,791.6953,643.5,795.6953,639.5,791.6953" style="stroke:#181818;stroke-width:1.0;"/><line style="stroke:#181818;stroke-width:1.0;" x1="637.5" x2="775.5" y1="791.6953" y2="791.6953"/><text fill="#000000" font-family="sans-serif" font-size="13" lengthAdjust="spacing" textLength="49" x="649.5" y="786.8389">user_list</text><polygon fill="#181818" points="357.5,818.0469,347.5,822.0469,357.5,826.0469,353.5,822.0469" style="stroke:#181818;stroke-width:1.0;"/><line style="stroke:#181818;stroke-width:1.0;" x1="351.5" x2="626.5" y1="822.0469" y2="822.0469"/><text fill="#000000" font-family="sans-serif" font-size="13" lengthAdjust="spacing" textLength="60" x="363.5" y="817.1904">users.json</text><polygon fill="#181818" points="48.5,848.3984,38.5,852.3984,48.5,856.3984,44.5,852.3984" style="stroke:#181818;stroke-width:1.0;"/><line style="stroke:#181818;stroke-width:1.0;" x1="42.5" x2="330.5" y1="852.3984" y2="852.3984"/><text fill="#000000" font-family="sans-serif" font-size="13" lengthAdjust="spacing" textLength="104" x="54.5" y="847.542">List of other users</text><rect fill="#EEEEEE" height="3" style="stroke:#EEEEEE;stroke-width:1.0;" width="1440.5" x="0" y="888.5742"/><line style="stroke:#000000;stroke-width:1.0;" x1="0" x2="1440.5" y1="888.5742" y2="888.5742"/><line style="stroke:#000000;stroke-width:1.0;" x1="0" x2="1440.5" y1="891.5742" y2="891.5742"/><rect fill="#EEEEEE" height="24.3516" style="stroke:#000000;stroke-width:2.0;" width="264" x="588.25" y="877.3984"/><text fill="#000000" font-family="sans-serif" font-size="13" font-weight="bold" lengthAdjust="spacing" textLength="246" x="594.25" y="894.8936">Start chatting session with user "other"</text><polygon fill="#181818" points="324.5,930.1016,334.5,934.1016,324.5,938.1016,328.5,934.1016" style="stroke:#181818;stroke-width:1.0;"/><line style="stroke:#181818;stroke-width:1.0;stroke-dasharray:2.0,2.0;" x1="37.5" x2="330.5" y1="934.1016" y2="934.1016"/><text fill="#000000" font-family="sans-serif" font-size="13" lengthAdjust="spacing" textLength="232" x="44.5" y="929.2451">Select user "other" from list with id 3103</text><polygon fill="#181818" points="610.5,960.4531,620.5,964.4531,610.5,968.4531,614.5,964.4531" style="stroke:#181818;stroke-width:1.0;"/><line style="stroke:#181818;stroke-width:1.0;" x1="346.5" x2="616.5" y1="964.4531" y2="964.4531"/><text fill="#000000" font-family="sans-serif" font-size="13" lengthAdjust="spacing" textLength="132" x="353.5" y="959.5967">[GET] .../select?=3103</text><polygon fill="#181818" points="759.5,990.8047,769.5,994.8047,759.5,998.8047,763.5,994.8047" style="stroke:#181818;stroke-width:1.0;"/><line style="stroke:#181818;stroke-width:1.0;" x1="632.5" x2="765.5" y1="994.8047" y2="994.8047"/><text fill="#000000" font-family="sans-serif" font-size="13" lengthAdjust="spacing" textLength="120" x="639.5" y="989.9482">GetConversation(w,r)</text><polygon fill="#181818" points="1326.5,1070.2109,1336.5,1074.2109,1326.5,1078.2109,1330.5,1074.2109" style="stroke:#181818;stroke-width:1.0;"/><line style="stroke:#181818;stroke-width:1.0;" x1="781.5" x2="1332.5" y1="1074.2109" y2="1074.2109"/><text fill="#000000" font-family="sans-serif" font-size="13" lengthAdjust="spacing" textLength="165" x="788.5" y="1020.2998">SELECT * FROM messages</text><text fill="#000000" font-family="sans-serif" font-size="13" lengthAdjust="spacing" textLength="278" x="788.5" y="1036.6514">WHERE source = 3103 AND destination = 3265</text><text fill="#000000" font-family="sans-serif" font-size="13" lengthAdjust="spacing" textLength="248" x="788.5" y="1053.0029">OR source = 3265 AND destination = 3103</text><text fill="#000000" font-family="sans-serif" font-size="13" lengthAdjust="spacing" textLength="132" x="788.5" y="1069.3545">ORDER BY time ACS;</text><polygon fill="#181818" points="792.5,1100.5625,782.5,1104.5625,792.5,1108.5625,788.5,1104.5625" style="stroke:#181818;stroke-width:1.0;"/><line style="stroke:#181818;stroke-width:1.0;" x1="786.5" x2="1342.5" y1="1104.5625" y2="1104.5625"/><text fill="#000000" font-family="sans-serif" font-size="13" lengthAdjust="spacing" textLength="77" x="798.5" y="1099.7061">message_list</text><polygon fill="#181818" points="643.5,1130.9141,633.5,1134.9141,643.5,1138.9141,639.5,1134.9141" style="stroke:#181818;stroke-width:1.0;"/><line style="stroke:#181818;stroke-width:1.0;" x1="637.5" x2="775.5" y1="1134.9141" y2="1134.9141"/><text fill="#000000" font-family="sans-serif" font-size="13" lengthAdjust="spacing" textLength="77" x="649.5" y="1130.0576">message_list</text><polygon fill="#181818" points="357.5,1161.2656,347.5,1165.2656,357.5,1169.2656,353.5,1165.2656" style="stroke:#181818;stroke-width:1.0;"/><line style="stroke:#181818;stroke-width:1.0;" x1="351.5" x2="626.5" y1="1165.2656" y2="1165.2656"/><text fill="#000000" font-family="sans-serif" font-size="13" lengthAdjust="spacing" textLength="100" x="363.5" y="1160.4092">conversation.json</text><polygon fill="#181818" points="48.5,1191.6172,38.5,1195.6172,48.5,1199.6172,44.5,1195.6172" style="stroke:#181818;stroke-width:1.0;"/><line style="stroke:#181818;stroke-width:1.0;" x1="42.5" x2="330.5" y1="1195.6172" y2="1195.6172"/><text fill="#000000" font-family="sans-serif" font-size="13" lengthAdjust="spacing" textLength="173" x="54.5" y="1190.7607">Conversation with user "other"</text><rect fill="#EEEEEE" height="3" style="stroke:#EEEEEE;stroke-width:1.0;" width="1440.5" x="0" y="1224.793"/><line style="stroke:#000000;stroke-width:1.0;" x1="0" x2="1440.5" y1="1224.793" y2="1224.793"/><line style="stroke:#000000;stroke-width:1.0;" x1="0" x2="1440.5" y1="1227.793" y2="1227.793"/><rect fill="#EEEEEE" height="24.3516" style="stroke:#000000;stroke-width:2.0;" width="285" x="577.75" y="1213.6172"/><text fill="#000000" font-family="sans-serif" font-size="13" font-weight="bold" lengthAdjust="spacing" textLength="267" x="583.75" y="1231.1123">User "user" sends message to user "other"</text><polygon fill="#181818" points="324.5,1266.3203,334.5,1270.3203,324.5,1274.3203,328.5,1270.3203" style="stroke:#181818;stroke-width:1.0;"/><line style="stroke:#181818;stroke-width:1.0;stroke-dasharray:2.0,2.0;" x1="37.5" x2="330.5" y1="1270.3203" y2="1270.3203"/><text fill="#000000" font-family="sans-serif" font-size="13" lengthAdjust="spacing" textLength="167" x="44.5" y="1265.4639">Sends "Hello" to user "other"</text><polygon fill="#181818" points="610.5,1313.0234,620.5,1317.0234,610.5,1321.0234,614.5,1317.0234" style="stroke:#181818;stroke-width:1.0;"/><line style="stroke:#181818;stroke-width:1.0;" x1="346.5" x2="616.5" y1="1317.0234" y2="1317.0234"/><text fill="#000000" font-family="sans-serif" font-size="13" lengthAdjust="spacing" textLength="146" x="353.5" y="1295.8154">[POST] .../SendMessage</text><text fill="#000000" font-family="sans-serif" font-size="13" lengthAdjust="spacing" textLength="257" x="353.5" y="1312.167">source=3265&amp;destination=3103&amp;body=Hello</text><line style="stroke:#181818;stroke-width:1.0;" x1="632.5" x2="674.5" y1="1347.375" y2="1347.375"/><line style="stroke:#181818;stroke-width:1.0;" x1="674.5" x2="674.5" y1="1347.375" y2="1360.375"/><line style="stroke:#181818;stroke-width:1.0;" x1="633.5" x2="674.5" y1="1360.375" y2="1360.375"/><polygon fill="#181818" points="643.5,1356.375,633.5,1360.375,643.5,1364.375,639.5,1360.375" style="stroke:#181818;stroke-width:1.0;"/><text fill="#000000" font-family="sans-serif" font-size="13" lengthAdjust="spacing" textLength="95" x="639.5" y="1342.5186">time=time.Now()</text><polygon fill="#181818" points="759.5,1386.7266,769.5,1390.7266,759.5,1394.7266,763.5,1390.7266" style="stroke:#181818;stroke-width:1.0;"/><line style="stroke:#181818;stroke-width:1.0;" x1="632.5" x2="765.5" y1="1390.7266" y2="1390.7266"/><text fill="#000000" font-family="sans-serif" font-size="13" lengthAdjust="spacing" textLength="108" x="639.5" y="1385.8701">SendMessage(w,r)</text><polygon fill="#181818" points="1331.5,1433.4297,1341.5,1437.4297,1331.5,1441.4297,1335.5,1437.4297" style="stroke:#181818;stroke-width:1.0;"/><line style="stroke:#181818;stroke-width:1.0;" x1="781.5" x2="1337.5" y1="1437.4297" y2="1437.4297"/><text fill="#000000" font-family="sans-serif" font-size="13" lengthAdjust="spacing" textLength="538" x="788.5" y="1416.2217">INSERT INTO messages (source, destination, body, time) VALUES (3265,3103,"Hello",time);</text><text fill="#000000" font-family="sans-serif" font-size="13" lengthAdjust="spacing" textLength="345" x="792.5" y="1432.5732">SELECT currval(pg_get_serial_sequence("messages","id"));</text><polygon fill="#181818" points="792.5,1463.7813,782.5,1467.7813,792.5,1471.7813,788.5,1467.7813" style="stroke:#181818;stroke-width:1.0;"/><line style="stroke:#181818;stroke-width:1.0;" x1="786.5" x2="1342.5" y1="1467.7813" y2="1467.7813"/><text fill="#000000" font-family="sans-serif" font-size="13" lengthAdjust="spacing" textLength="14" x="798.5" y="1462.9248">54</text><polygon fill="#181818" points="643.5,1494.1328,633.5,1498.1328,643.5,1502.1328,639.5,1498.1328" style="stroke:#181818;stroke-width:1.0;"/><line style="stroke:#181818;stroke-width:1.0;" x1="637.5" x2="775.5" y1="1498.1328" y2="1498.1328"/><text fill="#000000" font-family="sans-serif" font-size="13" lengthAdjust="spacing" textLength="22" x="649.5" y="1493.2764">true</text><polygon fill="#181818" points="357.5,1524.4844,347.5,1528.4844,357.5,1532.4844,353.5,1528.4844" style="stroke:#181818;stroke-width:1.0;"/><line style="stroke:#181818;stroke-width:1.0;" x1="351.5" x2="626.5" y1="1528.4844" y2="1528.4844"/><text fill="#000000" font-family="sans-serif" font-size="13" lengthAdjust="spacing" textLength="211" x="363.5" y="1523.6279">[HTTP response status] 201 Created</text><polygon fill="#181818" points="48.5,1554.8359,38.5,1558.8359,48.5,1562.8359,44.5,1558.8359" style="stroke:#181818;stroke-width:1.0;"/><line style="stroke:#181818;stroke-width:1.0;" x1="42.5" x2="330.5" y1="1558.8359" y2="1558.8359"/><text fill="#000000" font-family="sans-serif" font-size="13" lengthAdjust="spacing" textLength="132" x="54.5" y="1553.9795">New message appears</text><rect fill="#EEEEEE" height="3" style="stroke:#EEEEEE;stroke-width:1.0;" width="1440.5" x="0" y="1588.0117"/><line style="stroke:#000000;stroke-width:1.0;" x1="0" x2="1440.5" y1="1588.0117" y2="1588.0117"/><line style="stroke:#000000;stroke-width:1.0;" x1="0" x2="1440.5" y1="1591.0117" y2="1591.0117"/><rect fill="#EEEEEE" height="24.3516" style="stroke:#000000;stroke-width:2.0;" width="318" x="561.25" y="1576.8359"/><text fill="#000000" font-family="sans-serif" font-size="13" font-weight="bold" lengthAdjust="spacing" textLength="300" x="567.25" y="1594.3311">User "other" sends message "Hi!" to user "user"</text><polygon fill="#181818" points="1326.5,1629.5391,1336.5,1633.5391,1326.5,1637.5391,1330.5,1633.5391" style="stroke:#181818;stroke-width:1.0;"/><line style="stroke:#181818;stroke-width:1.0;" x1="627.5" x2="1332.5" y1="1633.5391" y2="1633.5391"/><text fill="#000000" font-family="sans-serif" font-size="13" lengthAdjust="spacing" textLength="287" x="634.5" y="1628.6826">SELECT ip, port FROM users WHERE id = 3265;</text><polygon fill="#181818" points="638.5,1659.8906,628.5,1663.8906,638.5,1667.8906,634.5,1663.8906" style="stroke:#181818;stroke-width:1.0;"/><line style="stroke:#181818;stroke-width:1.0;" x1="632.5" x2="1342.5" y1="1663.8906" y2="1663.8906"/><text fill="#000000" font-family="sans-serif" font-size="13" lengthAdjust="spacing" textLength="104" x="644.5" y="1659.0342">user_ip, user_port</text><path d="M10,1678.8906 L71,1678.8906 L71,1687.2422 L61,1697.2422 L10,1697.2422 L10,1678.8906 " fill="#EEEEEE" style="stroke:#000000;stroke-width:1.5;"/><rect fill="none" height="111.7578" style="stroke:#000000;stroke-width:1.5;" width="655.5" x="10" y="1678.8906"/><text fill="#000000" font-family="sans-serif" font-size="13" font-weight="bold" lengthAdjust="spacing" textLength="16" x="25" y="1693.3857">alt</text><text fill="#000000" font-family="sans-serif" font-size="11" font-weight="bold" lengthAdjust="spacing" textLength="189" x="86" y="1692.3096">[not( net.user_ip.isUnspecified() )]</text><polygon fill="#181818" points="357.5,1731.9453,347.5,1735.9453,357.5,1739.9453,353.5,1735.9453" style="stroke:#181818;stroke-width:1.0;"/><line style="stroke:#181818;stroke-width:1.0;" x1="351.5" x2="626.5" y1="1735.9453" y2="1735.9453"/><text fill="#000000" font-family="sans-serif" font-size="13" lengthAdjust="spacing" textLength="146" x="363.5" y="1714.7373">[POST] .../SendMessage</text><text fill="#000000" font-family="sans-serif" font-size="13" lengthAdjust="spacing" textLength="243" x="363.5" y="1731.0889">source=3103&amp;destination=3265&amp;body=Hi!</text><polygon fill="#181818" points="48.5,1778.6484,38.5,1782.6484,48.5,1786.6484,44.5,1782.6484" style="stroke:#181818;stroke-width:1.0;"/><line style="stroke:#181818;stroke-width:1.0;" x1="42.5" x2="335.5" y1="1782.6484" y2="1782.6484"/><text fill="#000000" font-family="sans-serif" font-size="13" lengthAdjust="spacing" textLength="132" x="54.5" y="1761.4404">New message appears</text><text fill="#000000" font-family="sans-serif" font-size="13" lengthAdjust="spacing" textLength="270" x="54.5" y="1777.792">(if current chatting session is with user "other")</text><rect fill="#EEEEEE" height="3" style="stroke:#EEEEEE;stroke-width:1.0;" width="1440.5" x="0" y="1818.8242"/><line style="stroke:#000000;stroke-width:1.0;" x1="0" x2="1440.5" y1="1818.8242" y2="1818.8242"/><line style="stroke:#000000;stroke-width:1.0;" x1="0" x2="1440.5" y1="1821.8242" y2="1821.8242"/><rect fill="#EEEEEE" height="24.3516" style="stroke:#000000;stroke-width:2.0;" width="206" x="617.25" y="1807.6484"/><text fill="#000000" font-family="sans-serif" font-size="13" font-weight="bold" lengthAdjust="spacing" textLength="188" x="623.25" y="1825.1436">User disconnects from service</text><polygon fill="#181818" points="324.5,1860.3516,334.5,1864.3516,324.5,1868.3516,328.5,1864.3516" style="stroke:#181818;stroke-width:1.0;"/><line style="stroke:#181818;stroke-width:1.0;" x1="37.5" x2="330.5" y1="1864.3516" y2="1864.3516"/><text fill="#000000" font-family="sans-serif" font-size="13" lengthAdjust="spacing" textLength="195" x="44.5" y="1859.4951">Disconnects from frontend service</text><polygon fill="#181818" points="610.5,1890.7031,620.5,1894.7031,610.5,1898.7031,614.5,1894.7031" style="stroke:#181818;stroke-width:1.0;"/><line style="stroke:#181818;stroke-width:1.0;" x1="346.5" x2="616.5" y1="1894.7031" y2="1894.7031"/><text fill="#000000" font-family="sans-serif" font-size="13" lengthAdjust="spacing" textLength="136" x="353.5" y="1889.8467">[GET] .../Logout?=3265</text><line style="stroke:#181818;stroke-width:1.0;" x1="346.5" x2="388.5" y1="1930.0547" y2="1930.0547"/><line style="stroke:#181818;stroke-width:1.0;" x1="388.5" x2="388.5" y1="1930.0547" y2="1943.0547"/><line style="stroke:#181818;stroke-width:1.0;" x1="341.5" x2="388.5" y1="1943.0547" y2="1943.0547"/><polygon fill="#181818" points="351.5,1939.0547,341.5,1943.0547,351.5,1947.0547,347.5,1943.0547" style="stroke:#181818;stroke-width:1.0;"/><text fill="#000000" font-family="sans-serif" font-size="13" lengthAdjust="spacing" textLength="72" x="353.5" y="1925.1982">Disconnects</text><polygon fill="#181818" points="759.5,1964.4063,769.5,1968.4063,759.5,1972.4063,763.5,1968.4063" style="stroke:#181818;stroke-width:1.0;"/><line style="stroke:#181818;stroke-width:1.0;" x1="632.5" x2="765.5" y1="1968.4063" y2="1968.4063"/><text fill="#000000" font-family="sans-serif" font-size="13" lengthAdjust="spacing" textLength="64" x="639.5" y="1963.5498">Logout(w,r)</text><polygon fill="#181818" points="1331.5,1994.7578,1341.5,1998.7578,1331.5,2002.7578,1335.5,1998.7578" style="stroke:#181818;stroke-width:1.0;"/><line style="stroke:#181818;stroke-width:1.0;" x1="781.5" x2="1337.5" y1="1998.7578" y2="1998.7578"/><text fill="#000000" font-family="sans-serif" font-size="13" lengthAdjust="spacing" textLength="376" x="788.5" y="1993.9014">UPDATE users SET ip = 0.0.0.0 and port = 0 WHERE id = 3265;</text><!--SRC=[jLPTazes57tthxZnGyOqNhh9DdtOZ9iXu6Rfa5sAePrEoEm8MnXrZEHQOcd_VQyaOsmmtkr3sPd5MET-w9wZgqjY9GfOI5eu3Z7FxfXVVIh47b_1ZEAxNo9O5u8hoXCNYBG_d9Nu6znP6CtNkmnI0OFfs7K0Sb8e5hESS0NWHhHueeMnakRn1E4k5CkOObGQp0v_oLF8L4YL5ZJwTG89KMH593NWPEKuc19W8euJ16OF40lEQQmaA64YifX243XcxUedcpgyUGEtCBH8nbEDFMpmOBJammqfKhtwnEWU22wLnS3yTBWPJPbKw1PBbWb4Ghx1r7Gq098f_D-8Qe9MHaGfkisLteVBoPRgqa6P7bhOOXcJhv_3-JVez_lVfrJTqxrsEXvz3BILCT8VYzUMfeJG2ERj_Q9NGVN7WYhqBR3SXrmK2WB0AEEfTyaWMMdVQ36-ZyBP7B_c3x33y18ydP4FKX6raptuRJ1PX15uTdj-5Q877vOSed0I3kSGxuhYYMHUdZvYt4VqmqY6Nt_jA8-fvnhFhk-onEtrFZHImaog3LnTOKOtxtvyxvmbVAYCHhWQOYjzB5XPyyPwnODbKAzDH9hI11Z7PPf9sahlnEYWngtE7yQZOsxT31iTVGmQEscbrWJwNtXTJ4U3ULXI6eLpT876DJ_cw_UxS1O2I_2tJhR6w7Vmy-pXYxL_XZ2DUSnGejsiDM6jn9be_J-bu1V8GsiGQn1gWwyCMjF84zCu8eNj1k8DygRFkwHICi5XpzJ64kWQEnUFDbIqDvj9H3Fi9KqqBcz1vsqzOR5ktbxVl405qZX36HpW5sNmcIfiO_XU4eKfTmYYuhT9qnRtIb8gbzmoAiMkq1tJf0g3-n4aL69LZFkIx2L_cDM0-AODYFOQE0fdyEaFK6nBOJ2Cdb54cSuBH766RDL5N2jEXppgDJod_NYvc7RaOYYUo4C6-l9uiKYqdNj7iqouftQNTJ5zY4fXQ0TVRDWbjmoONl6wLdkZcjShaVmJc40j0YgVRWqhWVxNlnTxhzUjjLhmRfsTN0u7YO5dC_RhIl51P-gRJ8vNXjwJh_VXbyNopVf_k3SEGLzuTRp_eLjjgjZHoohxUZUVJw6WCXSS1m1x0Nw3TzTlOLXGecZIBZkyp2iLaJod1BlIKMkbd9fYS-_Ogvfqh1xDn77Ad3tmrNcl6lYnEvyrSQTPdxCUh7sO1-se0kEe0rme3pXL_HBNPtB1PKvZjcOqyNhGfgtQoNXEurhI3OrhqLkDirUbwsQ1Mwkxv1vR6-rGtjBmcJm__3seCZzS5yP_mcGrQff6VnmsSJniZfktC3f5duwRJlUDWDUzsAdQO531QpAi1N6w1WVqr3p09uUtVGAuxfi_CmYNay3rkOB-1G00]--></g></svg>