<?xml version="1.0" encoding="UTF-8" standalone="no"?><svg xmlns="http://www.w3.org/2000/svg" xmlns:xlink="http://www.w3.org/1999/xlink" contentStyleType="text/css" height="2087px" preserveAspectRatio="none" style="width:1447px;height:2087px;background:#FFFFFF;" version="1.1" viewBox="0 0 1447 2087" width="1447px" zoomAndPan="magnify"><defs/><g><rect fill="#DDDDDD" height="2075.0156" style="stroke:#181818;stroke-width:0.5;" width="829" x="595.5" y="6"/><text fill="#000000" font-family="sans-serif" font-size="13" font-weight="bold" lengthAdjust="spacing" textLength="96" x="962" y="19.4951">RESTful go API</text><rect fill="#FFFFFF" height="1832.0938" style="stroke:#181818;stroke-width:1.0;" width="10" x="331.5" y="159.3125"/><rect fill="#FFFFFF" height="272.1641" style="stroke:#181818;stroke-width:1.0;" width="10" x="336.5" y="259.3672"/><rect fill="#FFFFFF" height="272.1641" style="stroke:#181818;stroke-width:1.0;" width="10" x="336.5" y="563.8828"/><rect fill="#FFFFFF" height="261.5156" style="stroke:#181818;stroke-width:1.0;" width="10" x="336.5" y="917.75"/><rect fill="#FFFFFF" height="288.5156" style="stroke:#181818;stroke-width:1.0;" width="10" x="336.5" y="1253.9688"/><rect fill="#FFFFFF" height="195.1094" style="stroke:#181818;stroke-width:1.0;" width="10" x="336.5" y="1719.5938"/><rect fill="#FFFFFF" height="211.4609" style="stroke:#181818;stroke-width:1.0;" width="10" x="622.5" y="289.7188"/><rect fill="#FFFFFF" height="211.4609" style="stroke:#181818;stroke-width:1.0;" width="10" x="622.5" y="594.2344"/><rect fill="#FFFFFF" height="200.8125" style="stroke:#181818;stroke-width:1.0;" width="10" x="622.5" y="948.1016"/><rect fill="#FFFFFF" height="211.4609" style="stroke:#181818;stroke-width:1.0;" width="10" x="622.5" y="1300.6719"/><rect fill="#FFFFFF" height="113.0547" style="stroke:#181818;stroke-width:1.0;" width="10" x="622.5" y="1878.3516"/><rect fill="#FFFFFF" height="150.7578" style="stroke:#181818;stroke-width:1.0;" width="10" x="771.5" y="320.0703"/><rect fill="#FFFFFF" height="150.7578" style="stroke:#181818;stroke-width:1.0;" width="10" x="771.5" y="624.5859"/><rect fill="#FFFFFF" height="140.1094" style="stroke:#181818;stroke-width:1.0;" width="10" x="771.5" y="978.4531"/><rect fill="#FFFFFF" height="107.4063" style="stroke:#181818;stroke-width:1.0;" width="10" x="771.5" y="1374.375"/><rect fill="#FFFFFF" height="39.3516" style="stroke:#181818;stroke-width:1.0;" width="10" x="771.5" y="1952.0547"/><rect fill="#FFFFFF" height="30.3516" style="stroke:#181818;stroke-width:1.0;" width="10" x="1338.5" y="410.125"/><rect fill="#FFFFFF" height="30.3516" style="stroke:#181818;stroke-width:1.0;" width="10" x="1338.5" y="714.6406"/><rect fill="#FFFFFF" height="30.3516" style="stroke:#181818;stroke-width:1.0;" width="10" x="1338.5" y="1057.8594"/><rect fill="#FFFFFF" height="30.3516" style="stroke:#181818;stroke-width:1.0;" width="10" x="1338.5" y="1617.1875"/><rect fill="none" height="625.3828" style="stroke:#000000;stroke-width:1.5;" width="1420.5" x="10" y="218.6641"/><rect fill="none" height="111.7578" style="stroke:#000000;stroke-width:1.5;" width="655.5" x="10" y="1662.5391"/><line style="stroke:#181818;stroke-width:0.5;stroke-dasharray:5.0,5.0;" x1="37" x2="37" y1="82.6094" y2="2000.4063"/><line style="stroke:#181818;stroke-width:0.5;stroke-dasharray:5.0,5.0;" x1="336" x2="336" y1="82.6094" y2="2000.4063"/><line style="stroke:#181818;stroke-width:0.5;stroke-dasharray:5.0,5.0;" x1="627.5" x2="627.5" y1="82.6094" y2="2000.4063"/><line style="stroke:#181818;stroke-width:0.5;stroke-dasharray:5.0,5.0;" x1="776.5" x2="776.5" y1="82.6094" y2="2000.4063"/><line style="stroke:#181818;stroke-width:0.5;stroke-dasharray:5.0,5.0;" x1="1343.5" x2="1343.5" y1="82.6094" y2="2000.4063"/><text fill="#000000" font-family="sans-serif" font-size="14" lengthAdjust="spacing" textLength="29" x="20" y="79.5332">User</text><ellipse cx="37.5" cy="13.5" fill="#E2E2F0" rx="8" ry="8" style="stroke:#181818;stroke-width:0.5;"/><path d="M37.5,21.5 L37.5,48.5 M24.5,29.5 L50.5,29.5 M37.5,48.5 L24.5,63.5 M37.5,48.5 L50.5,63.5 " fill="none" style="stroke:#181818;stroke-width:0.5;"/><text fill="#000000" font-family="sans-serif" font-size="14" lengthAdjust="spacing" textLength="29" x="20" y="2013.9395">User</text><ellipse cx="37.5" cy="2025.5156" fill="#E2E2F0" rx="8" ry="8" style="stroke:#181818;stroke-width:0.5;"/><path d="M37.5,2033.5156 L37.5,2060.5156 M24.5,2041.5156 L50.5,2041.5156 M37.5,2060.5156 L24.5,2075.5156 M37.5,2060.5156 L50.5,2075.5156 " fill="none" style="stroke:#181818;stroke-width:0.5;"/><text fill="#000000" font-family="sans-serif" font-size="14" lengthAdjust="spacing" textLength="109" x="279" y="79.5332">ReactJS frontend</text><ellipse cx="336.5" cy="13.5" fill="#E2E2F0" rx="8" ry="8" style="stroke:#181818;stroke-width:0.5;"/><path d="M336.5,21.5 L336.5,48.5 M323.5,29.5 L349.5,29.5 M336.5,48.5 L323.5,63.5 M336.5,48.5 L349.5,63.5 " fill="none" style="stroke:#181818;stroke-width:0.5;"/><text fill="#000000" font-family="sans-serif" font-size="14" lengthAdjust="spacing" textLength="109" x="279" y="2013.9395">ReactJS frontend</text><ellipse cx="336.5" cy="2025.5156" fill="#E2E2F0" rx="8" ry="8" style="stroke:#181818;stroke-width:0.5;"/><path d="M336.5,2033.5156 L336.5,2060.5156 M323.5,2041.5156 L349.5,2041.5156 M336.5,2060.5156 L323.5,2075.5156 M336.5,2060.5156 L349.5,2075.5156 " fill="none" style="stroke:#181818;stroke-width:0.5;"/><rect fill="#E2E2F0" height="31.6094" rx="2.5" ry="2.5" style="stroke:#181818;stroke-width:0.5;" width="56" x="599.5" y="50"/><text fill="#000000" font-family="sans-serif" font-size="14" lengthAdjust="spacing" textLength="42" x="606.5" y="71.5332">Server</text><rect fill="#E2E2F0" height="31.6094" rx="2.5" ry="2.5" style="stroke:#181818;stroke-width:0.5;" width="56" x="599.5" y="1999.4063"/><text fill="#000000" font-family="sans-serif" font-size="14" lengthAdjust="spacing" textLength="42" x="606.5" y="2020.9395">Server</text><rect fill="#E2E2F0" height="31.6094" rx="2.5" ry="2.5" style="stroke:#181818;stroke-width:0.5;" width="58" x="747.5" y="50"/><text fill="#000000" font-family="sans-serif" font-size="14" lengthAdjust="spacing" textLength="44" x="754.5" y="71.5332">Utilities</text><rect fill="#E2E2F0" height="31.6094" rx="2.5" ry="2.5" style="stroke:#181818;stroke-width:0.5;" width="58" x="747.5" y="1999.4063"/><text fill="#000000" font-family="sans-serif" font-size="14" lengthAdjust="spacing" textLength="44" x="754.5" y="2020.9395">Utilities</text><rect fill="#E2E2F0" height="31.6094" rx="2.5" ry="2.5" style="stroke:#181818;stroke-width:0.5;" width="154" x="1266.5" y="50"/><text fill="#000000" font-family="sans-serif" font-size="14" lengthAdjust="spacing" textLength="140" x="1273.5" y="71.5332">PostgreSQL database</text><rect fill="#E2E2F0" height="31.6094" rx="2.5" ry="2.5" style="stroke:#181818;stroke-width:0.5;" width="154" x="1266.5" y="1999.4063"/><text fill="#000000" font-family="sans-serif" font-size="14" lengthAdjust="spacing" textLength="140" x="1273.5" y="2020.9395">PostgreSQL database</text><rect fill="#FFFFFF" height="1832.0938" style="stroke:#181818;stroke-width:1.0;" width="10" x="331.5" y="159.3125"/><rect fill="#FFFFFF" height="272.1641" style="stroke:#181818;stroke-width:1.0;" width="10" x="336.5" y="259.3672"/><rect fill="#FFFFFF" height="272.1641" style="stroke:#181818;stroke-width:1.0;" width="10" x="336.5" y="563.8828"/><rect fill="#FFFFFF" height="261.5156" style="stroke:#181818;stroke-width:1.0;" width="10" x="336.5" y="917.75"/><rect fill="#FFFFFF" height="288.5156" style="stroke:#181818;stroke-width:1.0;" width="10" x="336.5" y="1253.9688"/><rect fill="#FFFFFF" height="195.1094" style="stroke:#181818;stroke-width:1.0;" width="10" x="336.5" y="1719.5938"/><rect fill="#FFFFFF" height="211.4609" style="stroke:#181818;stroke-width:1.0;" width="10" x="622.5" y="289.7188"/><rect fill="#FFFFFF" height="211.4609" style="stroke:#181818;stroke-width:1.0;" width="10" x="622.5" y="594.2344"/><rect fill="#FFFFFF" height="200.8125" style="stroke:#181818;stroke-width:1.0;" width="10" x="622.5" y="948.1016"/><rect fill="#FFFFFF" height="211.4609" style="stroke:#181818;stroke-width:1.0;" width="10" x="622.5" y="1300.6719"/><rect fill="#FFFFFF" height="113.0547" style="stroke:#181818;stroke-width:1.0;" width="10" x="622.5" y="1878.3516"/><rect fill="#FFFFFF" height="150.7578" style="stroke:#181818;stroke-width:1.0;" width="10" x="771.5" y="320.0703"/><rect fill="#FFFFFF" height="150.7578" style="stroke:#181818;stroke-width:1.0;" width="10" x="771.5" y="624.5859"/><rect fill="#FFFFFF" height="140.1094" style="stroke:#181818;stroke-width:1.0;" width="10" x="771.5" y="978.4531"/><rect fill="#FFFFFF" height="107.4063" style="stroke:#181818;stroke-width:1.0;" width="10" x="771.5" y="1374.375"/><rect fill="#FFFFFF" height="39.3516" style="stroke:#181818;stroke-width:1.0;" width="10" x="771.5" y="1952.0547"/><rect fill="#FFFFFF" height="30.3516" style="stroke:#181818;stroke-width:1.0;" width="10" x="1338.5" y="410.125"/><rect fill="#FFFFFF" height="30.3516" style="stroke:#181818;stroke-width:1.0;" width="10" x="1338.5" y="714.6406"/><rect fill="#FFFFFF" height="30.3516" style="stroke:#181818;stroke-width:1.0;" width="10" x="1338.5" y="1057.8594"/><rect fill="#FFFFFF" height="30.3516" style="stroke:#181818;stroke-width:1.0;" width="10" x="1338.5" y="1617.1875"/><rect fill="#EEEEEE" height="3" style="stroke:#EEEEEE;stroke-width:1.0;" width="1440.5" x="0" y="113.7852"/><line style="stroke:#000000;stroke-width:1.0;" x1="0" x2="1440.5" y1="113.7852" y2="113.7852"/><line style="stroke:#000000;stroke-width:1.0;" x1="0" x2="1440.5" y1="116.7852" y2="116.7852"/><rect fill="#EEEEEE" height="24.3516" style="stroke:#000000;stroke-width:2.0;" width="171" x="634.75" y="102.6094"/><text fill="#000000" font-family="sans-serif" font-size="13" font-weight="bold" lengthAdjust="spacing" textLength="153" x="640.75" y="120.1045">User connects to service</text><polygon fill="#181818" points="319.5,155.3125,329.5,159.3125,319.5,163.3125,323.5,159.3125" style="stroke:#181818;stroke-width:1.0;"/><line style="stroke:#181818;stroke-width:1.0;" x1="37.5" x2="325.5" y1="159.3125" y2="159.3125"/><text fill="#000000" font-family="sans-serif" font-size="13" lengthAdjust="spacing" textLength="164" x="44.5" y="154.4561">Connects to frontend service</text><rect fill="#EEEEEE" height="3" style="stroke:#EEEEEE;stroke-width:1.0;" width="1440.5" x="0" y="188.4883"/><line style="stroke:#000000;stroke-width:1.0;" x1="0" x2="1440.5" y1="188.4883" y2="188.4883"/><line style="stroke:#000000;stroke-width:1.0;" x1="0" x2="1440.5" y1="191.4883" y2="191.4883"/><rect fill="#EEEEEE" height="24.3516" style="stroke:#000000;stroke-width:2.0;" width="165" x="637.75" y="177.3125"/><text fill="#000000" font-family="sans-serif" font-size="13" font-weight="bold" lengthAdjust="spacing" textLength="147" x="643.75" y="194.8076">Register or login phase</text><path d="M10,218.6641 L71,218.6641 L71,227.0156 L61,237.0156 L10,237.0156 L10,218.6641 " fill="#EEEEEE" style="stroke:#000000;stroke-width:1.5;"/><rect fill="none" height="625.3828" style="stroke:#000000;stroke-width:1.5;" width="1420.5" x="10" y="218.6641"/><text fill="#000000" font-family="sans-serif" font-size="13" font-weight="bold" lengthAdjust="spacing" textLength="16" x="25" y="233.1592">alt</text><polygon fill="#181818" points="324.5,255.3672,334.5,259.3672,324.5,263.3672,328.5,259.3672" style="stroke:#181818;stroke-width:1.0;"/><line style="stroke:#181818;stroke-width:1.0;" x1="37.5" x2="330.5" y1="259.3672" y2="259.3672"/><text fill="#000000" font-family="sans-serif" font-size="13" lengthAdjust="spacing" textLength="160" x="44.5" y="254.5107">Register attempt as "name"</text><polygon fill="#181818" points="610.5,285.7188,620.5,289.7188,610.5,293.7188,614.5,289.7188" style="stroke:#181818;stroke-width:1.0;"/><line style="stroke:#181818;stroke-width:1.0;" x1="346.5" x2="616.5" y1="289.7188" y2="289.7188"/><text fill="#000000" font-family="sans-serif" font-size="13" lengthAdjust="spacing" textLength="183" x="353.5" y="284.8623">[GET] .../getNewUserID?=name</text><polygon fill="#181818" points="759.5,316.0703,769.5,320.0703,759.5,324.0703,763.5,320.0703" style="stroke:#181818;stroke-width:1.0;"/><line style="stroke:#181818;stroke-width:1.0;" x1="632.5" x2="765.5" y1="320.0703" y2="320.0703"/><text fill="#000000" font-family="sans-serif" font-size="13" lengthAdjust="spacing" textLength="73" x="639.5" y="315.2139">Register(w,r)</text><line style="stroke:#181818;stroke-width:1.0;" x1="781.5" x2="823.5" y1="350.4219" y2="350.4219"/><line style="stroke:#181818;stroke-width:1.0;" x1="823.5" x2="823.5" y1="350.4219" y2="363.4219"/><line style="stroke:#181818;stroke-width:1.0;" x1="782.5" x2="823.5" y1="363.4219" y2="363.4219"/><polygon fill="#181818" points="792.5,359.4219,782.5,363.4219,792.5,367.4219,788.5,363.4219" style="stroke:#181818;stroke-width:1.0;"/><text fill="#000000" font-family="sans-serif" font-size="13" lengthAdjust="spacing" textLength="98" x="788.5" y="345.5654">ip, port = getIP(r)</text><polygon fill="#181818" points="1326.5,406.125,1336.5,410.125,1326.5,414.125,1330.5,410.125" style="stroke:#181818;stroke-width:1.0;"/><line style="stroke:#181818;stroke-width:1.0;" x1="781.5" x2="1332.5" y1="410.125" y2="410.125"/><text fill="#000000" font-family="sans-serif" font-size="13" lengthAdjust="spacing" textLength="369" x="788.5" y="388.917">INSERT INTO users (name, status) VALUES ("name", ip, port) ;</text><text fill="#000000" font-family="sans-serif" font-size="13" lengthAdjust="spacing" textLength="317" x="792.5" y="405.2686">SELECT currval(pg_get_serial_sequence("users","id"));</text><polygon fill="#181818" points="792.5,436.4766,782.5,440.4766,792.5,444.4766,788.5,440.4766" style="stroke:#181818;stroke-width:1.0;"/><line style="stroke:#181818;stroke-width:1.0;" x1="786.5" x2="1342.5" y1="440.4766" y2="440.4766"/><text fill="#000000" font-family="sans-serif" font-size="13" lengthAdjust="spacing" textLength="28" x="798.5" y="435.6201">3265</text><polygon fill="#181818" points="643.5,466.8281,633.5,470.8281,643.5,474.8281,639.5,470.8281" style="stroke:#181818;stroke-width:1.0;"/><line style="stroke:#181818;stroke-width:1.0;" x1="637.5" x2="775.5" y1="470.8281" y2="470.8281"/><text fill="#000000" font-family="sans-serif" font-size="13" lengthAdjust="spacing" textLength="38" x="649.5" y="465.9717">"3265"</text><polygon fill="#181818" points="357.5,497.1797,347.5,501.1797,357.5,505.1797,353.5,501.1797" style="stroke:#181818;stroke-width:1.0;"/><line style="stroke:#181818;stroke-width:1.0;" x1="351.5" x2="626.5" y1="501.1797" y2="501.1797"/><text fill="#000000" font-family="sans-serif" font-size="13" lengthAdjust="spacing" textLength="38" x="363.5" y="496.3232">"3265"</text><polygon fill="#181818" points="48.5,527.5313,38.5,531.5313,48.5,535.5313,44.5,531.5313" style="stroke:#181818;stroke-width:1.0;"/><line style="stroke:#181818;stroke-width:1.0;" x1="42.5" x2="330.5" y1="531.5313" y2="531.5313"/><text fill="#000000" font-family="sans-serif" font-size="13" lengthAdjust="spacing" textLength="56" x="54.5" y="526.6748">Logged in</text><line style="stroke:#000000;stroke-width:1.0;stroke-dasharray:2.0,2.0;" x1="10" x2="1430.5" y1="540.5313" y2="540.5313"/><polygon fill="#181818" points="324.5,559.8828,334.5,563.8828,324.5,567.8828,328.5,563.8828" style="stroke:#181818;stroke-width:1.0;"/><line style="stroke:#181818;stroke-width:1.0;" x1="37.5" x2="330.5" y1="563.8828" y2="563.8828"/><text fill="#000000" font-family="sans-serif" font-size="13" lengthAdjust="spacing" textLength="174" x="44.5" y="559.0264">Login attempt as user ID 3265</text><polygon fill="#181818" points="610.5,590.2344,620.5,594.2344,610.5,598.2344,614.5,594.2344" style="stroke:#181818;stroke-width:1.0;"/><line style="stroke:#181818;stroke-width:1.0;" x1="346.5" x2="616.5" y1="594.2344" y2="594.2344"/><text fill="#000000" font-family="sans-serif" font-size="13" lengthAdjust="spacing" textLength="124" x="353.5" y="589.3779">[GET] .../login?=3265</text><polygon fill="#181818" points="759.5,620.5859,769.5,624.5859,759.5,628.5859,763.5,624.5859" style="stroke:#181818;stroke-width:1.0;"/><line style="stroke:#181818;stroke-width:1.0;" x1="632.5" x2="765.5" y1="624.5859" y2="624.5859"/><text fill="#000000" font-family="sans-serif" font-size="13" lengthAdjust="spacing" textLength="56" x="639.5" y="619.7295">Login(w,r)</text><line style="stroke:#181818;stroke-width:1.0;" x1="781.5" x2="823.5" y1="654.9375" y2="654.9375"/><line style="stroke:#181818;stroke-width:1.0;" x1="823.5" x2="823.5" y1="654.9375" y2="667.9375"/><line style="stroke:#181818;stroke-width:1.0;" x1="782.5" x2="823.5" y1="667.9375" y2="667.9375"/><polygon fill="#181818" points="792.5,663.9375,782.5,667.9375,792.5,671.9375,788.5,667.9375" style="stroke:#181818;stroke-width:1.0;"/><text fill="#000000" font-family="sans-serif" font-size="13" lengthAdjust="spacing" textLength="98" x="788.5" y="650.0811">ip, port = getIP(r)</text><polygon fill="#181818" points="1326.5,710.6406,1336.5,714.6406,1326.5,718.6406,1330.5,714.6406" style="stroke:#181818;stroke-width:1.0;"/><line style="stroke:#181818;stroke-width:1.0;" x1="781.5" x2="1332.5" y1="714.6406" y2="714.6406"/><text fill="#000000" font-family="sans-serif" font-size="13" lengthAdjust="spacing" textLength="340" x="788.5" y="693.4326">UPDATE users SET ip = ip, port = port WHERE id = 3265;</text><text fill="#000000" font-family="sans-serif" font-size="13" lengthAdjust="spacing" textLength="141" x="792.5" y="709.7842">SELECT * FROM users;</text><polygon fill="#181818" points="792.5,740.9922,782.5,744.9922,792.5,748.9922,788.5,744.9922" style="stroke:#181818;stroke-width:1.0;"/><line style="stroke:#181818;stroke-width:1.0;" x1="786.5" x2="1342.5" y1="744.9922" y2="744.9922"/><text fill="#000000" font-family="sans-serif" font-size="13" lengthAdjust="spacing" textLength="49" x="798.5" y="740.1357">user_list</text><polygon fill="#181818" points="643.5,771.3438,633.5,775.3438,643.5,779.3438,639.5,775.3438" style="stroke:#181818;stroke-width:1.0;"/><line style="stroke:#181818;stroke-width:1.0;" x1="637.5" x2="775.5" y1="775.3438" y2="775.3438"/><text fill="#000000" font-family="sans-serif" font-size="13" lengthAdjust="spacing" textLength="49" x="649.5" y="770.4873">user_list</text><polygon fill="#181818" points="357.5,801.6953,347.5,805.6953,357.5,809.6953,353.5,805.6953" style="stroke:#181818;stroke-width:1.0;"/><line style="stroke:#181818;stroke-width:1.0;" x1="351.5" x2="626.5" y1="805.6953" y2="805.6953"/><text fill="#000000" font-family="sans-serif" font-size="13" lengthAdjust="spacing" textLength="60" x="363.5" y="800.8389">users.json</text><polygon fill="#181818" points="48.5,832.0469,38.5,836.0469,48.5,840.0469,44.5,836.0469" style="stroke:#181818;stroke-width:1.0;"/><line style="stroke:#181818;stroke-width:1.0;" x1="42.5" x2="330.5" y1="836.0469" y2="836.0469"/><text fill="#000000" font-family="sans-serif" font-size="13" lengthAdjust="spacing" textLength="104" x="54.5" y="831.1904">List of other users</text><rect fill="#EEEEEE" height="3" style="stroke:#EEEEEE;stroke-width:1.0;" width="1440.5" x="0" y="872.2227"/><line style="stroke:#000000;stroke-width:1.0;" x1="0" x2="1440.5" y1="872.2227" y2="872.2227"/><line style="stroke:#000000;stroke-width:1.0;" x1="0" x2="1440.5" y1="875.2227" y2="875.2227"/><rect fill="#EEEEEE" height="24.3516" style="stroke:#000000;stroke-width:2.0;" width="264" x="588.25" y="861.0469"/><text fill="#000000" font-family="sans-serif" font-size="13" font-weight="bold" lengthAdjust="spacing" textLength="246" x="594.25" y="878.542">Start chatting session with user "other"</text><polygon fill="#181818" points="324.5,913.75,334.5,917.75,324.5,921.75,328.5,917.75" style="stroke:#181818;stroke-width:1.0;"/><line style="stroke:#181818;stroke-width:1.0;stroke-dasharray:2.0,2.0;" x1="37.5" x2="330.5" y1="917.75" y2="917.75"/><text fill="#000000" font-family="sans-serif" font-size="13" lengthAdjust="spacing" textLength="232" x="44.5" y="912.8936">Select user "other" from list with id 3103</text><polygon fill="#181818" points="610.5,944.1016,620.5,948.1016,610.5,952.1016,614.5,948.1016" style="stroke:#181818;stroke-width:1.0;"/><line style="stroke:#181818;stroke-width:1.0;" x1="346.5" x2="616.5" y1="948.1016" y2="948.1016"/><text fill="#000000" font-family="sans-serif" font-size="13" lengthAdjust="spacing" textLength="132" x="353.5" y="943.2451">[GET] .../select?=3103</text><polygon fill="#181818" points="759.5,974.4531,769.5,978.4531,759.5,982.4531,763.5,978.4531" style="stroke:#181818;stroke-width:1.0;"/><line style="stroke:#181818;stroke-width:1.0;" x1="632.5" x2="765.5" y1="978.4531" y2="978.4531"/><text fill="#000000" font-family="sans-serif" font-size="13" lengthAdjust="spacing" textLength="120" x="639.5" y="973.5967">GetConversation(w,r)</text><polygon fill="#181818" points="1326.5,1053.8594,1336.5,1057.8594,1326.5,1061.8594,1330.5,1057.8594" style="stroke:#181818;stroke-width:1.0;"/><line style="stroke:#181818;stroke-width:1.0;" x1="781.5" x2="1332.5" y1="1057.8594" y2="1057.8594"/><text fill="#000000" font-family="sans-serif" font-size="13" lengthAdjust="spacing" textLength="165" x="788.5" y="1003.9482">SELECT * FROM messages</text><text fill="#000000" font-family="sans-serif" font-size="13" lengthAdjust="spacing" textLength="278" x="788.5" y="1020.2998">WHERE source = 3103 AND destination = 3265</text><text fill="#000000" font-family="sans-serif" font-size="13" lengthAdjust="spacing" textLength="248" x="788.5" y="1036.6514">OR source = 3265 AND destination = 3103</text><text fill="#000000" font-family="sans-serif" font-size="13" lengthAdjust="spacing" textLength="132" x="788.5" y="1053.0029">ORDER BY time ACS;</text><polygon fill="#181818" points="792.5,1084.2109,782.5,1088.2109,792.5,1092.2109,788.5,1088.2109" style="stroke:#181818;stroke-width:1.0;"/><line style="stroke:#181818;stroke-width:1.0;" x1="786.5" x2="1342.5" y1="1088.2109" y2="1088.2109"/><text fill="#000000" font-family="sans-serif" font-size="13" lengthAdjust="spacing" textLength="77" x="798.5" y="1083.3545">message_list</text><polygon fill="#181818" points="643.5,1114.5625,633.5,1118.5625,643.5,1122.5625,639.5,1118.5625" style="stroke:#181818;stroke-width:1.0;"/><line style="stroke:#181818;stroke-width:1.0;" x1="637.5" x2="775.5" y1="1118.5625" y2="1118.5625"/><text fill="#000000" font-family="sans-serif" font-size="13" lengthAdjust="spacing" textLength="77" x="649.5" y="1113.7061">message_list</text><polygon fill="#181818" points="357.5,1144.9141,347.5,1148.9141,357.5,1152.9141,353.5,1148.9141" style="stroke:#181818;stroke-width:1.0;"/><line style="stroke:#181818;stroke-width:1.0;" x1="351.5" x2="626.5" y1="1148.9141" y2="1148.9141"/><text fill="#000000" font-family="sans-serif" font-size="13" lengthAdjust="spacing" textLength="100" x="363.5" y="1144.0576">conversation.json</text><polygon fill="#181818" points="48.5,1175.2656,38.5,1179.2656,48.5,1183.2656,44.5,1179.2656" style="stroke:#181818;stroke-width:1.0;"/><line style="stroke:#181818;stroke-width:1.0;" x1="42.5" x2="330.5" y1="1179.2656" y2="1179.2656"/><text fill="#000000" font-family="sans-serif" font-size="13" lengthAdjust="spacing" textLength="173" x="54.5" y="1174.4092">Conversation with user "other"</text><rect fill="#EEEEEE" height="3" style="stroke:#EEEEEE;stroke-width:1.0;" width="1440.5" x="0" y="1208.4414"/><line style="stroke:#000000;stroke-width:1.0;" x1="0" x2="1440.5" y1="1208.4414" y2="1208.4414"/><line style="stroke:#000000;stroke-width:1.0;" x1="0" x2="1440.5" y1="1211.4414" y2="1211.4414"/><rect fill="#EEEEEE" height="24.3516" style="stroke:#000000;stroke-width:2.0;" width="285" x="577.75" y="1197.2656"/><text fill="#000000" font-family="sans-serif" font-size="13" font-weight="bold" lengthAdjust="spacing" textLength="267" x="583.75" y="1214.7607">User "user" sends message to user "other"</text><polygon fill="#181818" points="324.5,1249.9688,334.5,1253.9688,324.5,1257.9688,328.5,1253.9688" style="stroke:#181818;stroke-width:1.0;"/><line style="stroke:#181818;stroke-width:1.0;stroke-dasharray:2.0,2.0;" x1="37.5" x2="330.5" y1="1253.9688" y2="1253.9688"/><text fill="#000000" font-family="sans-serif" font-size="13" lengthAdjust="spacing" textLength="167" x="44.5" y="1249.1123">Sends "Hello" to user "other"</text><polygon fill="#181818" points="610.5,1296.6719,620.5,1300.6719,610.5,1304.6719,614.5,1300.6719" style="stroke:#181818;stroke-width:1.0;"/><line style="stroke:#181818;stroke-width:1.0;" x1="346.5" x2="616.5" y1="1300.6719" y2="1300.6719"/><text fill="#000000" font-family="sans-serif" font-size="13" lengthAdjust="spacing" textLength="146" x="353.5" y="1279.4639">[POST] .../SendMessage</text><text fill="#000000" font-family="sans-serif" font-size="13" lengthAdjust="spacing" textLength="257" x="353.5" y="1295.8154">source=3265&amp;destination=3103&amp;body=Hello</text><line style="stroke:#181818;stroke-width:1.0;" x1="632.5" x2="674.5" y1="1331.0234" y2="1331.0234"/><line style="stroke:#181818;stroke-width:1.0;" x1="674.5" x2="674.5" y1="1331.0234" y2="1344.0234"/><line style="stroke:#181818;stroke-width:1.0;" x1="633.5" x2="674.5" y1="1344.0234" y2="1344.0234"/><polygon fill="#181818" points="643.5,1340.0234,633.5,1344.0234,643.5,1348.0234,639.5,1344.0234" style="stroke:#181818;stroke-width:1.0;"/><text fill="#000000" font-family="sans-serif" font-size="13" lengthAdjust="spacing" textLength="95" x="639.5" y="1326.167">time=time.Now()</text><polygon fill="#181818" points="759.5,1370.375,769.5,1374.375,759.5,1378.375,763.5,1374.375" style="stroke:#181818;stroke-width:1.0;"/><line style="stroke:#181818;stroke-width:1.0;" x1="632.5" x2="765.5" y1="1374.375" y2="1374.375"/><text fill="#000000" font-family="sans-serif" font-size="13" lengthAdjust="spacing" textLength="108" x="639.5" y="1369.5186">SendMessage(w,r)</text><polygon fill="#181818" points="1331.5,1417.0781,1341.5,1421.0781,1331.5,1425.0781,1335.5,1421.0781" style="stroke:#181818;stroke-width:1.0;"/><line style="stroke:#181818;stroke-width:1.0;" x1="781.5" x2="1337.5" y1="1421.0781" y2="1421.0781"/><text fill="#000000" font-family="sans-serif" font-size="13" lengthAdjust="spacing" textLength="538" x="788.5" y="1399.8701">INSERT INTO messages (source, destination, body, time) VALUES (3265,3103,"Hello",time);</text><text fill="#000000" font-family="sans-serif" font-size="13" lengthAdjust="spacing" textLength="345" x="792.5" y="1416.2217">SELECT currval(pg_get_serial_sequence("messages","id"));</text><polygon fill="#181818" points="792.5,1447.4297,782.5,1451.4297,792.5,1455.4297,788.5,1451.4297" style="stroke:#181818;stroke-width:1.0;"/><line style="stroke:#181818;stroke-width:1.0;" x1="786.5" x2="1342.5" y1="1451.4297" y2="1451.4297"/><text fill="#000000" font-family="sans-serif" font-size="13" lengthAdjust="spacing" textLength="14" x="798.5" y="1446.5732">54</text><polygon fill="#181818" points="643.5,1477.7813,633.5,1481.7813,643.5,1485.7813,639.5,1481.7813" style="stroke:#181818;stroke-width:1.0;"/><line style="stroke:#181818;stroke-width:1.0;" x1="637.5" x2="775.5" y1="1481.7813" y2="1481.7813"/><text fill="#000000" font-family="sans-serif" font-size="13" lengthAdjust="spacing" textLength="22" x="649.5" y="1476.9248">true</text><polygon fill="#181818" points="357.5,1508.1328,347.5,1512.1328,357.5,1516.1328,353.5,1512.1328" style="stroke:#181818;stroke-width:1.0;"/><line style="stroke:#181818;stroke-width:1.0;" x1="351.5" x2="626.5" y1="1512.1328" y2="1512.1328"/><text fill="#000000" font-family="sans-serif" font-size="13" lengthAdjust="spacing" textLength="211" x="363.5" y="1507.2764">[HTTP response status] 201 Created</text><polygon fill="#181818" points="48.5,1538.4844,38.5,1542.4844,48.5,1546.4844,44.5,1542.4844" style="stroke:#181818;stroke-width:1.0;"/><line style="stroke:#181818;stroke-width:1.0;" x1="42.5" x2="330.5" y1="1542.4844" y2="1542.4844"/><text fill="#000000" font-family="sans-serif" font-size="13" lengthAdjust="spacing" textLength="132" x="54.5" y="1537.6279">New message appears</text><rect fill="#EEEEEE" height="3" style="stroke:#EEEEEE;stroke-width:1.0;" width="1440.5" x="0" y="1571.6602"/><line style="stroke:#000000;stroke-width:1.0;" x1="0" x2="1440.5" y1="1571.6602" y2="1571.6602"/><line style="stroke:#000000;stroke-width:1.0;" x1="0" x2="1440.5" y1="1574.6602" y2="1574.6602"/><rect fill="#EEEEEE" height="24.3516" style="stroke:#000000;stroke-width:2.0;" width="318" x="561.25" y="1560.4844"/><text fill="#000000" font-family="sans-serif" font-size="13" font-weight="bold" lengthAdjust="spacing" textLength="300" x="567.25" y="1577.9795">User "other" sends message "Hi!" to user "user"</text><polygon fill="#181818" points="1326.5,1613.1875,1336.5,1617.1875,1326.5,1621.1875,1330.5,1617.1875" style="stroke:#181818;stroke-width:1.0;"/><line style="stroke:#181818;stroke-width:1.0;" x1="627.5" x2="1332.5" y1="1617.1875" y2="1617.1875"/><text fill="#000000" font-family="sans-serif" font-size="13" lengthAdjust="spacing" textLength="287" x="634.5" y="1612.3311">SELECT ip, port FROM users WHERE id = 3265;</text><polygon fill="#181818" points="638.5,1643.5391,628.5,1647.5391,638.5,1651.5391,634.5,1647.5391" style="stroke:#181818;stroke-width:1.0;"/><line style="stroke:#181818;stroke-width:1.0;" x1="632.5" x2="1342.5" y1="1647.5391" y2="1647.5391"/><text fill="#000000" font-family="sans-serif" font-size="13" lengthAdjust="spacing" textLength="104" x="644.5" y="1642.6826">user_ip, user_port</text><path d="M10,1662.5391 L71,1662.5391 L71,1670.8906 L61,1680.8906 L10,1680.8906 L10,1662.5391 " fill="#EEEEEE" style="stroke:#000000;stroke-width:1.5;"/><rect fill="none" height="111.7578" style="stroke:#000000;stroke-width:1.5;" width="655.5" x="10" y="1662.5391"/><text fill="#000000" font-family="sans-serif" font-size="13" font-weight="bold" lengthAdjust="spacing" textLength="16" x="25" y="1677.0342">alt</text><text fill="#000000" font-family="sans-serif" font-size="11" font-weight="bold" lengthAdjust="spacing" textLength="189" x="86" y="1675.958">[not( net.user_ip.isUnspecified() )]</text><polygon fill="#181818" points="357.5,1715.5938,347.5,1719.5938,357.5,1723.5938,353.5,1719.5938" style="stroke:#181818;stroke-width:1.0;"/><line style="stroke:#181818;stroke-width:1.0;" x1="351.5" x2="626.5" y1="1719.5938" y2="1719.5938"/><text fill="#000000" font-family="sans-serif" font-size="13" lengthAdjust="spacing" textLength="146" x="363.5" y="1698.3857">[POST] .../SendMessage</text><text fill="#000000" font-family="sans-serif" font-size="13" lengthAdjust="spacing" textLength="243" x="363.5" y="1714.7373">source=3103&amp;destination=3265&amp;body=Hi!</text><polygon fill="#181818" points="48.5,1762.2969,38.5,1766.2969,48.5,1770.2969,44.5,1766.2969" style="stroke:#181818;stroke-width:1.0;"/><line style="stroke:#181818;stroke-width:1.0;" x1="42.5" x2="335.5" y1="1766.2969" y2="1766.2969"/><text fill="#000000" font-family="sans-serif" font-size="13" lengthAdjust="spacing" textLength="132" x="54.5" y="1745.0889">New message appears</text><text fill="#000000" font-family="sans-serif" font-size="13" lengthAdjust="spacing" textLength="270" x="54.5" y="1761.4404">(if current chatting session is with user "other")</text><rect fill="#EEEEEE" height="3" style="stroke:#EEEEEE;stroke-width:1.0;" width="1440.5" x="0" y="1802.4727"/><line style="stroke:#000000;stroke-width:1.0;" x1="0" x2="1440.5" y1="1802.4727" y2="1802.4727"/><line style="stroke:#000000;stroke-width:1.0;" x1="0" x2="1440.5" y1="1805.4727" y2="1805.4727"/><rect fill="#EEEEEE" height="24.3516" style="stroke:#000000;stroke-width:2.0;" width="206" x="617.25" y="1791.2969"/><text fill="#000000" font-family="sans-serif" font-size="13" font-weight="bold" lengthAdjust="spacing" textLength="188" x="623.25" y="1808.792">User disconnects from service</text><polygon fill="#181818" points="324.5,1844,334.5,1848,324.5,1852,328.5,1848" style="stroke:#181818;stroke-width:1.0;"/><line style="stroke:#181818;stroke-width:1.0;" x1="37.5" x2="330.5" y1="1848" y2="1848"/><text fill="#000000" font-family="sans-serif" font-size="13" lengthAdjust="spacing" textLength="195" x="44.5" y="1843.1436">Disconnects from frontend service</text><polygon fill="#181818" points="610.5,1874.3516,620.5,1878.3516,610.5,1882.3516,614.5,1878.3516" style="stroke:#181818;stroke-width:1.0;"/><line style="stroke:#181818;stroke-width:1.0;" x1="346.5" x2="616.5" y1="1878.3516" y2="1878.3516"/><text fill="#000000" font-family="sans-serif" font-size="13" lengthAdjust="spacing" textLength="136" x="353.5" y="1873.4951">[GET] .../Logout?=3265</text><line style="stroke:#181818;stroke-width:1.0;" x1="346.5" x2="388.5" y1="1913.7031" y2="1913.7031"/><line style="stroke:#181818;stroke-width:1.0;" x1="388.5" x2="388.5" y1="1913.7031" y2="1926.7031"/><line style="stroke:#181818;stroke-width:1.0;" x1="341.5" x2="388.5" y1="1926.7031" y2="1926.7031"/><polygon fill="#181818" points="351.5,1922.7031,341.5,1926.7031,351.5,1930.7031,347.5,1926.7031" style="stroke:#181818;stroke-width:1.0;"/><text fill="#000000" font-family="sans-serif" font-size="13" lengthAdjust="spacing" textLength="72" x="353.5" y="1908.8467">Disconnects</text><polygon fill="#181818" points="759.5,1948.0547,769.5,1952.0547,759.5,1956.0547,763.5,1952.0547" style="stroke:#181818;stroke-width:1.0;"/><line style="stroke:#181818;stroke-width:1.0;" x1="632.5" x2="765.5" y1="1952.0547" y2="1952.0547"/><text fill="#000000" font-family="sans-serif" font-size="13" lengthAdjust="spacing" textLength="64" x="639.5" y="1947.1982">Logout(w,r)</text><polygon fill="#181818" points="1331.5,1978.4063,1341.5,1982.4063,1331.5,1986.4063,1335.5,1982.4063" style="stroke:#181818;stroke-width:1.0;"/><line style="stroke:#181818;stroke-width:1.0;" x1="781.5" x2="1337.5" y1="1982.4063" y2="1982.4063"/><text fill="#000000" font-family="sans-serif" font-size="13" lengthAdjust="spacing" textLength="376" x="788.5" y="1977.5498">UPDATE users SET ip = 0.0.0.0 and port = 0 WHERE id = 3265;</text><!--SRC=[jLRVSzf647xNNx7HGqOqCdNYf0_Eq0mrQao7s1H1EvsGyHpIMRwEk5DqHvp-zztR4q82WTs7mWm8RdzyjzztUyiIeqfOQ5vw7gDdVyRnuRSOxaib3PUf3qox7zvAVSVrA9xVRtB850odOzy3A5XfH28A9Ws07_Fo6o_9IzFZdeM_C28NHd1DDXlyfVTDfagRhEJnxnD8cM4hfZaPfolFGqY0G3nlC23Wa2WfUM8q64KPHS9XCF1exUnd1nrUlO9Bk6fORhUtTK48DkACPq8RzCHIv2eJ4ee7p6u30h3Su6ShCCMjdPWnV5qO2zMNRCrjTQ12W1wk7kJo-MCq_mBzVl_7Z9iR_cY3ZaSV1jQBdEpBsLjFgXAqaWMFOTchJUtB6TNMbo2A40fL6XW0PXbFWsCEwSh6He_nJHpDvlWrluKDfjSGM4GXQCFCHlVWZ-5a4SKGkEs5TOeUl5zAYAD9T3M7P5EMtrWU5DaTvht3E8Bb-FLrmsN20vyY-w4lKh_NUz-2X4Zg3PoT8QABDp-zymu0RojZBNnhuYgzArXLyzPwpODZqAvDL9Rn58J4PPvhtadlX7JGuDRYX_5eX-qqmwIZ3uFMJZgffKJ_2w-BwMWuZofAusYE8T2v4OU-_hoEPX6857zRi0r6Vu1VPxUVdFyJX5cRknmbUfgrjbadSPIj_xTMyWXvw0tg7fHvmB_8sj8eK-eDiS6E0ia3yYPaXXcq5ah2ep0FZa2V_7mysb3JtkuNCS-nNRIjSNaD5hUBXCMwU7r-yGmLQ0g6CjYQ7vN1HswmK-7_cXc4V48GDRzjcjQuLvPnlPIEKQqsfMsA11M6DoD8kSQgKFYAxAMydJKCyPykG_ItXgDe1h_y1KQiEGoluYSKKS5vXYWEB3jraJIASq8UpHeUqhwxFwWT-PXAfdgBmDuGpnQ9zVElUPuhVz_lk2wcjt4b31lWaqkxb8u1wXKl6xKdrRnSgVIV0INg453rT4ci3En7_qOz1htJMciaFwsplSjXAp487EAmgPGGBDAGaEok3BkdqEuZh8eLqlf_k3UsIPzvTRnxUrfjfjpmuohxV3sVJw7akb0I1m1t0Nw1D-UluQhapF2qMtPucTSgOaN16NQbdTOgERN5vb-B5mtfE3tInB7Fd3lmzNcl6_YkEnyqSQzTduCUR6FGWmrK6-Ee0rAP02Gt_SgkB_H2we8dubxmDEX1bxOQ9-CfZLj9jpHkHUyqBbvKeTi5xgpkKWRYdhJ3PKV35_hmyFUWHhwzBYX-AdGzJLAZtysJE1ws9yfB6ErR7yoKfsy4lExLnZG6Wzgy8SD64k_Ku82HsWTux_1sJm3dVNe3Gz3L971-gA1_0G00]--></g></svg>