<?xml version="1.0" encoding="UTF-8" standalone="no"?><svg xmlns="http://www.w3.org/2000/svg" xmlns:xlink="http://www.w3.org/1999/xlink" contentStyleType="text/css" height="2409px" preserveAspectRatio="none" style="width:1810px;height:2409px;background:#FFFFFF;" version="1.1" viewBox="0 0 1810 2409" width="1810px" zoomAndPan="magnify"><defs/><g><rect fill="#DDDDDD" height="2397.5859" style="stroke:#181818;stroke-width:0.5;" width="1029" x="664.5" y="6"/><text fill="#000000" font-family="sans-serif" font-size="13" font-weight="bold" lengthAdjust="spacing" textLength="96" x="1131" y="19.4951">RESTful go API</text><rect fill="#FFFFFF" height="1795.0938" style="stroke:#181818;stroke-width:1.0;" width="10" x="383.5" y="293.7734"/><rect fill="#FFFFFF" height="316.5156" style="stroke:#181818;stroke-width:1.0;" width="10" x="388.5" y="393.8281"/><rect fill="#FFFFFF" height="272.1641" style="stroke:#181818;stroke-width:1.0;" width="10" x="388.5" y="742.6953"/><rect fill="#FFFFFF" height="261.5156" style="stroke:#181818;stroke-width:1.0;" width="10" x="388.5" y="1096.5625"/><rect fill="#FFFFFF" height="272.1641" style="stroke:#181818;stroke-width:1.0;" width="10" x="388.5" y="1432.7813"/><rect fill="#FFFFFF" height="255.8125" style="stroke:#181818;stroke-width:1.0;" width="10" x="691.5" y="424.1797"/><rect fill="#FFFFFF" height="211.4609" style="stroke:#181818;stroke-width:1.0;" width="10" x="691.5" y="773.0469"/><rect fill="#FFFFFF" height="200.8125" style="stroke:#181818;stroke-width:1.0;" width="10" x="691.5" y="1126.9141"/><rect fill="#FFFFFF" height="195.1094" style="stroke:#181818;stroke-width:1.0;" width="10" x="691.5" y="1479.4844"/><rect fill="#FFFFFF" height="200.8125" style="stroke:#181818;stroke-width:1.0;" width="10" x="691.5" y="1857.7031"/><rect fill="#FFFFFF" height="113.0547" style="stroke:#181818;stroke-width:1.0;" width="10" x="691.5" y="2200.9219"/><rect fill="#FFFFFF" height="195.1094" style="stroke:#181818;stroke-width:1.0;" width="10" x="948.5" y="454.5313"/><rect fill="#FFFFFF" height="150.7578" style="stroke:#181818;stroke-width:1.0;" width="10" x="948.5" y="803.3984"/><rect fill="#FFFFFF" height="140.1094" style="stroke:#181818;stroke-width:1.0;" width="10" x="948.5" y="1157.2656"/><rect fill="#FFFFFF" height="91.0547" style="stroke:#181818;stroke-width:1.0;" width="10" x="948.5" y="1553.1875"/><rect fill="#FFFFFF" height="140.1094" style="stroke:#181818;stroke-width:1.0;" width="10" x="948.5" y="1888.0547"/><rect fill="#FFFFFF" height="39.3516" style="stroke:#181818;stroke-width:1.0;" width="10" x="948.5" y="2274.625"/><rect fill="#FFFFFF" height="30.3516" style="stroke:#181818;stroke-width:1.0;" width="10" x="1607.5" y="528.2344"/><rect fill="#FFFFFF" height="30.3516" style="stroke:#181818;stroke-width:1.0;" width="10" x="1607.5" y="588.9375"/><rect fill="#FFFFFF" height="30.3516" style="stroke:#181818;stroke-width:1.0;" width="10" x="1607.5" y="893.4531"/><rect fill="#FFFFFF" height="30.3516" style="stroke:#181818;stroke-width:1.0;" width="10" x="1607.5" y="1236.6719"/><rect fill="#FFFFFF" height="30.3516" style="stroke:#181818;stroke-width:1.0;" width="10" x="1607.5" y="1967.4609"/><rect fill="none" height="669.7344" style="stroke:#000000;stroke-width:1.5;" width="1599.5" x="100" y="353.125"/><rect fill="none" height="279.8672" style="stroke:#000000;stroke-width:1.5;" width="1599.5" x="100" y="1817"/><line style="stroke:#181818;stroke-width:0.5;stroke-dasharray:5.0,5.0;" x1="127" x2="127" y1="82.6094" y2="2322.9766"/><line style="stroke:#181818;stroke-width:0.5;stroke-dasharray:5.0,5.0;" x1="388.5" x2="388.5" y1="82.6094" y2="2322.9766"/><line style="stroke:#181818;stroke-width:0.5;stroke-dasharray:5.0,5.0;" x1="696.5" x2="696.5" y1="82.6094" y2="2322.9766"/><line style="stroke:#181818;stroke-width:0.5;stroke-dasharray:5.0,5.0;" x1="953.5" x2="953.5" y1="82.6094" y2="2322.9766"/><line style="stroke:#181818;stroke-width:0.5;stroke-dasharray:5.0,5.0;" x1="1612.5" x2="1612.5" y1="82.6094" y2="2322.9766"/><text fill="#000000" font-family="sans-serif" font-size="14" lengthAdjust="spacing" textLength="29" x="110" y="79.5332">User</text><ellipse cx="127.5" cy="13.5" fill="#E2E2F0" rx="8" ry="8" style="stroke:#181818;stroke-width:0.5;"/><path d="M127.5,21.5 L127.5,48.5 M114.5,29.5 L140.5,29.5 M127.5,48.5 L114.5,63.5 M127.5,48.5 L140.5,63.5 " fill="none" style="stroke:#181818;stroke-width:0.5;"/><text fill="#000000" font-family="sans-serif" font-size="14" lengthAdjust="spacing" textLength="29" x="110" y="2336.5098">User</text><ellipse cx="127.5" cy="2348.0859" fill="#E2E2F0" rx="8" ry="8" style="stroke:#181818;stroke-width:0.5;"/><path d="M127.5,2356.0859 L127.5,2383.0859 M114.5,2364.0859 L140.5,2364.0859 M127.5,2383.0859 L114.5,2398.0859 M127.5,2383.0859 L140.5,2398.0859 " fill="none" style="stroke:#181818;stroke-width:0.5;"/><text fill="#000000" font-family="sans-serif" font-size="14" lengthAdjust="spacing" textLength="180" x="295.5" y="79.5332">In-Browser ReactJS frontend</text><ellipse cx="388.5" cy="13.5" fill="#E2E2F0" rx="8" ry="8" style="stroke:#181818;stroke-width:0.5;"/><path d="M388.5,21.5 L388.5,48.5 M375.5,29.5 L401.5,29.5 M388.5,48.5 L375.5,63.5 M388.5,48.5 L401.5,63.5 " fill="none" style="stroke:#181818;stroke-width:0.5;"/><text fill="#000000" font-family="sans-serif" font-size="14" lengthAdjust="spacing" textLength="180" x="295.5" y="2336.5098">In-Browser ReactJS frontend</text><ellipse cx="388.5" cy="2348.0859" fill="#E2E2F0" rx="8" ry="8" style="stroke:#181818;stroke-width:0.5;"/><path d="M388.5,2356.0859 L388.5,2383.0859 M375.5,2364.0859 L401.5,2364.0859 M388.5,2383.0859 L375.5,2398.0859 M388.5,2383.0859 L401.5,2398.0859 " fill="none" style="stroke:#181818;stroke-width:0.5;"/><rect fill="#E2E2F0" height="31.6094" rx="2.5" ry="2.5" style="stroke:#181818;stroke-width:0.5;" width="56" x="668.5" y="50"/><text fill="#000000" font-family="sans-serif" font-size="14" lengthAdjust="spacing" textLength="42" x="675.5" y="71.5332">Server</text><rect fill="#E2E2F0" height="31.6094" rx="2.5" ry="2.5" style="stroke:#181818;stroke-width:0.5;" width="56" x="668.5" y="2321.9766"/><text fill="#000000" font-family="sans-serif" font-size="14" lengthAdjust="spacing" textLength="42" x="675.5" y="2343.5098">Server</text><rect fill="#E2E2F0" height="31.6094" rx="2.5" ry="2.5" style="stroke:#181818;stroke-width:0.5;" width="58" x="924.5" y="50"/><text fill="#000000" font-family="sans-serif" font-size="14" lengthAdjust="spacing" textLength="44" x="931.5" y="71.5332">Utilities</text><rect fill="#E2E2F0" height="31.6094" rx="2.5" ry="2.5" style="stroke:#181818;stroke-width:0.5;" width="58" x="924.5" y="2321.9766"/><text fill="#000000" font-family="sans-serif" font-size="14" lengthAdjust="spacing" textLength="44" x="931.5" y="2343.5098">Utilities</text><rect fill="#E2E2F0" height="31.6094" rx="2.5" ry="2.5" style="stroke:#181818;stroke-width:0.5;" width="154" x="1535.5" y="50"/><text fill="#000000" font-family="sans-serif" font-size="14" lengthAdjust="spacing" textLength="140" x="1542.5" y="71.5332">PostgreSQL database</text><rect fill="#E2E2F0" height="31.6094" rx="2.5" ry="2.5" style="stroke:#181818;stroke-width:0.5;" width="154" x="1535.5" y="2321.9766"/><text fill="#000000" font-family="sans-serif" font-size="14" lengthAdjust="spacing" textLength="140" x="1542.5" y="2343.5098">PostgreSQL database</text><rect fill="#FFFFFF" height="1795.0938" style="stroke:#181818;stroke-width:1.0;" width="10" x="383.5" y="293.7734"/><rect fill="#FFFFFF" height="316.5156" style="stroke:#181818;stroke-width:1.0;" width="10" x="388.5" y="393.8281"/><rect fill="#FFFFFF" height="272.1641" style="stroke:#181818;stroke-width:1.0;" width="10" x="388.5" y="742.6953"/><rect fill="#FFFFFF" height="261.5156" style="stroke:#181818;stroke-width:1.0;" width="10" x="388.5" y="1096.5625"/><rect fill="#FFFFFF" height="272.1641" style="stroke:#181818;stroke-width:1.0;" width="10" x="388.5" y="1432.7813"/><rect fill="#FFFFFF" height="255.8125" style="stroke:#181818;stroke-width:1.0;" width="10" x="691.5" y="424.1797"/><rect fill="#FFFFFF" height="211.4609" style="stroke:#181818;stroke-width:1.0;" width="10" x="691.5" y="773.0469"/><rect fill="#FFFFFF" height="200.8125" style="stroke:#181818;stroke-width:1.0;" width="10" x="691.5" y="1126.9141"/><rect fill="#FFFFFF" height="195.1094" style="stroke:#181818;stroke-width:1.0;" width="10" x="691.5" y="1479.4844"/><rect fill="#FFFFFF" height="200.8125" style="stroke:#181818;stroke-width:1.0;" width="10" x="691.5" y="1857.7031"/><rect fill="#FFFFFF" height="113.0547" style="stroke:#181818;stroke-width:1.0;" width="10" x="691.5" y="2200.9219"/><rect fill="#FFFFFF" height="195.1094" style="stroke:#181818;stroke-width:1.0;" width="10" x="948.5" y="454.5313"/><rect fill="#FFFFFF" height="150.7578" style="stroke:#181818;stroke-width:1.0;" width="10" x="948.5" y="803.3984"/><rect fill="#FFFFFF" height="140.1094" style="stroke:#181818;stroke-width:1.0;" width="10" x="948.5" y="1157.2656"/><rect fill="#FFFFFF" height="91.0547" style="stroke:#181818;stroke-width:1.0;" width="10" x="948.5" y="1553.1875"/><rect fill="#FFFFFF" height="140.1094" style="stroke:#181818;stroke-width:1.0;" width="10" x="948.5" y="1888.0547"/><rect fill="#FFFFFF" height="39.3516" style="stroke:#181818;stroke-width:1.0;" width="10" x="948.5" y="2274.625"/><rect fill="#FFFFFF" height="30.3516" style="stroke:#181818;stroke-width:1.0;" width="10" x="1607.5" y="528.2344"/><rect fill="#FFFFFF" height="30.3516" style="stroke:#181818;stroke-width:1.0;" width="10" x="1607.5" y="588.9375"/><rect fill="#FFFFFF" height="30.3516" style="stroke:#181818;stroke-width:1.0;" width="10" x="1607.5" y="893.4531"/><rect fill="#FFFFFF" height="30.3516" style="stroke:#181818;stroke-width:1.0;" width="10" x="1607.5" y="1236.6719"/><rect fill="#FFFFFF" height="30.3516" style="stroke:#181818;stroke-width:1.0;" width="10" x="1607.5" y="1967.4609"/><path d="M5,97.6094 L5,205.6094 L512,205.6094 L512,107.6094 L502,97.6094 L5,97.6094 " fill="#FEFFDD" style="stroke:#181818;stroke-width:0.5;"/><path d="M502,97.6094 L502,107.6094 L512,107.6094 L502,97.6094 " fill="#FEFFDD" style="stroke:#181818;stroke-width:0.5;"/><text fill="#000000" font-family="sans-serif" font-size="13" lengthAdjust="spacing" textLength="486" x="11" y="116.1045">Note: Frontend is served by a service based on ReactJS (server-side and client-side)</text><text fill="#000000" font-family="sans-serif" font-size="13" lengthAdjust="spacing" textLength="437" x="11" y="132.4561">This service is not represented here as an actor because its sole purpose is</text><text fill="#000000" font-family="sans-serif" font-size="13" lengthAdjust="spacing" textLength="236" x="11" y="148.8076">to provide the client to the user's browser</text><text fill="#000000" font-family="sans-serif" font-size="13" lengthAdjust="spacing" textLength="430" x="11" y="165.1592">The In-Browser ReactJS frontend actor regroups server-side and client-side</text><text fill="#000000" font-family="sans-serif" font-size="13" lengthAdjust="spacing" textLength="474" x="11" y="181.5107">But JS code is exectued client-side, so it should be the client address that is sent</text><text fill="#000000" font-family="sans-serif" font-size="13" lengthAdjust="spacing" textLength="262" x="11" y="197.8623">to the DB and not the frontend server address</text><rect fill="#EEEEEE" height="3" style="stroke:#EEEEEE;stroke-width:1.0;" width="1803" x="0" y="231.8945"/><line style="stroke:#000000;stroke-width:1.0;" x1="0" x2="1803" y1="231.8945" y2="231.8945"/><line style="stroke:#000000;stroke-width:1.0;" x1="0" x2="1803" y1="234.8945" y2="234.8945"/><rect fill="#EEEEEE" height="24.3516" style="stroke:#000000;stroke-width:2.0;" width="171" x="816" y="220.7188"/><text fill="#000000" font-family="sans-serif" font-size="13" font-weight="bold" lengthAdjust="spacing" textLength="153" x="822" y="238.2139">User connects to service</text><polygon fill="#181818" points="371.5,289.7734,381.5,293.7734,371.5,297.7734,375.5,293.7734" style="stroke:#181818;stroke-width:1.0;"/><line style="stroke:#181818;stroke-width:1.0;" x1="127.5" x2="377.5" y1="293.7734" y2="293.7734"/><text fill="#000000" font-family="sans-serif" font-size="13" lengthAdjust="spacing" textLength="174" x="134.5" y="272.5654">Connecting to frontend service</text><text fill="#000000" font-family="sans-serif" font-size="13" lengthAdjust="spacing" textLength="157" x="134.5" y="288.917">Charging view and ReactJS</text><rect fill="#EEEEEE" height="3" style="stroke:#EEEEEE;stroke-width:1.0;" width="1803" x="0" y="322.9492"/><line style="stroke:#000000;stroke-width:1.0;" x1="0" x2="1803" y1="322.9492" y2="322.9492"/><line style="stroke:#000000;stroke-width:1.0;" x1="0" x2="1803" y1="325.9492" y2="325.9492"/><rect fill="#EEEEEE" height="24.3516" style="stroke:#000000;stroke-width:2.0;" width="165" x="819" y="311.7734"/><text fill="#000000" font-family="sans-serif" font-size="13" font-weight="bold" lengthAdjust="spacing" textLength="147" x="825" y="329.2686">Register or login phase</text><path d="M100,353.125 L161,353.125 L161,361.4766 L151,371.4766 L100,371.4766 L100,353.125 " fill="#EEEEEE" style="stroke:#000000;stroke-width:1.5;"/><rect fill="none" height="669.7344" style="stroke:#000000;stroke-width:1.5;" width="1599.5" x="100" y="353.125"/><text fill="#000000" font-family="sans-serif" font-size="13" font-weight="bold" lengthAdjust="spacing" textLength="16" x="115" y="367.6201">alt</text><polygon fill="#181818" points="376.5,389.8281,386.5,393.8281,376.5,397.8281,380.5,393.8281" style="stroke:#181818;stroke-width:1.0;"/><line style="stroke:#181818;stroke-width:1.0;" x1="127.5" x2="382.5" y1="393.8281" y2="393.8281"/><text fill="#000000" font-family="sans-serif" font-size="13" lengthAdjust="spacing" textLength="160" x="134.5" y="388.9717">Register attempt as "name"</text><polygon fill="#181818" points="679.5,420.1797,689.5,424.1797,679.5,428.1797,683.5,424.1797" style="stroke:#181818;stroke-width:1.0;"/><line style="stroke:#181818;stroke-width:1.0;" x1="398.5" x2="685.5" y1="424.1797" y2="424.1797"/><text fill="#000000" font-family="sans-serif" font-size="13" lengthAdjust="spacing" textLength="176" x="405.5" y="419.3232">[GET] .../register?name=name</text><polygon fill="#181818" points="936.5,450.5313,946.5,454.5313,936.5,458.5313,940.5,454.5313" style="stroke:#181818;stroke-width:1.0;"/><line style="stroke:#181818;stroke-width:1.0;" x1="701.5" x2="942.5" y1="454.5313" y2="454.5313"/><text fill="#000000" font-family="sans-serif" font-size="13" lengthAdjust="spacing" textLength="73" x="708.5" y="449.6748">Register(w,r)</text><line style="stroke:#181818;stroke-width:1.0;" x1="958.5" x2="1000.5" y1="484.8828" y2="484.8828"/><line style="stroke:#181818;stroke-width:1.0;" x1="1000.5" x2="1000.5" y1="484.8828" y2="497.8828"/><line style="stroke:#181818;stroke-width:1.0;" x1="959.5" x2="1000.5" y1="497.8828" y2="497.8828"/><polygon fill="#181818" points="969.5,493.8828,959.5,497.8828,969.5,501.8828,965.5,497.8828" style="stroke:#181818;stroke-width:1.0;"/><text fill="#000000" font-family="sans-serif" font-size="13" lengthAdjust="spacing" textLength="98" x="965.5" y="480.0264">ip, port = getIP(r)</text><polygon fill="#181818" points="1595.5,524.2344,1605.5,528.2344,1595.5,532.2344,1599.5,528.2344" style="stroke:#181818;stroke-width:1.0;"/><line style="stroke:#181818;stroke-width:1.0;" x1="958.5" x2="1601.5" y1="528.2344" y2="528.2344"/><text fill="#000000" font-family="sans-serif" font-size="13" lengthAdjust="spacing" textLength="461" x="965.5" y="523.3779">INSERT INTO users (name, ip, port) VALUES ("name", ip, port) RETURNING id;</text><polygon fill="#181818" points="969.5,554.5859,959.5,558.5859,969.5,562.5859,965.5,558.5859" style="stroke:#181818;stroke-width:1.0;"/><line style="stroke:#181818;stroke-width:1.0;" x1="963.5" x2="1611.5" y1="558.5859" y2="558.5859"/><text fill="#000000" font-family="sans-serif" font-size="13" lengthAdjust="spacing" textLength="28" x="975.5" y="553.7295">3265</text><polygon fill="#181818" points="1595.5,584.9375,1605.5,588.9375,1595.5,592.9375,1599.5,588.9375" style="stroke:#181818;stroke-width:1.0;"/><line style="stroke:#181818;stroke-width:1.0;" x1="958.5" x2="1601.5" y1="588.9375" y2="588.9375"/><text fill="#000000" font-family="sans-serif" font-size="13" lengthAdjust="spacing" textLength="141" x="965.5" y="584.0811">SELECT * FROM users;</text><polygon fill="#181818" points="969.5,615.2891,959.5,619.2891,969.5,623.2891,965.5,619.2891" style="stroke:#181818;stroke-width:1.0;"/><line style="stroke:#181818;stroke-width:1.0;" x1="963.5" x2="1611.5" y1="619.2891" y2="619.2891"/><text fill="#000000" font-family="sans-serif" font-size="13" lengthAdjust="spacing" textLength="49" x="975.5" y="614.4326">user_list</text><polygon fill="#181818" points="712.5,645.6406,702.5,649.6406,712.5,653.6406,708.5,649.6406" style="stroke:#181818;stroke-width:1.0;"/><line style="stroke:#181818;stroke-width:1.0;" x1="706.5" x2="952.5" y1="649.6406" y2="649.6406"/><text fill="#000000" font-family="sans-serif" font-size="13" lengthAdjust="spacing" textLength="182" x="718.5" y="644.7842">LoginResponse{3265, user_list}</text><polygon fill="#181818" points="409.5,675.9922,399.5,679.9922,409.5,683.9922,405.5,679.9922" style="stroke:#181818;stroke-width:1.0;"/><line style="stroke:#181818;stroke-width:1.0;" x1="403.5" x2="695.5" y1="679.9922" y2="679.9922"/><text fill="#000000" font-family="sans-serif" font-size="13" lengthAdjust="spacing" textLength="228" x="415.5" y="675.1357">[JSON] LoginResponse{3265, user_list}</text><polygon fill="#181818" points="138.5,706.3438,128.5,710.3438,138.5,714.3438,134.5,710.3438" style="stroke:#181818;stroke-width:1.0;"/><line style="stroke:#181818;stroke-width:1.0;" x1="132.5" x2="382.5" y1="710.3438" y2="710.3438"/><text fill="#000000" font-family="sans-serif" font-size="13" lengthAdjust="spacing" textLength="104" x="144.5" y="705.4873">List of other users</text><line style="stroke:#000000;stroke-width:1.0;stroke-dasharray:2.0,2.0;" x1="100" x2="1699.5" y1="719.3438" y2="719.3438"/><polygon fill="#181818" points="376.5,738.6953,386.5,742.6953,376.5,746.6953,380.5,742.6953" style="stroke:#181818;stroke-width:1.0;"/><line style="stroke:#181818;stroke-width:1.0;" x1="127.5" x2="382.5" y1="742.6953" y2="742.6953"/><text fill="#000000" font-family="sans-serif" font-size="13" lengthAdjust="spacing" textLength="174" x="134.5" y="737.8389">Login attempt as user ID 3265</text><polygon fill="#181818" points="679.5,769.0469,689.5,773.0469,679.5,777.0469,683.5,773.0469" style="stroke:#181818;stroke-width:1.0;"/><line style="stroke:#181818;stroke-width:1.0;" x1="398.5" x2="685.5" y1="773.0469" y2="773.0469"/><text fill="#000000" font-family="sans-serif" font-size="13" lengthAdjust="spacing" textLength="134" x="405.5" y="768.1904">[GET] .../login?id=3265</text><polygon fill="#181818" points="936.5,799.3984,946.5,803.3984,936.5,807.3984,940.5,803.3984" style="stroke:#181818;stroke-width:1.0;"/><line style="stroke:#181818;stroke-width:1.0;" x1="701.5" x2="942.5" y1="803.3984" y2="803.3984"/><text fill="#000000" font-family="sans-serif" font-size="13" lengthAdjust="spacing" textLength="56" x="708.5" y="798.542">Login(w,r)</text><line style="stroke:#181818;stroke-width:1.0;" x1="958.5" x2="1000.5" y1="833.75" y2="833.75"/><line style="stroke:#181818;stroke-width:1.0;" x1="1000.5" x2="1000.5" y1="833.75" y2="846.75"/><line style="stroke:#181818;stroke-width:1.0;" x1="959.5" x2="1000.5" y1="846.75" y2="846.75"/><polygon fill="#181818" points="969.5,842.75,959.5,846.75,969.5,850.75,965.5,846.75" style="stroke:#181818;stroke-width:1.0;"/><text fill="#000000" font-family="sans-serif" font-size="13" lengthAdjust="spacing" textLength="98" x="965.5" y="828.8936">ip, port = getIP(r)</text><polygon fill="#181818" points="1595.5,889.4531,1605.5,893.4531,1595.5,897.4531,1599.5,893.4531" style="stroke:#181818;stroke-width:1.0;"/><line style="stroke:#181818;stroke-width:1.0;" x1="958.5" x2="1601.5" y1="893.4531" y2="893.4531"/><text fill="#000000" font-family="sans-serif" font-size="13" lengthAdjust="spacing" textLength="340" x="965.5" y="872.2451">UPDATE users SET ip = ip, port = port WHERE id = 3265;</text><text fill="#000000" font-family="sans-serif" font-size="13" lengthAdjust="spacing" textLength="141" x="969.5" y="888.5967">SELECT * FROM users;</text><polygon fill="#181818" points="969.5,919.8047,959.5,923.8047,969.5,927.8047,965.5,923.8047" style="stroke:#181818;stroke-width:1.0;"/><line style="stroke:#181818;stroke-width:1.0;" x1="963.5" x2="1611.5" y1="923.8047" y2="923.8047"/><text fill="#000000" font-family="sans-serif" font-size="13" lengthAdjust="spacing" textLength="49" x="975.5" y="918.9482">user_list</text><polygon fill="#181818" points="712.5,950.1563,702.5,954.1563,712.5,958.1563,708.5,954.1563" style="stroke:#181818;stroke-width:1.0;"/><line style="stroke:#181818;stroke-width:1.0;" x1="706.5" x2="952.5" y1="954.1563" y2="954.1563"/><text fill="#000000" font-family="sans-serif" font-size="13" lengthAdjust="spacing" textLength="182" x="718.5" y="949.2998">LoginResponse{3265, user_list}</text><polygon fill="#181818" points="409.5,980.5078,399.5,984.5078,409.5,988.5078,405.5,984.5078" style="stroke:#181818;stroke-width:1.0;"/><line style="stroke:#181818;stroke-width:1.0;" x1="403.5" x2="695.5" y1="984.5078" y2="984.5078"/><text fill="#000000" font-family="sans-serif" font-size="13" lengthAdjust="spacing" textLength="228" x="415.5" y="979.6514">[JSON] LoginResponse{3265, user_list}</text><polygon fill="#181818" points="138.5,1010.8594,128.5,1014.8594,138.5,1018.8594,134.5,1014.8594" style="stroke:#181818;stroke-width:1.0;"/><line style="stroke:#181818;stroke-width:1.0;" x1="132.5" x2="382.5" y1="1014.8594" y2="1014.8594"/><text fill="#000000" font-family="sans-serif" font-size="13" lengthAdjust="spacing" textLength="104" x="144.5" y="1010.0029">List of other users</text><rect fill="#EEEEEE" height="3" style="stroke:#EEEEEE;stroke-width:1.0;" width="1803" x="0" y="1051.0352"/><line style="stroke:#000000;stroke-width:1.0;" x1="0" x2="1803" y1="1051.0352" y2="1051.0352"/><line style="stroke:#000000;stroke-width:1.0;" x1="0" x2="1803" y1="1054.0352" y2="1054.0352"/><rect fill="#EEEEEE" height="24.3516" style="stroke:#000000;stroke-width:2.0;" width="264" x="769.5" y="1039.8594"/><text fill="#000000" font-family="sans-serif" font-size="13" font-weight="bold" lengthAdjust="spacing" textLength="246" x="775.5" y="1057.3545">Start chatting session with user "other"</text><polygon fill="#181818" points="376.5,1092.5625,386.5,1096.5625,376.5,1100.5625,380.5,1096.5625" style="stroke:#181818;stroke-width:1.0;"/><line style="stroke:#181818;stroke-width:1.0;stroke-dasharray:2.0,2.0;" x1="127.5" x2="382.5" y1="1096.5625" y2="1096.5625"/><text fill="#000000" font-family="sans-serif" font-size="13" lengthAdjust="spacing" textLength="232" x="134.5" y="1091.7061">Select user "other" from list with id 3103</text><polygon fill="#181818" points="679.5,1122.9141,689.5,1126.9141,679.5,1130.9141,683.5,1126.9141" style="stroke:#181818;stroke-width:1.0;"/><line style="stroke:#181818;stroke-width:1.0;" x1="398.5" x2="685.5" y1="1126.9141" y2="1126.9141"/><text fill="#000000" font-family="sans-serif" font-size="13" lengthAdjust="spacing" textLength="231" x="405.5" y="1122.0576">[GET] .../select?user=3265&amp;other=3103</text><polygon fill="#181818" points="936.5,1153.2656,946.5,1157.2656,936.5,1161.2656,940.5,1157.2656" style="stroke:#181818;stroke-width:1.0;"/><line style="stroke:#181818;stroke-width:1.0;" x1="701.5" x2="942.5" y1="1157.2656" y2="1157.2656"/><text fill="#000000" font-family="sans-serif" font-size="13" lengthAdjust="spacing" textLength="120" x="708.5" y="1152.4092">GetConversation(w,r)</text><polygon fill="#181818" points="1595.5,1232.6719,1605.5,1236.6719,1595.5,1240.6719,1599.5,1236.6719" style="stroke:#181818;stroke-width:1.0;"/><line style="stroke:#181818;stroke-width:1.0;" x1="958.5" x2="1601.5" y1="1236.6719" y2="1236.6719"/><text fill="#000000" font-family="sans-serif" font-size="13" lengthAdjust="spacing" textLength="165" x="965.5" y="1182.7607">SELECT * FROM messages</text><text fill="#000000" font-family="sans-serif" font-size="13" lengthAdjust="spacing" textLength="278" x="965.5" y="1199.1123">WHERE source = 3103 AND destination = 3265</text><text fill="#000000" font-family="sans-serif" font-size="13" lengthAdjust="spacing" textLength="248" x="965.5" y="1215.4639">OR source = 3265 AND destination = 3103</text><text fill="#000000" font-family="sans-serif" font-size="13" lengthAdjust="spacing" textLength="132" x="965.5" y="1231.8154">ORDER BY time ACS;</text><polygon fill="#181818" points="969.5,1263.0234,959.5,1267.0234,969.5,1271.0234,965.5,1267.0234" style="stroke:#181818;stroke-width:1.0;"/><line style="stroke:#181818;stroke-width:1.0;" x1="963.5" x2="1611.5" y1="1267.0234" y2="1267.0234"/><text fill="#000000" font-family="sans-serif" font-size="13" lengthAdjust="spacing" textLength="27" x="975.5" y="1262.167">rows</text><polygon fill="#181818" points="712.5,1293.375,702.5,1297.375,712.5,1301.375,708.5,1297.375" style="stroke:#181818;stroke-width:1.0;"/><line style="stroke:#181818;stroke-width:1.0;" x1="706.5" x2="952.5" y1="1297.375" y2="1297.375"/><text fill="#000000" font-family="sans-serif" font-size="13" lengthAdjust="spacing" textLength="223" x="718.5" y="1292.5186">Conversation{3265,3103,message_list}</text><polygon fill="#181818" points="409.5,1323.7266,399.5,1327.7266,409.5,1331.7266,405.5,1327.7266" style="stroke:#181818;stroke-width:1.0;"/><line style="stroke:#181818;stroke-width:1.0;" x1="403.5" x2="695.5" y1="1327.7266" y2="1327.7266"/><text fill="#000000" font-family="sans-serif" font-size="13" lengthAdjust="spacing" textLength="269" x="415.5" y="1322.8701">[JSON] Conversation{3265,3103,message_list}</text><polygon fill="#181818" points="138.5,1354.0781,128.5,1358.0781,138.5,1362.0781,134.5,1358.0781" style="stroke:#181818;stroke-width:1.0;"/><line style="stroke:#181818;stroke-width:1.0;" x1="132.5" x2="382.5" y1="1358.0781" y2="1358.0781"/><text fill="#000000" font-family="sans-serif" font-size="13" lengthAdjust="spacing" textLength="173" x="144.5" y="1353.2217">Conversation with user "other"</text><rect fill="#EEEEEE" height="3" style="stroke:#EEEEEE;stroke-width:1.0;" width="1803" x="0" y="1387.2539"/><line style="stroke:#000000;stroke-width:1.0;" x1="0" x2="1803" y1="1387.2539" y2="1387.2539"/><line style="stroke:#000000;stroke-width:1.0;" x1="0" x2="1803" y1="1390.2539" y2="1390.2539"/><rect fill="#EEEEEE" height="24.3516" style="stroke:#000000;stroke-width:2.0;" width="285" x="759" y="1376.0781"/><text fill="#000000" font-family="sans-serif" font-size="13" font-weight="bold" lengthAdjust="spacing" textLength="267" x="765" y="1393.5732">User "user" sends message to user "other"</text><polygon fill="#181818" points="376.5,1428.7813,386.5,1432.7813,376.5,1436.7813,380.5,1432.7813" style="stroke:#181818;stroke-width:1.0;"/><line style="stroke:#181818;stroke-width:1.0;stroke-dasharray:2.0,2.0;" x1="127.5" x2="382.5" y1="1432.7813" y2="1432.7813"/><text fill="#000000" font-family="sans-serif" font-size="13" lengthAdjust="spacing" textLength="167" x="134.5" y="1427.9248">Sends "Hello" to user "other"</text><polygon fill="#181818" points="679.5,1475.4844,689.5,1479.4844,679.5,1483.4844,683.5,1479.4844" style="stroke:#181818;stroke-width:1.0;"/><line style="stroke:#181818;stroke-width:1.0;" x1="398.5" x2="685.5" y1="1479.4844" y2="1479.4844"/><text fill="#000000" font-family="sans-serif" font-size="13" lengthAdjust="spacing" textLength="91" x="405.5" y="1458.2764">[POST] .../send</text><text fill="#000000" font-family="sans-serif" font-size="13" lengthAdjust="spacing" textLength="257" x="405.5" y="1474.6279">source=3265&amp;destination=3103&amp;body=Hello</text><line style="stroke:#181818;stroke-width:1.0;" x1="701.5" x2="743.5" y1="1509.8359" y2="1509.8359"/><line style="stroke:#181818;stroke-width:1.0;" x1="743.5" x2="743.5" y1="1509.8359" y2="1522.8359"/><line style="stroke:#181818;stroke-width:1.0;" x1="702.5" x2="743.5" y1="1522.8359" y2="1522.8359"/><polygon fill="#181818" points="712.5,1518.8359,702.5,1522.8359,712.5,1526.8359,708.5,1522.8359" style="stroke:#181818;stroke-width:1.0;"/><text fill="#000000" font-family="sans-serif" font-size="13" lengthAdjust="spacing" textLength="95" x="708.5" y="1504.9795">time=time.Now()</text><polygon fill="#181818" points="936.5,1549.1875,946.5,1553.1875,936.5,1557.1875,940.5,1553.1875" style="stroke:#181818;stroke-width:1.0;"/><line style="stroke:#181818;stroke-width:1.0;" x1="701.5" x2="942.5" y1="1553.1875" y2="1553.1875"/><text fill="#000000" font-family="sans-serif" font-size="13" lengthAdjust="spacing" textLength="108" x="708.5" y="1548.3311">SendMessage(w,r)</text><polygon fill="#181818" points="1600.5,1579.5391,1610.5,1583.5391,1600.5,1587.5391,1604.5,1583.5391" style="stroke:#181818;stroke-width:1.0;"/><line style="stroke:#181818;stroke-width:1.0;" x1="958.5" x2="1606.5" y1="1583.5391" y2="1583.5391"/><text fill="#000000" font-family="sans-serif" font-size="13" lengthAdjust="spacing" textLength="630" x="965.5" y="1578.6826">INSERT INTO messages (source, destination, body, time) VALUES (3265,3103,"Hello",time) RETURNING id;</text><polygon fill="#181818" points="969.5,1609.8906,959.5,1613.8906,969.5,1617.8906,965.5,1613.8906" style="stroke:#181818;stroke-width:1.0;"/><line style="stroke:#181818;stroke-width:1.0;" x1="963.5" x2="1611.5" y1="1613.8906" y2="1613.8906"/><text fill="#000000" font-family="sans-serif" font-size="13" lengthAdjust="spacing" textLength="14" x="975.5" y="1609.0342">54</text><polygon fill="#181818" points="712.5,1640.2422,702.5,1644.2422,712.5,1648.2422,708.5,1644.2422" style="stroke:#181818;stroke-width:1.0;"/><line style="stroke:#181818;stroke-width:1.0;" x1="706.5" x2="952.5" y1="1644.2422" y2="1644.2422"/><text fill="#000000" font-family="sans-serif" font-size="13" lengthAdjust="spacing" textLength="13" x="718.5" y="1639.3857">nil</text><polygon fill="#181818" points="409.5,1670.5938,399.5,1674.5938,409.5,1678.5938,405.5,1674.5938" style="stroke:#181818;stroke-width:1.0;"/><line style="stroke:#181818;stroke-width:1.0;" x1="403.5" x2="695.5" y1="1674.5938" y2="1674.5938"/><text fill="#000000" font-family="sans-serif" font-size="13" lengthAdjust="spacing" textLength="211" x="415.5" y="1669.7373">[HTTP response status] 201 Created</text><polygon fill="#181818" points="138.5,1700.9453,128.5,1704.9453,138.5,1708.9453,134.5,1704.9453" style="stroke:#181818;stroke-width:1.0;"/><line style="stroke:#181818;stroke-width:1.0;" x1="132.5" x2="382.5" y1="1704.9453" y2="1704.9453"/><text fill="#000000" font-family="sans-serif" font-size="13" lengthAdjust="spacing" textLength="132" x="144.5" y="1700.0889">New message appears</text><rect fill="#EEEEEE" height="3" style="stroke:#EEEEEE;stroke-width:1.0;" width="1803" x="0" y="1734.1211"/><line style="stroke:#000000;stroke-width:1.0;" x1="0" x2="1803" y1="1734.1211" y2="1734.1211"/><line style="stroke:#000000;stroke-width:1.0;" x1="0" x2="1803" y1="1737.1211" y2="1737.1211"/><rect fill="#EEEEEE" height="24.3516" style="stroke:#000000;stroke-width:2.0;" width="440" x="681.5" y="1722.9453"/><text fill="#000000" font-family="sans-serif" font-size="13" font-weight="bold" lengthAdjust="spacing" textLength="422" x="687.5" y="1740.4404">User "user" periodically check for new messages from user "other"</text><path d="M202,1762.2969 L202,1804.2969 L1798,1804.2969 L1798,1772.2969 L1788,1762.2969 L202,1762.2969 " fill="#FEFFDD" style="stroke:#181818;stroke-width:0.5;"/><path d="M1788,1762.2969 L1788,1772.2969 L1798,1772.2969 L1788,1762.2969 " fill="#FEFFDD" style="stroke:#181818;stroke-width:0.5;"/><text fill="#000000" font-family="sans-serif" font-size="13" lengthAdjust="spacing" textLength="1575" x="208" y="1780.792">Note: This is the easiest way to handle continuous conversation between two clients and could be greatly improved in the future by adding last message ID as a parameter to the "select" service so that only new messages are retrieved. A more complicated and non-RESTful</text><text fill="#000000" font-family="sans-serif" font-size="13" lengthAdjust="spacing" textLength="375" x="208" y="1797.1436">solution would be to manage chatting sessions with websockets.</text><path d="M100,1817 L173,1817 L173,1825.3516 L163,1835.3516 L100,1835.3516 L100,1817 " fill="#EEEEEE" style="stroke:#000000;stroke-width:1.5;"/><rect fill="none" height="279.8672" style="stroke:#000000;stroke-width:1.5;" width="1599.5" x="100" y="1817"/><text fill="#000000" font-family="sans-serif" font-size="13" font-weight="bold" lengthAdjust="spacing" textLength="28" x="115" y="1831.4951">loop</text><polygon fill="#181818" points="679.5,1853.7031,689.5,1857.7031,679.5,1861.7031,683.5,1857.7031" style="stroke:#181818;stroke-width:1.0;"/><line style="stroke:#181818;stroke-width:1.0;" x1="393.5" x2="685.5" y1="1857.7031" y2="1857.7031"/><text fill="#000000" font-family="sans-serif" font-size="13" lengthAdjust="spacing" textLength="279" x="400.5" y="1852.8467">[GET] .../select?source=3265&amp;destination=3103</text><polygon fill="#181818" points="936.5,1884.0547,946.5,1888.0547,936.5,1892.0547,940.5,1888.0547" style="stroke:#181818;stroke-width:1.0;"/><line style="stroke:#181818;stroke-width:1.0;" x1="701.5" x2="942.5" y1="1888.0547" y2="1888.0547"/><text fill="#000000" font-family="sans-serif" font-size="13" lengthAdjust="spacing" textLength="120" x="708.5" y="1883.1982">GetConversation(w,r)</text><polygon fill="#181818" points="1595.5,1963.4609,1605.5,1967.4609,1595.5,1971.4609,1599.5,1967.4609" style="stroke:#181818;stroke-width:1.0;"/><line style="stroke:#181818;stroke-width:1.0;" x1="958.5" x2="1601.5" y1="1967.4609" y2="1967.4609"/><text fill="#000000" font-family="sans-serif" font-size="13" lengthAdjust="spacing" textLength="165" x="965.5" y="1913.5498">SELECT * FROM messages</text><text fill="#000000" font-family="sans-serif" font-size="13" lengthAdjust="spacing" textLength="278" x="965.5" y="1929.9014">WHERE source = 3103 AND destination = 3265</text><text fill="#000000" font-family="sans-serif" font-size="13" lengthAdjust="spacing" textLength="248" x="965.5" y="1946.2529">OR source = 3265 AND destination = 3103</text><text fill="#000000" font-family="sans-serif" font-size="13" lengthAdjust="spacing" textLength="132" x="965.5" y="1962.6045">ORDER BY time ACS;</text><polygon fill="#181818" points="969.5,1993.8125,959.5,1997.8125,969.5,2001.8125,965.5,1997.8125" style="stroke:#181818;stroke-width:1.0;"/><line style="stroke:#181818;stroke-width:1.0;" x1="963.5" x2="1611.5" y1="1997.8125" y2="1997.8125"/><text fill="#000000" font-family="sans-serif" font-size="13" lengthAdjust="spacing" textLength="27" x="975.5" y="1992.9561">rows</text><polygon fill="#181818" points="712.5,2024.1641,702.5,2028.1641,712.5,2032.1641,708.5,2028.1641" style="stroke:#181818;stroke-width:1.0;"/><line style="stroke:#181818;stroke-width:1.0;" x1="706.5" x2="952.5" y1="2028.1641" y2="2028.1641"/><text fill="#000000" font-family="sans-serif" font-size="13" lengthAdjust="spacing" textLength="223" x="718.5" y="2023.3076">Conversation{3265,3103,message_list}</text><polygon fill="#181818" points="404.5,2054.5156,394.5,2058.5156,404.5,2062.5156,400.5,2058.5156" style="stroke:#181818;stroke-width:1.0;"/><line style="stroke:#181818;stroke-width:1.0;" x1="398.5" x2="695.5" y1="2058.5156" y2="2058.5156"/><text fill="#000000" font-family="sans-serif" font-size="13" lengthAdjust="spacing" textLength="269" x="410.5" y="2053.6592">[JSON] Conversation{3265,3103,message_list}</text><polygon fill="#181818" points="138.5,2084.8672,128.5,2088.8672,138.5,2092.8672,134.5,2088.8672" style="stroke:#181818;stroke-width:1.0;"/><line style="stroke:#181818;stroke-width:1.0;" x1="132.5" x2="387.5" y1="2088.8672" y2="2088.8672"/><text fill="#000000" font-family="sans-serif" font-size="13" lengthAdjust="spacing" textLength="223" x="144.5" y="2084.0107">Updated conversation with user "other"</text><rect fill="#EEEEEE" height="3" style="stroke:#EEEEEE;stroke-width:1.0;" width="1803" x="0" y="2125.043"/><line style="stroke:#000000;stroke-width:1.0;" x1="0" x2="1803" y1="2125.043" y2="2125.043"/><line style="stroke:#000000;stroke-width:1.0;" x1="0" x2="1803" y1="2128.043" y2="2128.043"/><rect fill="#EEEEEE" height="24.3516" style="stroke:#000000;stroke-width:2.0;" width="206" x="798.5" y="2113.8672"/><text fill="#000000" font-family="sans-serif" font-size="13" font-weight="bold" lengthAdjust="spacing" textLength="188" x="804.5" y="2131.3623">User disconnects from service</text><polygon fill="#181818" points="376.5,2166.5703,386.5,2170.5703,376.5,2174.5703,380.5,2170.5703" style="stroke:#181818;stroke-width:1.0;"/><line style="stroke:#181818;stroke-width:1.0;" x1="127.5" x2="382.5" y1="2170.5703" y2="2170.5703"/><text fill="#000000" font-family="sans-serif" font-size="13" lengthAdjust="spacing" textLength="195" x="134.5" y="2165.7139">Disconnects from frontend service</text><polygon fill="#181818" points="679.5,2196.9219,689.5,2200.9219,679.5,2204.9219,683.5,2200.9219" style="stroke:#181818;stroke-width:1.0;"/><line style="stroke:#181818;stroke-width:1.0;" x1="388.5" x2="685.5" y1="2200.9219" y2="2200.9219"/><text fill="#000000" font-family="sans-serif" font-size="13" lengthAdjust="spacing" textLength="142" x="395.5" y="2196.0654">[GET] .../logout?id=3265</text><line style="stroke:#181818;stroke-width:1.0;" x1="388.5" x2="430.5" y1="2236.2734" y2="2236.2734"/><line style="stroke:#181818;stroke-width:1.0;" x1="430.5" x2="430.5" y1="2236.2734" y2="2249.2734"/><line style="stroke:#181818;stroke-width:1.0;" x1="383.5" x2="430.5" y1="2249.2734" y2="2249.2734"/><polygon fill="#181818" points="393.5,2245.2734,383.5,2249.2734,393.5,2253.2734,389.5,2249.2734" style="stroke:#181818;stroke-width:1.0;"/><text fill="#000000" font-family="sans-serif" font-size="13" lengthAdjust="spacing" textLength="72" x="395.5" y="2231.417">Disconnects</text><polygon fill="#181818" points="936.5,2270.625,946.5,2274.625,936.5,2278.625,940.5,2274.625" style="stroke:#181818;stroke-width:1.0;"/><line style="stroke:#181818;stroke-width:1.0;" x1="701.5" x2="942.5" y1="2274.625" y2="2274.625"/><text fill="#000000" font-family="sans-serif" font-size="13" lengthAdjust="spacing" textLength="64" x="708.5" y="2269.7686">Logout(w,r)</text><polygon fill="#181818" points="1600.5,2300.9766,1610.5,2304.9766,1600.5,2308.9766,1604.5,2304.9766" style="stroke:#181818;stroke-width:1.0;"/><line style="stroke:#181818;stroke-width:1.0;" x1="958.5" x2="1606.5" y1="2304.9766" y2="2304.9766"/><text fill="#000000" font-family="sans-serif" font-size="13" lengthAdjust="spacing" textLength="376" x="965.5" y="2300.1201">UPDATE users SET ip = 0.0.0.0 and port = 0 WHERE id = 3265;</text><!--SRC=[xLTjRnf74Fv-ls9q7r8x0Uh4JJyueXQsYKtaOCfBgofOrSADOPLZzxIxPs9L_U-TsJqE3cFiVgXKgGK9xlRcVPwTVKvCdJOmicYYIFZhkAFgPqOlQGdwI6kV1d1dj7AeaXY43JVHH7-3kDyU3E_o56OQMhrE705amZWvbPbG3Y0UeBb7uxMilzoIY4TEfj99j5ucfpkxBTBJriqC3dw-XaGuCH4MlN0oYI8A2IYGA5BQ8MXou5EfXHZX1BgqVW8VY_115d6GrWC8Vosd26mp0QtAV0z2j7Kh4mH1YjDKedB-_d2iXlF242lJ9Na7Wvb1Iq9aQOu6EKIX8DHqWbEHMv9rfATJX2mtcUO5ErPEGsRqFRjoSonS0Qto7McPxonCGaFODSAU1XN-3CwCphDLrNVcCLPdkGFIdUh4Pu7VSEfoh0ZLA5oA6knSvobLhHAYI19AsTAISA6qolbqMERYp3laql1j6M28QAKRDPk-OnI4KkJUSjwhoZQRaNzM_wdevvitrDBp82dLZ6KhTabfhCxdmipuwRt4fO-XA181YztrSIQj8xDKfrIJ96HpwZzx0n2fez-AL- -qL1BEuI9ptDrOYGKovg48ZpH2TbxbosLxU0kDHkDxKoYViaAJVxmIVufgaAR7FbIS7Inhvh0KvKyGAgLFG6OroBHnq8GPkaxlu2c5PCAsIQFJ7RJxG_eRtdXmMJZWY6gbgKFufNKzQjCc20bkFkctXwD-jzEz19byg3WY-sLOzJhvENxtu_jdGXcqhzldGtWD7_itdqCmpnXbcTzJAaxqoEggaYnspMtjeysqilW7Hr9Rg_uPLGjVz8xrldmQt7HldrSlsns0ubtI8z1te0di9kH2WfXQt8adxs8JJAm1dOjrsVP3oWFtL2RDIfbteicx-aUWDEfTj8Rj0aM3zf1CaFA67V_twrMxtoQyq3q7-s6i_WkDLqd4msRWw2Y3AGr8Fx0iZJn9vynIkdbeUUprOfe-K0AbEky6cDAugqhJumLmKC4I5VVuxT7n2t1ZlR5JDkQXyyeRR9RQJwBe4XqDNbgtmb46U_3qnFPUKEfYXdJU1K1OdHkUyJvoQ7Kl845BHVBc2woCrKr_Gv1MTWcIFWjUjFjmzXiukK1edG-U0HIVd_knj9bkm09xgXLvl11HBpIo0rURce_n4fK7PypBCP-zYLqLcG_65wEBzU8hJ5CTR-iz3QZUpQ14b4h6AZGfG6gZFHvOhoOwUMXw3pimLboT-COr-QVHrSk3m_rmvB0_XsJtGt7hn5kXa1YUZxYs2QOQSAGr7ydw55nthQXIBJp_6sVX-n_sGqt9T0-IheR37Z6wC9N0Ek5oUmllZjx2kK51V7CtWBh4VbPu45c6WWRJDceoD58dSYhIz86c54w_mXtH8hLMjM7MRA5fWszxppNEUSMsFJkMrjC-59R8FOqfyS3WcXCT8_PBP8zgdklSykKQvXDqIqG5RgaBZca3QrsHpnadJA7A1JDcegfqY7fscRkSA3UJ-YJXGPiAShhAdevL9kFyMa64XbbSmL7ZC0xZad5Q7SYiLkIaKWL1vWqw8v7SDg052squaKMMKlcOz0Usg-h5En7lYJGFkxVapXeMGd58soU23LjyYHEhfr_HsGR18Kgrpg8NZlHzEp3wVx3_UmRxA4iyNgRx1pmpYDLkJQGjtu_yTbo_8H5Agkz89t2nBRtzZXGzoorrxYhaibJOACI6csWV-IHRLL1jZUVTBFAeuRz-LnLiykWHbOp-0W00]--></g></svg>