<?xml version="1.0" encoding="UTF-8" standalone="no"?><svg xmlns="http://www.w3.org/2000/svg" xmlns:xlink="http://www.w3.org/1999/xlink" contentStyleType="text/css" height="948px" preserveAspectRatio="none" style="width:384px;height:948px;background:#FFFFFF;" version="1.1" viewBox="0 0 384 948" width="384px" zoomAndPan="magnify"><defs/><g><!--cluster Application--><g id="cluster_Application"><rect fill="none" height="935" rx="2.5" ry="2.5" style="stroke:#181818;stroke-width:1.0;" width="299" x="79" y="7"/><text fill="#000000" font-family="sans-serif" font-size="14" font-weight="bold" lengthAdjust="spacing" textLength="78" x="189.5" y="23.5332">Application</text></g><g id="elem_Sign up"><ellipse cx="228.4598" cy="58.9615" fill="#F1F1F1" rx="45.4598" ry="15.4615" style="stroke:#181818;stroke-width:0.5;"/><text fill="#000000" font-family="sans-serif" font-size="14" lengthAdjust="spacing" textLength="48" x="203.2695" y="63.0394">Sign up</text></g><g id="elem_Sign in"><ellipse cx="228.3909" cy="124.9517" fill="#F1F1F1" rx="41.8909" ry="15.4517" style="stroke:#181818;stroke-width:0.5;"/><text fill="#000000" font-family="sans-serif" font-size="14" lengthAdjust="spacing" textLength="43" x="206.8454" y="128.6948">Sign in</text></g><g id="elem_Logout"><ellipse cx="228.5997" cy="190.9523" fill="#F1F1F1" rx="42.5997" ry="15.4523" style="stroke:#181818;stroke-width:0.5;"/><text fill="#000000" font-family="sans-serif" font-size="14" lengthAdjust="spacing" textLength="44" x="206.3355" y="194.7639">Logout</text></g><g id="elem_Change status"><ellipse cx="228.5677" cy="258.2135" fill="#F1F1F1" rx="71.5677" ry="16.7135" style="stroke:#181818;stroke-width:0.5;"/><text fill="#000000" font-family="sans-serif" font-size="14" lengthAdjust="spacing" textLength="92" x="179.5677" y="262.7301">Change status</text></g><g id="elem_See conversation history with contact"><ellipse cx="228.641" cy="339.1282" fill="#F1F1F1" rx="133.641" ry="29.1282" style="stroke:#181818;stroke-width:0.5;"/><text fill="#000000" font-family="sans-serif" font-size="14" lengthAdjust="spacing" textLength="234" x="111.641" y="342.8567">See conversation history with contact</text></g><g id="elem_See conversation history in group"><ellipse cx="228.3414" cy="430.0683" fill="#F1F1F1" rx="123.3414" ry="27.0683" style="stroke:#181818;stroke-width:0.5;"/><text fill="#000000" font-family="sans-serif" font-size="14" lengthAdjust="spacing" textLength="212" x="122.3414" y="433.7968">See conversation history in group</text></g><g id="elem_Add / Remove user as contact"><ellipse cx="228.6774" cy="517.0355" fill="#F1F1F1" rx="113.1774" ry="25.0355" style="stroke:#181818;stroke-width:0.5;"/><text fill="#000000" font-family="sans-serif" font-size="14" lengthAdjust="spacing" textLength="190" x="133.6774" y="520.764">Add / Remove user as contact</text></g><g id="elem_Block user"><ellipse cx="228.6908" cy="593.0728" fill="#F1F1F1" rx="58.6908" ry="15.5728" style="stroke:#181818;stroke-width:0.5;"/><text fill="#000000" font-family="sans-serif" font-size="14" lengthAdjust="spacing" textLength="66" x="192.6908" y="597.5894">Block user</text></g><g id="elem_Create / Join / Remove group"><ellipse cx="228.3903" cy="668.0781" fill="#F1F1F1" rx="110.8903" ry="24.5781" style="stroke:#181818;stroke-width:0.5;"/><text fill="#000000" font-family="sans-serif" font-size="14" lengthAdjust="spacing" textLength="185" x="135.8903" y="671.8066">Create / Join / Remove group</text></g><g id="elem_Add / Remove user to group"><ellipse cx="228.7046" cy="751.9409" fill="#F1F1F1" rx="107.7046" ry="23.9409" style="stroke:#181818;stroke-width:0.5;"/><text fill="#000000" font-family="sans-serif" font-size="14" lengthAdjust="spacing" textLength="178" x="139.7046" y="755.6694">Add / Remove user to group</text></g><g id="elem_Send direct message"><ellipse cx="228.3193" cy="830.9639" fill="#F1F1F1" rx="87.8193" ry="19.9639" style="stroke:#181818;stroke-width:0.5;"/><text fill="#000000" font-family="sans-serif" font-size="14" lengthAdjust="spacing" textLength="133" x="161.8193" y="834.6924">Send direct message</text></g><g id="elem_Send group message"><ellipse cx="228.6756" cy="906.1351" fill="#F1F1F1" rx="88.6756" ry="20.1351" style="stroke:#181818;stroke-width:0.5;"/><text fill="#000000" font-family="sans-serif" font-size="14" lengthAdjust="spacing" textLength="135" x="161.1756" y="909.8636">Send group message</text></g><!--entity user--><g id="elem_user"><ellipse cx="20.5" cy="443.5" fill="#F1F1F1" rx="8" ry="8" style="stroke:#181818;stroke-width:0.5;"/><path d="M20.5,451.5 L20.5,478.5 M7.5,459.5 L33.5,459.5 M20.5,478.5 L7.5,493.5 M20.5,478.5 L33.5,493.5 " fill="none" style="stroke:#181818;stroke-width:0.5;"/><text fill="#000000" font-family="sans-serif" font-size="14" lengthAdjust="spacing" textLength="29" x="6" y="509.5332">User</text></g><!--link user to Sign up--><g id="link_user_Sign up"><path d="M21.06,434.86 C20.91,347.67 25.5,141.24 71,92 C99.36,61.31 148.46,55.3 184.12,55.56 " fill="none" id="user-Sign up" style="stroke:#181818;stroke-width:1.0;"/></g><!--link user to Sign in--><g id="link_user_Sign in"><path d="M22.26,434.83 C24.57,359.23 33.83,197.17 71,158 C100.53,126.88 151.42,121.3 187.13,121.77 " fill="none" id="user-Sign in" style="stroke:#181818;stroke-width:1.0;"/></g><!--link user to Logout--><g id="link_user_Logout"><path d="M24.07,434.97 C29.02,372.3 42.05,253.31 71,224 C100.95,193.68 151.25,187.85 186.73,188.05 " fill="none" id="user-Logout" style="stroke:#181818;stroke-width:1.0;"/></g><!--link user to Change status--><g id="link_user_Change status"><path d="M21,434.71 C22.7,393.27 32.06,328.98 71,292 C93.78,270.36 126.94,261.2 156.88,257.72 " fill="none" id="user-Change status" style="stroke:#181818;stroke-width:1.0;"/></g><!--link user to See conversation history with contact--><g id="link_user_See conversation history with contact"><path d="M35.14,435.2 C43.12,417.62 54.84,397.92 71,385 C86.37,372.71 104.93,363.7 123.82,357.1 " fill="none" id="user-See conversation history with contact" style="stroke:#181818;stroke-width:1.0;"/></g><!--link user to See conversation history in group--><g id="link_user_See conversation history in group"><path d="M35.02,471.11 C56.32,466.56 99.41,457.36 139.43,448.81 " fill="none" id="user-See conversation history in group" style="stroke:#181818;stroke-width:1.0;"/></g><!--link user to Add / Remove user as contact--><g id="link_user_Add / Remove user as contact"><path d="M35.02,476.82 C57.39,481.49 103.81,491.18 145.45,499.87 " fill="none" id="user-Add / Remove user as contact" style="stroke:#181818;stroke-width:1.0;"/></g><!--link user to Block user--><g id="link_user_Block user"><path d="M35.14,511.57 C43.11,528.49 54.84,547.25 71,559 C99.56,579.77 138.3,588.3 170.09,591.62 " fill="none" id="user-Block user" style="stroke:#181818;stroke-width:1.0;"/></g><!--link user to Create / Join / Remove group--><g id="link_user_Create / Join / Remove group"><path d="M24.05,513.15 C28.38,547.55 39.99,596.58 71,626 C86.82,641.01 107.4,650.77 128.41,657.1 " fill="none" id="user-Create / Join / Remove group" style="stroke:#181818;stroke-width:1.0;"/></g><!--link user to Add / Remove user to group--><g id="link_user_Add / Remove user to group"><path d="M24.81,513.35 C30.62,572.94 44.6,682.1 71,710 C86.37,726.25 107.29,736.45 128.82,742.8 " fill="none" id="user-Add / Remove user to group" style="stroke:#181818;stroke-width:1.0;"/></g><!--link user to Send direct message--><g id="link_user_Send direct message"><path d="M22.3,513.14 C24.68,589.16 34.07,752.82 71,793 C89.07,812.66 115.44,822.94 141.4,828.1 " fill="none" id="user-Send direct message" style="stroke:#181818;stroke-width:1.0;"/></g><!--link user to Send group message--><g id="link_user_Send group message"><path d="M20.98,513.25 C20.65,602.37 24.8,816.25 71,868 C88.69,887.81 114.8,898.16 140.65,903.33 " fill="none" id="user-Send group message" style="stroke:#181818;stroke-width:1.0;"/></g><!--SRC=[ZP4n3i8m34NtdiBg14F5tgsm8IOG1uXIargqSPMuHGXnTv88WKePcYdv__lPILgy20Y38zC8rEHG2x7DohD7LuBoC8HD1c5bqLFMj0XvrVSjQHMZ-IEvCLOKgnCP2qE_dcba9zg13GyoaNPDW2DuKJBuAG0HDDiHdKyjeI4lxEvm8scY8qhBiWgoO1p_35ZLDMpWY1sFcBHuxt_ORSlwcWxJoHqgmO3OS-1_I4iQXQUVnqvew_TVG8VUAuDpFvLzxMVs0W00]--></g></svg>